<svg width="20" height="20" viewBox="0 0 20 20" fill="none" xmlns="http://www.w3.org/2000/svg">
<path d="M5.94344 2H4.21791C2.99299 2 2 2.98743 2 4.20549V5.92136C2 7.13942 2.99299 8.12685 4.21791 8.12685H5.94344C7.16836 8.12685 8.16135 7.13942 8.16135 5.92136V4.20549C8.16135 2.98743 7.16836 2 5.94344 2Z" stroke="#8A949E" stroke-width="2" stroke-linecap="round" stroke-linejoin="round"/>
<path d="M15.7821 2H14.0565C12.8316 2 11.8386 2.98743 11.8386 4.20549V5.92136C11.8386 7.13942 12.8316 8.12685 14.0565 8.12685H15.7821C17.007 8.12685 18 7.13942 18 5.92136V4.20549C18 2.98743 17.007 2 15.7821 2Z" stroke="#8A949E" stroke-width="2" stroke-linecap="round" stroke-linejoin="round"/>
<path d="M5.94344 11.8809H4.21791C2.99299 11.8809 2 12.8683 2 14.0863V15.8022C2 17.0203 2.99299 18.0077 4.21791 18.0077H5.94344C7.16836 18.0077 8.16135 17.0203 8.16135 15.8022V14.0863C8.16135 12.8683 7.16836 11.8809 5.94344 11.8809Z" stroke="#8A949E" stroke-width="2" stroke-linecap="round" stroke-linejoin="round"/>
<path d="M15.7821 11.8809H14.0565C12.8316 11.8809 11.8386 12.8683 11.8386 14.0863V15.8022C11.8386 17.0203 12.8316 18.0077 14.0565 18.0077H15.7821C17.007 18.0077 18 17.0203 18 15.8022V14.0863C18 12.8683 17.007 11.8809 15.7821 11.8809Z" stroke="#8A949E" stroke-width="2" stroke-linecap="round" stroke-linejoin="round"/>
</svg>
