<svg width="38" height="29" viewBox="0 0 38 29" fill="none" xmlns="http://www.w3.org/2000/svg">
<path d="M22.7749 11.8976V10.25C22.7749 8.18225 21.1177 6.5 19.0807 6.5C17.0437 6.5 15.3864 8.18225 15.3864 10.25V11.8764C13.4222 12.5341 12 14.4136 12 16.625V18.3125C12 21.0695 14.2097 23.3125 16.9257 23.3125H21.1741C23.8901 23.3125 26.0998 21.0695 26.0998 18.3125V16.625C26.0998 14.4368 24.7072 12.5737 22.7749 11.8976ZM19.0807 9C19.7597 9 20.3121 9.56075 20.3121 10.25V11.625H17.8493V10.25C17.8493 9.56075 18.4017 9 19.0807 9ZM23.6369 18.3125C23.6369 19.691 22.5321 20.8125 21.1741 20.8125H16.9257C15.5677 20.8125 14.4629 19.691 14.4629 18.3125V16.625C14.4629 15.2465 15.5677 14.125 16.9257 14.125H21.1741C22.5321 14.125 23.6369 15.2465 23.6369 16.625V18.3125ZM20.661 17.4375C20.661 18.3004 19.9719 19 19.1217 19C18.2716 19 17.5825 18.3004 17.5825 17.4375C17.5825 16.5746 18.2716 15.875 19.1217 15.875C19.9719 15.875 20.661 16.5746 20.661 17.4375Z" fill="#AF77F5"/>
<path d="M36.2507 25.9355H35.0718V4.42082C35.0718 1.98318 33.0887 0 30.651 0H15.7038C14.8899 0 14.2302 0.659734 14.2302 1.47361C14.2302 2.28748 14.8899 2.94721 15.7038 2.94721H30.651C31.4636 2.94721 32.1246 3.60827 32.1246 4.42082V25.9355H23.283H22.8484C22.8077 25.9355 22.5 26 19 25.9355C16.5624 25.9355 15.1197 25.9355 14.9409 25.9355H14.4413H5.59971V4.42082C5.59971 3.60827 6.26077 2.94721 7.07331 2.94721H10.0205C10.8344 2.94721 11.4941 2.28748 11.4941 1.47361C11.4941 0.659734 10.8344 0 10.0205 0H7.07331C4.63567 0 2.65249 1.98318 2.65249 4.42082V25.9355H1.47361C0.659734 25.9355 0 26.5952 0 27.4091C0 28.223 0.659734 28.8827 1.47361 28.8827H36.2507C37.0646 28.8827 37.7243 28.223 37.7243 27.4091C37.7243 26.5952 37.0646 25.9355 36.2507 25.9355Z" fill="#AF77F5"/>
</svg>
