<svg width="25" height="24" viewBox="0 0 25 24" fill="none" xmlns="http://www.w3.org/2000/svg">
<ellipse cx="12.1606" cy="12" rx="12.1606" ry="12" fill="#8261AC"/>
<path d="M16.4884 18.0002C16.2058 18.0002 15.9767 17.7764 15.9767 17.5002C15.9767 15.5427 14.3472 13.9502 12.3442 13.9502H11.5767C9.57372 13.9502 7.94416 15.5427 7.94416 17.5002C7.94416 17.7764 7.7151 18.0002 7.43253 18.0002C7.14995 18.0002 6.9209 17.7764 6.9209 17.5002C6.9209 14.9913 9.0095 12.9502 11.5767 12.9502H12.3442C14.9114 12.9502 17 14.9913 17 17.5002C17 17.7764 16.7709 18.0002 16.4884 18.0002Z" fill="white"/>
<path d="M11.9096 11.9502C10.0053 11.9502 8.45605 10.4362 8.45605 8.57521C8.45605 6.71423 10.0053 5.2002 11.9096 5.2002C13.8138 5.2002 15.3631 6.71423 15.3631 8.57521C15.3631 10.4362 13.8138 11.9502 11.9096 11.9502ZM11.9096 6.2002C10.5695 6.2002 9.47931 7.26563 9.47931 8.57521C9.47931 9.88479 10.5695 10.9502 11.9096 10.9502C13.2496 10.9502 14.3398 9.88479 14.3398 8.57521C14.3398 7.26563 13.2496 6.2002 11.9096 6.2002Z" fill="white"/>
</svg>
