<svg width="22" height="20" viewBox="0 0 22 20" fill="none" xmlns="http://www.w3.org/2000/svg">
<path d="M6.75781 11.9531H10.0156L11.1172 13.3125C11.7617 12.457 12.125 11.168 12.125 9.51562C12.125 6.14062 10.625 4.3125 8.14062 4.3125C5.65625 4.3125 4.15625 6.14062 4.15625 9.51562C4.15625 12.8906 5.65625 14.7188 8.14062 14.7188C8.375 14.7188 8.60938 14.707 8.84375 14.6719L6.75781 11.9531ZM16.2031 9.51562C16.2031 12.5039 15.207 14.7773 13.5781 16.2656L16.0625 19.3359H12.4297L11.1172 17.7422C10.2031 18.0703 9.19531 18.2344 8.14062 18.2344C3.57031 18.2344 0.078125 15.0938 0.078125 9.51562C0.078125 3.91406 3.57031 0.796875 8.14062 0.796875C12.6875 0.796875 16.2031 3.91406 16.2031 9.51562ZM19.7188 18.2344C18.5469 18.2344 17.5859 17.2969 17.6094 16.1016C17.5859 14.9531 18.5469 14.0156 19.7188 14.0156C20.8438 14.0156 21.8281 14.9531 21.8516 16.1016C21.8281 17.2969 20.8438 18.2344 19.7188 18.2344Z" fill="#8261AC"/>
</svg>
