<svg width="25" height="24" viewBox="0 0 25 24" fill="none" xmlns="http://www.w3.org/2000/svg">
<ellipse cx="12.1606" cy="12" rx="12.1606" ry="12" fill="#0767C7"/>
<path d="M16.4884 18.0001C16.2058 18.0001 15.9767 17.7762 15.9767 17.5001C15.9767 15.5426 14.3472 13.95 12.3442 13.95H11.5767C9.57372 13.95 7.94416 15.5426 7.94416 17.5001C7.94416 17.7762 7.7151 18.0001 7.43253 18.0001C7.14995 18.0001 6.9209 17.7762 6.9209 17.5001C6.9209 14.9912 9.0095 12.95 11.5767 12.95H12.3442C14.9114 12.95 17 14.9912 17 17.5001C17 17.7762 16.7709 18.0001 16.4884 18.0001Z" fill="white"/>
<path d="M11.9096 11.95C10.0053 11.95 8.45605 10.4359 8.45605 8.57496C8.45605 6.71398 10.0053 5.19995 11.9096 5.19995C13.8138 5.19995 15.3631 6.71398 15.3631 8.57496C15.3631 10.4359 13.8138 11.95 11.9096 11.95ZM11.9096 6.19995C10.5695 6.19995 9.47931 7.26538 9.47931 8.57496C9.47931 9.88454 10.5695 10.95 11.9096 10.95C13.2496 10.95 14.3398 9.88454 14.3398 8.57496C14.3398 7.26538 13.2496 6.19995 11.9096 6.19995Z" fill="white"/>
</svg>
