<svg width="29" height="32" viewBox="0 0 29 32" fill="none" xmlns="http://www.w3.org/2000/svg">
<path d="M25.6752 20.5851V18.9375C25.6752 16.8698 24.0179 15.1875 21.9809 15.1875C19.9439 15.1875 18.2866 16.8698 18.2866 18.9375V20.5639C16.3224 21.2216 14.9002 23.1011 14.9002 25.3125V27C14.9002 29.757 17.1099 32 19.8259 32H24.0743C26.7903 32 29 29.757 29 27V25.3125C29 23.1243 27.6074 21.2612 25.6752 20.5851ZM21.9809 17.6875C22.6599 17.6875 23.2123 18.2482 23.2123 18.9375V20.3125H20.7495V18.9375C20.7495 18.2482 21.3019 17.6875 21.9809 17.6875ZM26.5372 27C26.5372 28.3785 25.4323 29.5 24.0743 29.5H19.8259C18.4679 29.5 17.3631 28.3785 17.3631 27V25.3125C17.3631 23.934 18.4679 22.8125 19.8259 22.8125H24.0743C25.4323 22.8125 26.5372 23.934 26.5372 25.3125V27ZM12.0064 16.875C16.5897 16.875 20.3185 13.0899 20.3185 8.4375C20.3185 3.78506 16.5897 0 12.0064 0C7.42308 0 3.69427 3.78506 3.69427 8.4375C3.69427 13.0899 7.42308 16.875 12.0064 16.875ZM12.0064 2.5C15.2316 2.5 17.8556 5.16356 17.8556 8.4375C17.8556 11.7114 15.2316 14.375 12.0064 14.375C8.78109 14.375 6.15711 11.7114 6.15711 8.4375C6.15711 5.16356 8.78109 2.5 12.0064 2.5ZM23.5612 26.125C23.5612 26.9879 22.8721 27.6875 22.022 27.6875C21.1718 27.6875 20.4827 26.9879 20.4827 26.125C20.4827 25.2621 21.1718 24.5625 22.022 24.5625C22.8721 24.5625 23.5612 25.2621 23.5612 26.125ZM13.6688 20.625C13.6688 21.3154 13.1175 21.875 12.4374 21.875H11.2059C6.38499 21.875 2.46285 25.8563 2.46285 30.75C2.46285 31.4404 1.91154 32 1.23142 32C0.551308 32 0 31.4404 0 30.75C0 24.4778 5.02697 19.375 11.2059 19.375H12.4374C13.1175 19.375 13.6688 19.9346 13.6688 20.625Z" fill="#0050CA"/>
</svg>
