<svg width="24" height="24" viewBox="0 0 24 24" fill="none" xmlns="http://www.w3.org/2000/svg">
<mask id="path-1-inside-1_958_30040" fill="white">
<path d="M21 11.666V20C20.9998 20.5521 20.5522 21 20 21H15V16.666C14.9998 16.1139 14.5522 15.666 14 15.666H12C11.4478 15.666 11.0002 16.1139 11 16.666V21H6C5.44784 21 5.0002 20.5521 5 20V11.666L13 5L21 11.666Z"/>
</mask>
<path d="M21 11.666V20C20.9998 20.5521 20.5522 21 20 21H15V16.666C14.9998 16.1139 14.5522 15.666 14 15.666H12C11.4478 15.666 11.0002 16.1139 11 16.666V21H6C5.44784 21 5.0002 20.5521 5 20V11.666L13 5L21 11.666Z" fill="#0050CA"/>
<path d="M21 11.666H22V11.1976L21.6401 10.8978L21 11.666ZM21 20L22 20.0004V20H21ZM15 21H14V22H15V21ZM15 16.666H16V16.6657L15 16.666ZM11 16.666L10 16.6657V16.666H11ZM11 21V22H12V21H11ZM5 20H4L4 20.0004L5 20ZM5 11.666L4.35985 10.8978L4 11.1976V11.666H5ZM13 5L13.6401 4.23175L13 3.69834L12.3599 4.23175L13 5ZM21 11.666H20V20H21H22V11.666H21ZM21 20L20 19.9996V20V21V22C21.1048 22 21.9996 21.1041 22 20.0004L21 20ZM20 21V20H15V21V22H20V21ZM15 21H16V16.666H15H14V21H15ZM15 16.666L16 16.6657C15.9997 15.5618 15.1047 14.666 14 14.666V15.666V16.666V16.6663L15 16.666ZM14 15.666V14.666H12V15.666V16.666H14V15.666ZM12 15.666V14.666C10.8953 14.666 10.0003 15.5618 10 16.6657L11 16.666L12 16.6663V16.666V15.666ZM11 16.666H10V21H11H12V16.666H11ZM11 21V20H6V21V22H11V21ZM6 21V20L6 19.9996L5 20L4 20.0004C4.0004 21.1041 4.89519 22 6 22V21ZM5 20H6V11.666H5H4V20H5ZM5 11.666L5.64015 12.4343L13.6401 5.76825L13 5L12.3599 4.23175L4.35985 10.8978L5 11.666ZM13 5L12.3599 5.76825L20.3599 12.4343L21 11.666L21.6401 10.8978L13.6401 4.23175L13 5Z" fill="#0050CA" mask="url(#path-1-inside-1_958_30040)"/>
</svg>
