<svg width="19" height="18" viewBox="0 0 19 18" fill="none" xmlns="http://www.w3.org/2000/svg">
<rect width="19" height="18" rx="6" fill="#0050CA"/>
<path d="M14.5938 7.21875C14.3349 7.21875 14.125 7.42861 14.125 7.6875C14.125 7.94639 14.3349 8.15625 14.5938 8.15625C14.8522 8.15625 15.0625 8.36653 15.0625 8.625C15.0625 8.88347 14.8522 9.09375 14.5938 9.09375C14.3349 9.09375 14.125 9.30361 14.125 9.5625C14.125 9.82139 14.3349 10.0313 14.5938 10.0313C15.3692 10.0313 16 9.40041 16 8.625C16 7.84959 15.3692 7.21875 14.5938 7.21875Z" fill="white"/>
<path d="M11.9449 3.00019C11.5394 3.00699 11.1565 3.1887 10.8945 3.49876L9.07915 5.64632C8.9899 5.7519 8.8594 5.81246 8.72116 5.81246H5.875C4.84113 5.81246 4 6.65359 4 7.68747V9.56247C4 10.5963 4.84113 11.4375 5.875 11.4375H8.72116C8.8594 11.4375 8.98992 11.498 9.07915 11.6036L10.8945 13.7512C11.1566 14.0612 11.5394 14.243 11.9449 14.2498C11.9528 14.2499 11.9606 14.25 11.9685 14.25C12.7512 14.25 13.375 13.5971 13.375 12.826V4.42393C13.375 3.6478 12.7415 2.987 11.9449 3.00019ZM12.4375 12.8261C12.4375 13.0842 12.2274 13.3166 11.9606 13.3124C11.8256 13.3102 11.6979 13.2495 11.6105 13.146L9.79512 10.9984C9.52737 10.6817 9.13591 10.5 8.72116 10.5H5.875C5.35806 10.5 4.9375 10.0794 4.9375 9.56249V7.68749C4.9375 7.17055 5.35806 6.74999 5.875 6.74999H8.72116C9.13591 6.74999 9.52737 6.56832 9.79514 6.25154L11.6105 4.10396C11.6979 4.00046 11.8256 3.93983 11.9606 3.93756C12.2235 3.93313 12.4375 4.16223 12.4375 4.42393V12.8261Z" fill="white"/>
<path d="M7.28125 12.375C7.02236 12.375 6.8125 12.5849 6.8125 12.8438V13.5938C6.8125 13.8522 6.60222 14.0625 6.34375 14.0625C6.08528 14.0625 5.875 13.8522 5.875 13.5938V12.8438C5.875 12.5849 5.66514 12.375 5.40625 12.375C5.14736 12.375 4.9375 12.5849 4.9375 12.8438V13.5938C4.9375 14.3692 5.56834 15 6.34375 15C7.11916 15 7.75 14.3692 7.75 13.5938V12.8438C7.75 12.5849 7.54014 12.375 7.28125 12.375Z" fill="white"/>
<path d="M8.21875 7.68738C7.95986 7.68738 7.75 7.89724 7.75 8.15613V9.09363C7.75 9.35252 7.95986 9.56238 8.21875 9.56238C8.47764 9.56238 8.6875 9.35252 8.6875 9.09363V8.15613C8.6875 7.89724 8.47764 7.68738 8.21875 7.68738Z" fill="white"/>
</svg>
