<svg width="51" height="48" viewBox="0 0 51 48" fill="none" xmlns="http://www.w3.org/2000/svg">
<path d="M38.5 40.0778H11.7837C5.28619 40.0778 0 34.748 0 28.1967V11.9544C0 5.40206 5.28707 0.0712891 11.7857 0.0712891H31.2321C32.317 0.0712891 33.1964 0.957968 33.1964 2.05181C33.1964 3.14565 32.317 4.03233 31.2321 4.03233H11.7857C7.45329 4.03233 3.92857 7.58617 3.92857 11.9544V28.1967C3.92857 32.5638 7.4524 36.1167 11.7837 36.1167H38.5C42.8324 36.1167 46.3571 32.5629 46.3571 28.1947V19.2823C46.3571 18.1885 47.2366 17.3018 48.3214 17.3018C49.4063 17.3018 50.2857 18.1885 50.2857 19.2823V28.1947C50.2857 34.747 44.9986 40.0778 38.5 40.0778ZM36.5357 46.0193C36.5357 44.9255 35.6563 44.0388 34.5714 44.0388H15.7143C14.6294 44.0388 13.75 44.9255 13.75 46.0193C13.75 47.1132 14.6294 47.9999 15.7143 47.9999H34.5714C35.6563 47.9999 36.5357 47.1132 36.5357 46.0193ZM50.2857 11.3602V6.1294C50.2857 2.78886 47.5904 0.0712891 44.2774 0.0712891H39.0893C38.0044 0.0712891 37.125 0.957968 37.125 2.05181C37.125 3.14565 38.0044 4.03233 39.0893 4.03233H44.2774C45.4241 4.03233 46.3571 4.97307 46.3571 6.1294V11.3602C46.3571 12.4541 47.2366 13.3408 48.3214 13.3408C49.4063 13.3408 50.2857 12.4541 50.2857 11.3602ZM43.4554 10.1524C44.2046 9.36141 44.1759 8.10774 43.3914 7.35237C42.6068 6.597 41.3634 6.62582 40.6142 7.41684C35.8469 12.4502 29.5154 15.2223 22.7857 15.2223H21.6247C20.5398 15.2223 19.6604 16.1089 19.6604 17.2028C19.6604 18.2966 20.5398 19.1833 21.6247 19.1833H22.7857C30.5991 19.1833 37.9397 15.976 43.4554 10.1524Z" fill="#0050CA"/>
</svg>
