<svg width="12" height="22" viewBox="0 0 12 22" fill="none" xmlns="http://www.w3.org/2000/svg">
<path d="M10.44 0H1.13184C0.506878 0 0 0.506628 0 1.13207V10.4162C0 11.0417 0.506878 11.5476 1.13184 11.5476H5.42377C5.39403 12.6517 4.93447 13.8534 4.27051 14.92C3.52319 16.1197 1.93053 17.4491 1.91591 17.4603C1.79063 17.5812 1.69887 17.7211 1.69692 17.9156C1.69497 18.0633 1.77109 18.177 1.8564 18.2979L4.84964 21.6727C4.84964 21.6727 4.99488 21.8258 5.1148 21.8555C5.25033 21.8877 5.4039 21.8917 5.51017 21.8098C10.6926 17.8012 11.4412 12.776 11.5709 10.0554C11.5719 10.0398 11.5719 1.13207 11.5719 1.13207C11.5724 0.506628 11.066 0 10.44 0Z" fill="black"/>
</svg>
