<svg width="245" height="40" viewBox="0 0 245 40" fill="none" xmlns="http://www.w3.org/2000/svg">
<mask id="mask0_485_17369" style="mask-type:luminance" maskUnits="userSpaceOnUse" x="20" y="16" width="17" height="24">
<path d="M23.0286 16.2056C21.7093 16.2056 20.6606 17.359 20.6606 18.6804V39.2538H36.5883V35.0165H25.3609V16.2056H23.0286Z" fill="white"/>
</mask>
<g mask="url(#mask0_485_17369)">
<path d="M23.0286 16.2056C21.7093 16.2056 20.6606 17.359 20.6606 18.6804V39.2538H36.5883V35.0165H25.3609V16.2056H23.0286Z" fill="#323841"/>
</g>
<mask id="mask1_485_17369" style="mask-type:luminance" maskUnits="userSpaceOnUse" x="37" y="16" width="19" height="24">
<path d="M40.2118 16.2056C38.8935 16.2056 37.8448 17.359 37.8448 18.6804V39.2538H42.5451V31.0514H48.3615C52.9607 31.0514 55.4288 28.1712 55.4288 23.629C55.4288 18.8155 52.8933 16.2056 48.0235 16.2056H40.2118ZM42.6135 20.2054H47.4149C49.6134 20.2054 50.7295 21.3241 50.7295 23.5624C50.7295 25.7988 49.546 26.9155 47.178 26.8827H42.6135V20.2054Z" fill="white"/>
</mask>
<g mask="url(#mask1_485_17369)">
<path d="M40.2118 16.2056C38.8935 16.2056 37.8448 17.359 37.8448 18.6804V39.2538H42.5451V31.0514H48.3615C52.9607 31.0514 55.4288 28.1712 55.4288 23.629C55.4288 18.8155 52.8933 16.2056 48.0235 16.2056H40.2118ZM42.6135 20.2054H47.4149C49.6134 20.2054 50.7295 21.3241 50.7295 23.5624C50.7295 25.7988 49.546 26.9155 47.178 26.8827H42.6135V20.2054Z" fill="#323841"/>
</g>
<mask id="mask2_485_17369" style="mask-type:luminance" maskUnits="userSpaceOnUse" x="56" y="16" width="20" height="24">
<path d="M70.8077 16.2056V32.034L61.4399 16.2056H58.9044C57.586 16.2056 56.5374 17.359 56.5374 18.6804V39.2538H61.1702V23.4253L70.5371 39.2538H75.4406V16.2056H70.8077Z" fill="white"/>
</mask>
<g mask="url(#mask2_485_17369)">
<path d="M70.8077 16.2056V32.034L61.4399 16.2056H58.9044C57.586 16.2056 56.5374 17.359 56.5374 18.6804V39.2538H61.1702V23.4253L70.5371 39.2538H75.4406V16.2056H70.8077Z" fill="#323841"/>
</g>
<path d="M84.2457 30.6442H90.5695L87.3907 20.8493L84.2457 30.6442ZM90.1304 16.2057L98.3812 39.2529H93.4103L91.8888 34.5417H82.9947L81.4732 39.2529H76.4349L84.1108 17.7307C84.4488 16.7143 85.1932 16.2057 86.3421 16.2057H90.1304Z" fill="#323841"/>
<path d="M2.367 16.2056H4.70029V25.6955L13.6608 16.2056H19.613L10.4483 25.5613L20.4247 39.2538H14.6758L8.8594 31.1199C7.84537 29.7629 6.89782 29.2214 6.01956 29.5255C5.13942 29.8314 4.70029 30.4076 4.70029 31.1866V39.2538H0V18.6804C0 17.359 1.04867 16.2056 2.367 16.2056Z" fill="#323841"/>
<mask id="mask3_485_17369" style="mask-type:luminance" maskUnits="userSpaceOnUse" x="73" y="9" width="17" height="6">
<path d="M73.2635 9.94037C73.2637 10.5412 73.3819 11.1361 73.6114 11.6911C73.8409 12.2461 74.1772 12.7504 74.6011 13.1752C75.0251 13.5999 75.5283 13.9368 76.0822 14.1666C76.636 14.3964 77.2296 14.5146 77.829 14.5145H89.9917C89.9918 13.9137 89.8739 13.3188 89.6445 12.7637C89.4151 12.2086 89.0789 11.7043 88.655 11.2795C88.2311 10.8547 87.7279 10.5178 87.174 10.288C86.6202 10.0582 86.0266 9.94013 85.4272 9.94037H73.2635Z" fill="white"/>
</mask>
<g mask="url(#mask3_485_17369)">
<path d="M73.2635 9.94037C73.2637 10.5412 73.3819 11.1361 73.6114 11.6911C73.8409 12.2461 74.1772 12.7504 74.6011 13.1752C75.0251 13.5999 75.5283 13.9368 76.0822 14.1666C76.636 14.3964 77.2296 14.5146 77.829 14.5145H89.9917C89.9918 13.9137 89.8739 13.3188 89.6445 12.7637C89.4151 12.2086 89.0789 11.7043 88.655 11.2795C88.2311 10.8547 87.7279 10.5178 87.174 10.288C86.6202 10.0582 86.0266 9.94013 85.4272 9.94037H73.2635Z" fill="#323841"/>
</g>
<path d="M79.2812 9.39511H81.0855C81.6848 9.39523 82.2783 9.27704 82.832 9.04728C83.3857 8.81752 83.8889 8.4807 84.3127 8.05603C84.7366 7.63137 85.0728 7.12719 85.3023 6.57227C85.5318 6.01736 85.6499 5.42258 85.65 4.82189H77.829C76.6186 4.82164 75.4576 5.30329 74.6015 6.16091C73.7453 7.01853 73.264 8.18188 73.2635 9.39511H79.2812Z" fill="#323841"/>
<mask id="mask4_485_17369" style="mask-type:luminance" maskUnits="userSpaceOnUse" x="63" y="9" width="10" height="6">
<path d="M68.0708 9.94037H67.8779C66.6674 9.94062 65.5065 10.4225 64.6503 11.2802C63.794 12.1379 63.3125 13.3012 63.3115 14.5145H68.1232C69.3337 14.5145 70.4945 14.0326 71.3505 13.1748C72.2065 12.317 72.6875 11.1536 72.6878 9.94037H68.0708Z" fill="white"/>
</mask>
<g mask="url(#mask4_485_17369)">
<path d="M68.0708 9.94037H67.8779C66.6674 9.94062 65.5065 10.4225 64.6503 11.2802C63.794 12.1379 63.3125 13.3012 63.3115 14.5145H68.1232C69.3337 14.5145 70.4945 14.0326 71.3505 13.1748C72.2065 12.317 72.6875 11.1536 72.6878 9.94037H68.0708Z" fill="#323841"/>
</g>
<path d="M68.1227 4.62763V4.82189C68.1232 6.03496 68.6043 7.19817 69.4603 8.05576C70.3162 8.91335 71.4769 9.39511 72.6872 9.39511V4.57413C72.6872 3.97337 72.5691 3.37848 72.3397 2.82346C72.1103 2.26844 71.7741 1.76414 71.3502 1.33938C70.9264 0.91462 70.4232 0.577709 69.8694 0.347892C69.3156 0.118073 68.7221 -0.000149727 68.1227 -2.67029e-05V4.62763Z" fill="#323841"/>
<mask id="mask5_485_17369" style="mask-type:luminance" maskUnits="userSpaceOnUse" x="63" y="12" width="9" height="3">
<path d="M63.6045 12.3598H71.9948V14.5145H63.6045V12.3598Z" fill="white"/>
</mask>
<g mask="url(#mask5_485_17369)">
<g opacity="0.199997">
<path d="M71.9948 12.3597C68.7711 12.6544 65.8751 13.4221 63.6045 14.5145H68.1231C69.757 14.5145 71.1886 13.6539 71.9948 12.3597Z" fill="#323841"/>
</g>
</g>
<mask id="mask6_485_17369" style="mask-type:luminance" maskUnits="userSpaceOnUse" x="73" y="12" width="14" height="3">
<path d="M73.8871 12.2265H86.2951V14.5145H73.8871V12.2265Z" fill="white"/>
</mask>
<g mask="url(#mask6_485_17369)">
<g opacity="0.199997">
<path d="M86.2962 14.5145C83.3506 13.0984 79.3544 12.2265 74.9518 12.2265C74.5932 12.2265 74.2393 12.235 73.8882 12.2453C74.2898 12.9361 74.8652 13.5092 75.5569 13.9074C76.2486 14.3055 77.0324 14.5149 77.8301 14.5145H86.2962Z" fill="#323841"/>
</g>
</g>
<path d="M104.102 33.857H104.786V36.4169H104.81C104.95 36.2132 105.093 36.0229 105.225 35.8512L106.844 33.857H107.694L105.775 36.1107L107.843 39.1671H107.034L105.289 36.5593L104.786 37.1424V39.1671H104.102V33.857Z" fill="#323841"/>
<path d="M108.657 37.2689C108.657 38.1035 109.135 38.7345 109.813 38.7345C110.473 38.7345 110.967 38.1128 110.967 37.2529C110.967 36.6073 110.645 35.7886 109.829 35.7886C109.01 35.7886 108.657 36.5447 108.657 37.2689ZM111.675 37.2303C111.675 38.64 110.7 39.2537 109.781 39.2537C108.751 39.2537 107.957 38.4975 107.957 37.2942C107.957 36.0175 108.791 35.2681 109.843 35.2681C110.935 35.2681 111.675 36.0641 111.675 37.2303Z" fill="#323841"/>
<path d="M112.437 36.5462C112.437 36.0976 112.429 35.7115 112.406 35.3561H113.012L113.035 36.1042H113.066C113.239 35.593 113.656 35.2696 114.12 35.2696C114.186 35.2687 114.252 35.2768 114.316 35.2935V35.9471C114.238 35.9308 114.159 35.9227 114.08 35.9232C113.592 35.9232 113.247 36.2932 113.153 36.8137C113.133 36.92 113.122 37.0278 113.121 37.1359V39.1686H112.437V36.5462Z" fill="#323841"/>
<path d="M117.311 36.8923C117.319 36.4503 117.132 35.7661 116.354 35.7661C115.654 35.7661 115.347 36.4117 115.292 36.8923H117.311ZM115.284 37.3888C115.299 38.326 115.897 38.712 116.589 38.712C117.084 38.712 117.383 38.6255 117.642 38.515L117.76 39.0116C117.516 39.122 117.1 39.2485 116.494 39.2485C115.324 39.2485 114.624 38.4751 114.624 37.3263C114.624 36.1748 115.299 35.2696 116.408 35.2696C117.65 35.2696 117.979 36.3651 117.979 37.0654C117.979 37.2078 117.965 37.3183 117.957 37.3888H115.284Z" fill="#323841"/>
<path d="M120.732 37.2223C119.978 37.2076 119.121 37.3408 119.121 38.0809C119.121 38.5308 119.42 38.7438 119.773 38.7438C120.269 38.7438 120.584 38.4283 120.693 38.1049C120.716 38.0343 120.732 37.9544 120.732 37.8852V37.2223ZM120.835 39.1685L120.779 38.6879H120.756C120.621 38.8681 120.445 39.0135 120.243 39.1121C120.041 39.2107 119.818 39.2597 119.593 39.255C118.823 39.255 118.429 38.7119 118.429 38.1608C118.429 37.2382 119.246 36.7337 120.716 36.743V36.6645C120.716 36.349 120.63 35.7819 119.852 35.7819C119.499 35.7819 119.129 35.8911 118.862 36.0641L118.704 35.6075C119.019 35.4025 119.475 35.2694 119.954 35.2694C121.118 35.2694 121.4 36.0641 121.4 36.8296V38.2553C121.4 38.5854 121.416 38.9089 121.463 39.1685H120.835Z" fill="#323841"/>
<path d="M122.408 36.3863C122.408 35.9923 122.401 35.6688 122.378 35.3546H122.99L123.03 35.9856H123.046C123.235 35.6222 123.674 35.2681 124.302 35.2681C124.83 35.2681 125.646 35.5823 125.646 36.8908V39.1671H124.954V36.9694C124.954 36.3543 124.727 35.8432 124.075 35.8432C123.865 35.8463 123.662 35.9169 123.495 36.0447C123.328 36.1724 123.207 36.3505 123.148 36.5527C123.114 36.6566 123.098 36.7655 123.1 36.8748V39.1671H122.408V36.3863Z" fill="#323841"/>
<path d="M128.243 33.857H128.927V38.5921H131.19V39.1671H128.243V33.857Z" fill="#323841"/>
<path d="M131.821 35.3561H132.513V39.1686H131.821V35.3561ZM132.591 34.2845C132.6 34.5201 132.426 34.7091 132.151 34.7091C132.096 34.7098 132.041 34.6993 131.989 34.6781C131.938 34.657 131.891 34.6257 131.852 34.586C131.814 34.5463 131.783 34.4991 131.763 34.4473C131.742 34.3955 131.733 34.3401 131.734 34.2845C131.734 34.0409 131.916 33.8505 132.167 33.8505C132.426 33.8505 132.591 34.0409 132.591 34.2845Z" fill="#323841"/>
<path d="M136.263 39.026C136.083 39.1205 135.682 39.247 135.172 39.247C134.023 39.247 133.276 38.4669 133.276 37.3008C133.276 36.1267 134.078 35.2774 135.32 35.2774C135.728 35.2774 136.091 35.3786 136.278 35.4731L136.122 36.0096C135.956 35.915 135.697 35.8285 135.32 35.8285C134.448 35.8285 133.976 36.4741 133.976 37.2689C133.976 38.1528 134.542 38.6946 135.296 38.6946C135.688 38.6946 135.948 38.5934 136.145 38.5069L136.263 39.026Z" fill="#323841"/>
<path d="M139.376 36.8923C139.383 36.4503 139.196 35.7661 138.417 35.7661C137.718 35.7661 137.411 36.4117 137.356 36.8923H139.376ZM137.348 37.3888C137.364 38.326 137.961 38.712 138.653 38.712C139.148 38.712 139.447 38.6255 139.706 38.515L139.823 39.0116C139.58 39.122 139.164 39.2485 138.558 39.2485C137.387 39.2485 136.688 38.4751 136.688 37.3263C136.688 36.1748 137.364 35.2696 138.472 35.2696C139.714 35.2696 140.043 36.3651 140.043 37.0654C140.043 37.2078 140.028 37.3183 140.021 37.3888H137.348Z" fill="#323841"/>
<path d="M140.794 36.3863C140.794 35.9923 140.786 35.6688 140.763 35.3546H141.374L141.414 35.9856H141.43C141.62 35.6222 142.059 35.2681 142.687 35.2681C143.213 35.2681 144.032 35.5823 144.032 36.8908V39.1671H143.34V36.9694C143.34 36.3543 143.111 35.8432 142.459 35.8432C142.249 35.8467 142.046 35.9175 141.879 36.0452C141.712 36.1729 141.591 36.3507 141.532 36.5527C141.498 36.6566 141.482 36.7655 141.484 36.8748V39.1671H140.794V36.3863Z" fill="#323841"/>
<path d="M144.955 38.4589C145.228 38.6308 145.543 38.7259 145.866 38.7345C146.368 38.7345 146.605 38.4829 146.605 38.1674C146.605 37.8373 146.407 37.6549 145.897 37.4672C145.213 37.2223 144.892 36.8442 144.892 36.3876C144.892 35.7726 145.386 35.2694 146.203 35.2694C146.589 35.2694 146.927 35.3799 147.139 35.505L146.967 36.0096C146.817 35.915 146.542 35.7886 146.188 35.7886C145.779 35.7886 145.551 36.0242 145.551 36.3091C145.551 36.6246 145.779 36.7657 146.275 36.9547C146.935 37.2076 147.273 37.5378 147.273 38.1035C147.273 38.7744 146.754 39.247 145.851 39.247C145.434 39.247 145.049 39.1445 144.782 38.9874L144.955 38.4589Z" fill="#323841"/>
<path d="M150.463 36.8923C150.471 36.4503 150.283 35.7661 149.505 35.7661C148.805 35.7661 148.499 36.4117 148.443 36.8923H150.463ZM148.435 37.3888C148.451 38.326 149.049 38.712 149.74 38.712C150.235 38.712 150.534 38.6255 150.794 38.515L150.911 39.0116C150.667 39.122 150.251 39.2485 149.645 39.2485C148.475 39.2485 147.775 38.4751 147.775 37.3263C147.775 36.1748 148.451 35.2696 149.559 35.2696C150.801 35.2696 151.13 36.3651 151.13 37.0654C151.13 37.2078 151.116 37.3183 151.108 37.3888H148.435Z" fill="#323841"/>
<path d="M154.473 36.9068C154.474 36.8087 154.464 36.7109 154.443 36.6152C154.393 36.3869 154.267 36.1825 154.085 36.0364C153.903 35.8902 153.677 35.8112 153.444 35.8125C152.729 35.8125 152.306 36.4409 152.306 37.2848C152.306 38.0569 152.682 38.6946 153.428 38.6946C153.891 38.6946 154.316 38.3884 154.443 37.8679C154.465 37.7696 154.475 37.6691 154.473 37.5684V36.9068ZM155.165 33.5748V38.1834C155.165 38.5215 155.173 38.9076 155.197 39.1671H154.575L154.545 38.5069H154.529C154.316 38.9315 153.852 39.2537 153.231 39.2537C152.312 39.2537 151.604 38.4749 151.604 37.3168C151.596 36.0482 152.383 35.2681 153.311 35.2681C153.891 35.2681 154.285 35.5436 154.457 35.8511H154.473V33.5748H155.165Z" fill="#323841"/>
<path d="M158.469 36.4823C158.618 36.5222 158.807 36.5382 159.035 36.5382C159.86 36.5382 160.363 36.1362 160.363 35.4027C160.363 34.7011 159.869 34.363 159.113 34.363C158.897 34.3569 158.681 34.3757 158.469 34.4189V36.4823ZM157.785 33.9211C158.116 33.8665 158.548 33.8199 159.099 33.8199C159.774 33.8199 160.269 33.977 160.584 34.2605C160.875 34.5121 161.047 34.8995 161.047 35.3707C161.047 35.8513 160.905 36.2293 160.639 36.5062C160.277 36.8923 159.687 37.0893 159.02 37.0893C158.815 37.0893 158.627 37.0813 158.469 37.0414V39.1686H157.785V33.9211Z" fill="#323841"/>
<path d="M161.835 36.5462C161.835 36.0976 161.828 35.7115 161.804 35.3561H162.41L162.433 36.1042H162.464C162.637 35.593 163.053 35.2696 163.518 35.2696C163.584 35.2687 163.65 35.2768 163.714 35.2935V35.9471C163.636 35.9308 163.557 35.9227 163.478 35.9232C162.99 35.9232 162.645 36.2932 162.551 36.8137C162.531 36.92 162.52 37.0278 162.519 37.1359V39.1686H161.835V36.5462Z" fill="#323841"/>
<path d="M166.3 37.2223C165.547 37.2076 164.69 37.3408 164.69 38.0809C164.69 38.5308 164.988 38.7438 165.341 38.7438C165.836 38.7438 166.151 38.4283 166.261 38.1049C166.285 38.034 166.298 37.9599 166.3 37.8852V37.2223ZM166.404 39.1685L166.348 38.6879H166.325C166.19 38.8681 166.014 39.0134 165.812 39.112C165.609 39.2106 165.387 39.2596 165.162 39.255C164.391 39.255 163.998 38.7119 163.998 38.1608C163.998 37.2383 164.815 36.7337 166.284 36.7431V36.6645C166.284 36.349 166.198 35.7819 165.419 35.7819C165.066 35.7819 164.697 35.8911 164.43 36.0642L164.273 35.6076C164.587 35.4026 165.044 35.2694 165.523 35.2694C166.685 35.2694 166.968 36.0642 166.968 36.8296V38.2553C166.968 38.5854 166.984 38.9089 167.032 39.1685H166.404Z" fill="#323841"/>
<path d="M170.688 39.026C170.507 39.1205 170.106 39.247 169.595 39.247C168.447 39.247 167.701 38.4669 167.701 37.3008C167.701 36.1267 168.503 35.2774 169.745 35.2774C170.153 35.2774 170.515 35.3786 170.704 35.4731L170.547 36.0096C170.381 35.915 170.122 35.8285 169.745 35.8285C168.872 35.8285 168.401 36.4741 168.401 37.2689C168.401 38.1528 168.967 38.6946 169.721 38.6946C170.114 38.6946 170.373 38.5934 170.57 38.5069L170.688 39.026Z" fill="#323841"/>
<path d="M172.223 34.2604V35.3559H173.214V35.8831H172.223V37.9385C172.223 38.4124 172.357 38.6799 172.743 38.6799C172.923 38.6799 173.056 38.656 173.142 38.632L173.174 39.1525C173.041 39.2071 172.829 39.247 172.561 39.247C172.239 39.247 171.979 39.1445 171.814 38.9555C171.618 38.7505 171.547 38.4124 171.547 37.9624V35.8831H170.958V35.3559H171.547V34.4414L172.223 34.2604Z" fill="#323841"/>
<path d="M173.882 35.3561H174.574V39.1686H173.882V35.3561ZM174.653 34.2845C174.66 34.5201 174.488 34.7091 174.213 34.7091C174.157 34.7098 174.102 34.6993 174.051 34.6781C174 34.657 173.953 34.6257 173.914 34.586C173.875 34.5463 173.845 34.4991 173.824 34.4473C173.804 34.3955 173.794 34.3401 173.796 34.2845C173.796 34.0409 173.977 33.8505 174.228 33.8505C174.488 33.8505 174.653 34.0409 174.653 34.2845Z" fill="#323841"/>
<path d="M178.323 39.026C178.143 39.1205 177.742 39.247 177.232 39.247C176.083 39.247 175.336 38.4669 175.336 37.3008C175.336 36.1267 176.137 35.2774 177.38 35.2774C177.788 35.2774 178.151 35.3786 178.339 35.4731L178.183 36.0096C178.016 35.915 177.758 35.8285 177.38 35.8285C176.508 35.8285 176.036 36.4741 176.036 37.2689C176.036 38.1528 176.602 38.6946 177.356 38.6946C177.748 38.6946 178.01 38.5934 178.205 38.5069L178.323 39.026Z" fill="#323841"/>
<path d="M181.029 37.2223C180.274 37.2076 179.418 37.3408 179.418 38.0809C179.418 38.5308 179.716 38.7438 180.07 38.7438C180.565 38.7438 180.88 38.4283 180.989 38.1049C181.013 38.0343 181.029 37.9544 181.029 37.8852V37.2223ZM181.131 39.1685L181.075 38.6879H181.053C180.917 38.8681 180.741 39.0135 180.539 39.1121C180.337 39.2107 180.114 39.2597 179.889 39.255C179.119 39.255 178.726 38.7119 178.726 38.1608C178.726 37.2382 179.544 36.7337 181.013 36.743V36.6645C181.013 36.349 180.926 35.7819 180.148 35.7819C179.795 35.7819 179.424 35.8911 179.159 36.0641L179.001 35.6075C179.314 35.4025 179.771 35.2694 180.25 35.2694C181.414 35.2694 181.697 36.0641 181.697 36.8296V38.2553C181.697 38.5854 181.713 38.9089 181.759 39.1685H181.131Z" fill="#323841"/>
<path d="M182.705 33.5748H183.397V39.1671H182.705V33.5748Z" fill="#323841"/>
<path d="M186.032 39.1686V33.8585H186.778L188.475 36.5462C188.87 37.1678 189.175 37.7269 189.428 38.2714L189.442 38.2634C189.383 37.5377 189.357 36.8097 189.364 36.0816V33.8585H190.008V39.1686H189.316L187.635 36.4756C187.266 35.8846 186.912 35.2775 186.645 34.7025L186.621 34.7105C186.661 35.38 186.676 36.0177 186.676 36.9003V39.1686H186.032Z" fill="#323841"/>
<path d="M194.254 38.1289C194.254 38.5216 194.262 38.8691 194.286 39.1686H193.674L193.634 38.5456H193.618C193.49 38.7649 193.306 38.9462 193.085 39.0708C192.864 39.1955 192.614 39.2591 192.36 39.2551C191.764 39.2551 191.048 38.9237 191.048 37.5858V35.3561H191.739V37.4673C191.739 38.1915 191.96 38.6801 192.589 38.6801C193.052 38.6801 193.374 38.3566 193.5 38.0491C193.54 37.9479 193.563 37.8214 193.563 37.695V35.3561H194.254V38.1289Z" fill="#323841"/>
<path d="M195.294 36.5462C195.294 36.0976 195.287 35.7115 195.263 35.3561H195.868L195.892 36.1042H195.922C196.096 35.593 196.512 35.2696 196.977 35.2696C197.043 35.2687 197.109 35.2768 197.173 35.2935V35.9471C197.095 35.9308 197.016 35.9227 196.937 35.9232C196.449 35.9232 196.104 36.2932 196.01 36.8137C195.99 36.92 195.979 37.0278 195.978 37.1359V39.1686H195.294V36.5462Z" fill="#323841"/>
<path d="M197.662 38.4589C197.936 38.6308 198.25 38.7259 198.573 38.7345C199.075 38.7345 199.313 38.4829 199.313 38.1674C199.313 37.8373 199.115 37.6549 198.605 37.4672C197.921 37.2223 197.598 36.8442 197.598 36.3876C197.598 35.7726 198.094 35.2694 198.912 35.2694C199.297 35.2694 199.634 35.3799 199.847 35.505L199.674 36.0096C199.524 35.915 199.249 35.7886 198.896 35.7886C198.487 35.7886 198.258 36.0242 198.258 36.3091C198.258 36.6246 198.487 36.7657 198.982 36.9547C199.642 37.2076 199.979 37.5378 199.979 38.1035C199.979 38.7744 199.462 39.247 198.558 39.247C198.141 39.247 197.756 39.1445 197.489 38.9874L197.662 38.4589Z" fill="#323841"/>
<path d="M204.49 38.4589C204.694 38.5934 205.056 38.7345 205.402 38.7345C205.904 38.7345 206.141 38.4829 206.141 38.1674C206.141 37.8373 205.944 37.6549 205.433 37.4672C204.749 37.2223 204.427 36.8442 204.427 36.3876C204.427 35.7726 204.922 35.2694 205.74 35.2694C206.125 35.2694 206.462 35.3799 206.675 35.505L206.502 36.0096C206.268 35.8647 205.999 35.7882 205.724 35.7886C205.316 35.7886 205.088 36.0242 205.088 36.3091C205.088 36.6246 205.316 36.7657 205.81 36.9547C206.47 37.2076 206.809 37.5378 206.809 38.1035C206.809 38.7744 206.29 39.247 205.386 39.247C204.969 39.247 204.584 39.1445 204.317 38.9874L204.49 38.4589Z" fill="#323841"/>
<path d="M203.172 36.8923C203.18 36.4503 202.992 35.7661 202.213 35.7661C201.513 35.7661 201.208 36.4117 201.152 36.8923H203.172ZM201.146 37.3888C201.16 38.326 201.758 38.712 202.448 38.712C202.945 38.712 203.243 38.6255 203.503 38.515L203.62 39.0116C203.375 39.122 202.96 39.2485 202.354 39.2485C201.184 39.2485 200.484 38.4751 200.484 37.3263C200.484 36.1748 201.16 35.2696 202.268 35.2696C203.511 35.2696 203.839 36.3651 203.839 37.0654C203.839 37.2078 203.824 37.3183 203.816 37.3888H201.146Z" fill="#323841"/>
<path d="M212.21 36.9628L211.692 35.4346C211.574 35.0885 211.496 34.773 211.416 34.4655H211.401C211.323 34.7797 211.237 35.1045 211.134 35.4266L210.615 36.9628H212.21ZM210.473 37.4993L209.923 39.1686H209.217L211.016 33.8585H211.842L213.648 39.1686H212.918L212.352 37.4993H210.473Z" fill="#323841"/>
<path d="M214.202 38.4589C214.476 38.6308 214.791 38.7259 215.113 38.7345C215.615 38.7345 215.853 38.4829 215.853 38.1674C215.853 37.8373 215.655 37.6549 215.145 37.4672C214.461 37.2223 214.14 36.8442 214.14 36.3876C214.14 35.7726 214.634 35.2694 215.452 35.2694C215.837 35.2694 216.175 35.3799 216.387 35.505L216.214 36.0096C216.064 35.915 215.789 35.7886 215.436 35.7886C215.027 35.7886 214.799 36.0242 214.799 36.3091C214.799 36.6246 215.027 36.7657 215.522 36.9547C216.183 37.2076 216.52 37.5378 216.52 38.1035C216.52 38.7744 216.002 39.247 215.099 39.247C214.682 39.247 214.297 39.1445 214.03 38.9874L214.202 38.4589Z" fill="#323841"/>
<path d="M217.206 38.4589C217.48 38.6308 217.795 38.7259 218.118 38.7345C218.621 38.7345 218.857 38.4829 218.857 38.1674C218.857 37.8373 218.659 37.6549 218.149 37.4672C217.465 37.2223 217.144 36.8442 217.144 36.3876C217.144 35.7726 217.638 35.2694 218.456 35.2694C218.84 35.2694 219.179 35.3799 219.391 35.505L219.219 36.0096C219.07 35.915 218.794 35.7886 218.44 35.7886C218.031 35.7886 217.803 36.0242 217.803 36.3091C217.803 36.6246 218.031 36.7657 218.527 36.9547C219.187 37.2076 219.524 37.5378 219.524 38.1035C219.524 38.7744 219.006 39.247 218.102 39.247C217.686 39.247 217.299 39.1445 217.034 38.9874L217.206 38.4589Z" fill="#323841"/>
<path d="M220.73 37.2689C220.73 38.1035 221.208 38.7345 221.884 38.7345C222.544 38.7345 223.04 38.1128 223.04 37.2529C223.04 36.6073 222.718 35.7886 221.9 35.7886C221.083 35.7886 220.73 36.5447 220.73 37.2689ZM223.746 37.2303C223.746 38.64 222.773 39.2537 221.854 39.2537C220.823 39.2537 220.03 38.4975 220.03 37.2942C220.03 36.0175 220.863 35.2681 221.916 35.2681C223.008 35.2681 223.746 36.0641 223.746 37.2303Z" fill="#323841"/>
<path d="M227.222 39.026C227.041 39.1205 226.641 39.247 226.13 39.247C224.983 39.247 224.235 38.4669 224.235 37.3008C224.235 36.1267 225.037 35.2774 226.279 35.2774C226.688 35.2774 227.049 35.3786 227.236 35.4731L227.081 36.0096C226.915 35.915 226.656 35.8285 226.279 35.8285C225.406 35.8285 224.935 36.4741 224.935 37.2689C224.935 38.1528 225.501 38.6946 226.255 38.6946C226.648 38.6946 226.908 38.5934 227.104 38.5069L227.222 39.026Z" fill="#323841"/>
<path d="M227.923 35.3561H228.615V39.1686H227.923V35.3561ZM228.693 34.2845C228.703 34.5201 228.529 34.7091 228.254 34.7091C228.198 34.7098 228.143 34.6993 228.092 34.6781C228.04 34.657 227.994 34.6257 227.955 34.586C227.916 34.5463 227.885 34.4991 227.865 34.4473C227.845 34.3955 227.835 34.3401 227.837 34.2845C227.837 34.0409 228.017 33.8505 228.27 33.8505C228.529 33.8505 228.693 34.0409 228.693 34.2845Z" fill="#323841"/>
<path d="M231.658 37.2223C230.903 37.2076 230.047 37.3408 230.047 38.0809C230.047 38.5308 230.344 38.7438 230.699 38.7438C231.194 38.7438 231.509 38.4283 231.618 38.1049C231.642 38.0343 231.658 37.9544 231.658 37.8852V37.2223ZM231.76 39.1685L231.704 38.6879H231.682C231.546 38.8681 231.37 39.0135 231.168 39.1121C230.966 39.2107 230.743 39.2597 230.518 39.255C229.748 39.255 229.355 38.7119 229.355 38.1608C229.355 37.2382 230.171 36.7337 231.642 36.743V36.6645C231.642 36.349 231.555 35.7819 230.777 35.7819C230.424 35.7819 230.055 35.8911 229.788 36.0641L229.63 35.6075C229.944 35.4025 230.4 35.2694 230.879 35.2694C232.043 35.2694 232.326 36.0641 232.326 36.8296V38.2553C232.326 38.5854 232.342 38.9089 232.388 39.1685H231.76Z" fill="#323841"/>
<path d="M234.167 34.2604V35.3559H235.157V35.8831H234.167V37.9385C234.167 38.4124 234.301 38.6799 234.686 38.6799C234.866 38.6799 234.999 38.656 235.086 38.632L235.118 39.1525C234.985 39.2071 234.772 39.247 234.504 39.247C234.183 39.247 233.924 39.1445 233.758 38.9555C233.561 38.7505 233.491 38.4124 233.491 37.9624V35.8831H232.901V35.3559H233.491V34.4414L234.167 34.2604Z" fill="#323841"/>
<path d="M235.827 35.3561H236.519V39.1686H235.827V35.3561ZM236.597 34.2845C236.605 34.5201 236.432 34.7091 236.156 34.7091C236.101 34.7096 236.046 34.699 235.994 34.6778C235.943 34.6566 235.897 34.6252 235.858 34.5855C235.819 34.5458 235.789 34.4987 235.768 34.447C235.748 34.3952 235.739 34.34 235.74 34.2845C235.74 34.0409 235.921 33.8505 236.172 33.8505C236.432 33.8505 236.597 34.0409 236.597 34.2845Z" fill="#323841"/>
<path d="M237.981 37.2689C237.981 38.1035 238.46 38.7345 239.136 38.7345C239.796 38.7345 240.292 38.1128 240.292 37.2529C240.292 36.6073 239.97 35.7886 239.152 35.7886C238.335 35.7886 237.981 36.5447 237.981 37.2689ZM240.998 37.2303C240.998 38.64 240.025 39.2537 239.104 39.2537C238.075 39.2537 237.282 38.4975 237.282 37.2942C237.282 36.0175 238.115 35.2681 239.168 35.2681C240.26 35.2681 240.998 36.0641 240.998 37.2303Z" fill="#323841"/>
<path d="M241.762 36.3863C241.762 35.9923 241.755 35.6688 241.732 35.3546H242.344L242.384 35.9856H242.4C242.588 35.6222 243.029 35.2681 243.656 35.2681C244.183 35.2681 245 35.5823 245 36.8908V39.1671H244.308V36.9694C244.308 36.3543 244.081 35.8432 243.429 35.8432C243.219 35.8463 243.015 35.9169 242.849 36.0447C242.682 36.1724 242.56 36.3505 242.502 36.5527C242.468 36.6566 242.452 36.7655 242.454 36.8748V39.1671H241.762V36.3863Z" fill="#323841"/>
<path d="M117.108 29.9873C117.108 30.3946 116.687 30.4878 115.932 30.4878C115.213 30.4878 114.774 30.3946 114.774 29.9873V22.096H113.422V29.8209C113.422 30.2096 113.019 30.3014 112.281 30.3014C111.562 30.3014 111.141 30.2096 111.141 29.8209V14.8889H113.422V19.9275H114.774V14.7052H117.108V29.9873ZM105.613 18.149V23.7453C105.613 24.0222 105.754 24.17 105.998 24.17H109.878C110.281 24.17 110.352 24.56 110.352 25.2442C110.352 25.9484 110.281 26.3385 109.878 26.3385H105.419C104.964 26.3385 104.314 25.8752 103.928 25.4665C103.56 25.0592 103.191 24.4855 103.191 24.1154V15.9818H109.421C109.824 15.9818 109.895 16.3705 109.895 17.0574C109.895 17.7603 109.824 18.149 109.421 18.149H105.613Z" fill="#323841"/>
<path d="M131.89 26.1522C131.89 26.6341 131.345 26.7086 130.697 26.7086C129.941 26.7086 129.503 26.5782 129.503 26.1522V14.5189H131.89V19.3352H134.541V21.4651H131.89V26.1522ZM123.606 20.5772C122.677 20.5772 122.185 21.2614 122.185 21.947C122.185 22.6698 122.677 23.3554 123.606 23.3554C124.536 23.3554 125.027 22.6698 125.027 21.947C125.027 21.2614 124.536 20.5772 123.606 20.5772ZM131.75 29.3018C132.135 29.3018 132.206 29.7278 132.206 30.3574C132.206 31.043 132.135 31.3944 131.75 31.3944H123.835C123.378 31.3944 122.747 30.9498 122.378 30.5424C121.991 30.1537 121.641 29.58 121.641 29.2286V26.2081H124.027V28.8944C124.027 29.1727 124.168 29.3018 124.431 29.3018H131.75ZM123.606 18.5764C125.783 18.5764 127.345 20.1326 127.345 21.9656C127.345 23.8 125.783 25.3561 123.606 25.3561C121.431 25.3561 119.869 23.8 119.869 21.9656C119.869 20.1326 121.431 18.5764 123.606 18.5764ZM127.836 15.946C128.239 15.946 128.311 16.2601 128.311 16.9457C128.311 17.6499 128.239 17.9827 127.836 17.9827H119.008V15.946H122.378V14.3898H124.782V15.946H127.836Z" fill="#323841"/>
<path d="M147.445 25.7808C147.445 26.2627 146.9 26.3372 146.251 26.3372C145.496 26.3372 145.058 26.2068 145.058 25.7808V14.5176H147.445V18.5937H150.094V20.7236H147.445V25.7808ZM147.304 29.3018C147.69 29.3018 147.761 29.7264 147.761 30.3574C147.761 31.0416 147.69 31.3944 147.304 31.3944H139.39C138.933 31.3944 138.301 30.9498 137.933 30.5424C137.546 30.1524 137.196 29.5787 137.196 29.2272V25.2816H139.582V28.8931C139.582 29.1713 139.723 29.3018 139.986 29.3018H147.304ZM140.302 17.6113C140.302 17.4262 140.232 17.3331 140.074 17.3331H135.247V15.1299H140.67C141.161 15.1299 141.512 15.5546 141.969 16.1856C142.354 16.7407 142.582 17.1494 142.582 17.5008C142.582 20.464 139.687 23.0944 136.335 24.3178C135.914 24.4469 135.792 24.4283 135.423 23.5391C135.106 22.7989 134.984 22.5207 135.388 22.3543C138.828 20.9459 140.302 18.9824 140.302 17.6113Z" fill="#323841"/>
<path d="M157.943 20.5944C156.768 20.5944 155.943 21.1695 155.943 22.0214C155.943 22.8734 156.768 23.4485 157.943 23.4485C159.12 23.4485 159.945 22.8734 159.945 22.0214C159.945 21.1695 159.12 20.5944 157.943 20.5944ZM152.327 18.0385V15.9818H156.803V14.2034H159.137V15.9818H163.314C163.787 15.9818 163.859 16.3159 163.859 17.0188C163.859 17.7417 163.787 18.0385 163.314 18.0385H152.327ZM159.225 25.3561V26.8749H165.086C165.56 26.8749 165.631 27.2636 165.631 27.9678C165.631 28.6907 165.56 29.0421 165.086 29.0421H150.555V26.8749H156.803V25.3747C154.89 25.0406 153.521 23.8372 153.521 22.0214C153.521 19.8729 155.469 18.575 157.943 18.575C160.418 18.575 162.366 19.8729 162.366 22.0214C162.366 23.7813 161.05 24.9847 159.225 25.3561Z" fill="#323841"/>
<path d="M179.22 15.89C179.694 15.89 179.764 16.2787 179.764 16.9829C179.764 17.7044 179.694 18.0572 179.22 18.0572H175.342C175.411 18.2795 175.5 18.5018 175.622 18.6869C176.534 20.1325 178.483 21.095 179.974 21.9656C180.326 22.1693 180.256 22.3916 179.869 23.0958C179.431 23.9104 179.342 24.0036 178.886 23.8C177.395 23.133 175.13 21.8737 174.043 20.2617C173.077 21.8538 170.479 23.4299 169.321 23.9664C168.9 24.1514 168.742 24.0768 168.321 23.2994C167.917 22.5407 167.813 22.2438 168.199 22.0215C169.445 21.3173 171.235 20.2989 172.077 19.1315C172.323 18.78 172.533 18.4459 172.656 18.0572H168.584V15.89H179.22ZM172.883 23.0585H175.306V26.69H181.168C181.642 26.69 181.711 27.0787 181.711 27.7829C181.711 28.5057 181.642 28.8571 181.168 28.8571H166.636V26.69H172.883V23.0585Z" fill="#323841"/>
<path d="M187.228 19.8529C187.228 20.1684 187.352 20.2616 187.649 20.2616H193.108V17.3716H187.228V19.8529ZM187 22.3915C186.562 22.3915 185.912 21.891 185.543 21.4837C185.175 21.0949 184.807 20.5758 184.807 20.2417V15.2404H195.529V21.0018C195.529 21.8724 195.143 22.3915 194.3 22.3915H187ZM197.249 24.0954C197.723 24.0954 197.793 24.4842 197.793 25.1884C197.793 25.9112 197.723 26.2626 197.249 26.2626H191.388V30.4133C191.388 30.8379 190.948 30.9497 190.159 30.9497C189.422 30.9497 188.965 30.8579 188.965 30.4306V26.2626H182.718V24.0954H197.249Z" fill="#323841"/>
<path d="M209.347 14.704H211.768V19.9276H214.419V22.0947H211.768V30.0047C211.768 30.4306 211.33 30.5424 210.539 30.5424C209.802 30.5424 209.347 30.4493 209.347 30.0233V14.704ZM203.625 22.5393C202.905 24.1887 201.344 25.9485 200.185 26.9309C199.835 27.2078 199.484 27.0228 198.974 26.4477C198.536 25.9672 198.273 25.5771 198.606 25.2443C200.431 23.5031 202.239 21.1123 202.239 18.6496V15.7969H204.73V18.6123C204.73 21.0391 206.644 23.4845 208.189 25.022C208.539 25.3548 208.347 25.633 207.837 26.2081C207.381 26.7086 207.082 27.0042 206.732 26.6887C205.591 25.6144 204.292 24.0769 203.625 22.5393Z" fill="#323841"/>
<path d="M228.551 23.6336C228.551 24.0783 228.094 24.2087 227.359 24.2087C226.62 24.2087 226.165 24.0783 226.165 23.6336V22.763H224.111V20.725H226.165V19.2434H224.111V17.2053H226.165V14.519H228.551V23.6336ZM225.989 29.4869V28.4685H220.478V29.21C220.478 29.395 220.565 29.4869 220.706 29.4869H225.989ZM219.565 20.114C218.723 20.114 218.144 20.5213 218.144 21.2069C218.144 21.9297 218.723 22.3371 219.565 22.3371C220.409 22.3371 220.988 21.9297 220.988 21.2069C220.988 20.5213 220.409 20.114 219.565 20.114ZM220.251 31.5808C219.777 31.5808 219.232 31.1735 218.845 30.7475C218.46 30.3588 218.11 29.821 218.11 29.4696V25.098H220.478V26.4132H225.989V25.098H228.357V30.2284C228.357 31.0816 227.955 31.5808 227.094 31.5808H220.251ZM219.565 18.2064C221.742 18.2064 223.304 19.3911 223.304 21.2255C223.304 23.0599 221.742 24.2447 219.565 24.2447C217.39 24.2447 215.828 23.0599 215.828 21.2255C215.828 19.3911 217.39 18.2064 219.565 18.2064ZM223.268 15.6691C223.672 15.6691 223.742 15.9833 223.742 16.6689C223.742 17.3731 223.672 17.7059 223.268 17.7059H214.967V15.6691H218.338V14.0198H220.742V15.6691H223.268Z" fill="#323841"/>
<path d="M244.281 30.0046C244.281 30.4306 243.842 30.5424 243.053 30.5424C242.316 30.5424 241.859 30.4493 241.859 30.0233V14.704H244.281V30.0046ZM235.665 20.5945C234.665 20.5945 234.103 21.2055 234.103 22.0401C234.103 22.8735 234.84 23.4286 235.665 23.4286C236.489 23.4286 237.226 22.8735 237.226 22.0401C237.226 21.2055 236.665 20.5945 235.665 20.5945ZM230.926 18.0386V15.9819H234.488V14.3885H236.823V15.9819H239.946C240.421 15.9819 240.491 16.3147 240.491 17.0189C240.491 17.7417 240.421 18.0386 239.946 18.0386H230.926ZM236.84 25.3548V26.6887H240.701C241.175 26.6887 241.245 27.0787 241.245 27.7816C241.245 28.5044 241.175 28.8572 240.701 28.8572H230.697V26.6887H234.506V25.3548C232.838 24.9475 231.768 23.6509 231.768 22.0401C231.768 20.0939 233.348 18.5751 235.665 18.5751C237.981 18.5751 239.56 20.0939 239.56 22.0401C239.56 23.6322 238.489 24.9288 236.84 25.3548Z" fill="#323841"/>
</svg>
