<svg width="255" height="43" viewBox="0 0 255 43" fill="none" xmlns="http://www.w3.org/2000/svg">
<g clip-path="url(#clip0_233_14423)">
<path d="M114.87 20.22V25.85C114.87 26.13 115.01 26.28 115.26 26.28H119.17C119.58 26.28 119.65 26.67 119.65 27.36C119.65 28.05 119.58 28.46 119.17 28.46H114.67C114.21 28.46 113.55 27.99 113.16 27.58C112.79 27.17 112.42 26.59 112.42 26.22V18.03H118.7C119.11 18.03 119.18 18.42 119.18 19.11C119.18 19.8 119.11 20.21 118.7 20.21H114.86L114.87 20.22ZM126.46 32.14C126.46 32.55 126.04 32.64 125.27 32.64C124.5 32.64 124.1 32.55 124.1 32.14V24.2H122.74V31.98C122.74 32.37 122.33 32.46 121.59 32.46C120.85 32.46 120.44 32.37 120.44 31.98V16.95H122.74V22.02H124.1V16.76H126.45V32.14H126.46Z" fill="#7D7D7D"/>
<path d="M137.28 18.0001C137.69 18.0001 137.76 18.3201 137.76 19.0101C137.76 19.7001 137.69 20.0501 137.28 20.0501H128.38V18.0001H131.78V16.4301H134.2V18.0001H137.28ZM133.02 20.6501C135.22 20.6501 136.79 22.2201 136.79 24.0601C136.79 25.9001 135.22 27.4701 133.02 27.4701C130.82 27.4701 129.25 25.9001 129.25 24.0601C129.25 22.2201 130.83 20.6501 133.02 20.6501ZM141.23 31.4501C141.62 31.4501 141.69 31.8801 141.69 32.5101C141.69 33.2001 141.62 33.5501 141.23 33.5501H133.25C132.79 33.5501 132.15 33.1001 131.78 32.6901C131.39 32.3001 131.04 31.7201 131.04 31.3701V28.3301H133.45V31.0301C133.45 31.3101 133.59 31.4401 133.86 31.4401H141.24L141.23 31.4501ZM133.02 22.6601C132.08 22.6601 131.59 23.3501 131.59 24.0401C131.59 24.7701 132.09 25.4601 133.02 25.4601C133.95 25.4601 134.45 24.7701 134.45 24.0401C134.45 23.3501 133.95 22.6601 133.02 22.6601ZM141.37 28.2801C141.37 28.7601 140.82 28.8401 140.17 28.8401C139.41 28.8401 138.97 28.7101 138.97 28.2801V16.5701H141.38V21.4201H144.05V23.5601H141.38V28.2801H141.37Z" fill="#7D7D7D"/>
<path d="M149.86 19.6801C149.86 19.4901 149.79 19.4001 149.63 19.4001H144.76V17.1801H150.23C150.73 17.1801 151.08 17.6101 151.54 18.2401C151.93 18.8001 152.16 19.2101 152.16 19.5601C152.16 22.5401 149.24 25.1901 145.86 26.4201C145.43 26.5501 145.31 26.5301 144.94 25.6401C144.62 24.8901 144.5 24.6101 144.9 24.4501C148.37 23.0301 149.86 21.0601 149.86 19.6801ZM156.92 31.4501C157.31 31.4501 157.38 31.8801 157.38 32.5101C157.38 33.2001 157.31 33.5501 156.92 33.5501H148.94C148.48 33.5501 147.84 33.1001 147.47 32.6901C147.08 32.3001 146.73 31.7201 146.73 31.3701V27.4001H149.14V31.0301C149.14 31.3101 149.28 31.4401 149.55 31.4401H156.93L156.92 31.4501ZM157.06 27.9001C157.06 28.3901 156.51 28.4601 155.86 28.4601C155.1 28.4601 154.66 28.3301 154.66 27.9001V16.5601H157.07V20.6601H159.74V22.8001H157.07V27.8901L157.06 27.9001Z" fill="#7D7D7D"/>
<path d="M168.95 27.47V29H174.86C175.34 29 175.41 29.39 175.41 30.1C175.41 30.81 175.34 31.18 174.86 31.18H160.2V29H166.5V27.49C164.57 27.15 163.19 25.94 163.19 24.11C163.19 21.95 165.15 20.64 167.65 20.64C170.15 20.64 172.11 21.94 172.11 24.11C172.11 25.88 170.78 27.09 168.94 27.47H168.95ZM161.99 20.11V18.04H166.5V16.25H168.85V18.04H173.06C173.54 18.04 173.61 18.38 173.61 19.08C173.61 19.78 173.54 20.11 173.06 20.11H161.98H161.99ZM167.65 22.68C166.46 22.68 165.63 23.26 165.63 24.12C165.63 24.98 166.46 25.56 167.65 25.56C168.84 25.56 169.67 24.98 169.67 24.12C169.67 23.26 168.84 22.68 167.65 22.68Z" fill="#7D7D7D"/>
<path d="M182.72 25.1601H185.16V28.8101H191.07C191.55 28.8101 191.62 29.2001 191.62 29.9101C191.62 30.6201 191.55 30.9901 191.07 30.9901H176.41V28.8101H182.71V25.1601H182.72ZM189.11 17.9501C189.59 17.9501 189.66 18.3401 189.66 19.0501C189.66 19.7601 189.59 20.1301 189.11 20.1301H185.2C185.27 20.3501 185.36 20.5801 185.48 20.7601C186.4 22.2201 188.36 23.1801 189.87 24.0601C190.22 24.2701 190.15 24.4901 189.76 25.2001C189.32 26.0201 189.23 26.1101 188.77 25.9101C187.27 25.2401 184.98 23.9701 183.88 22.3501C182.91 23.9501 180.29 25.5401 179.12 26.0801C178.69 26.2701 178.54 26.1901 178.11 25.4101C177.7 24.6501 177.6 24.3501 177.99 24.1201C179.25 23.4101 181.05 22.3901 181.9 21.2101C182.15 20.8601 182.36 20.5201 182.48 20.1301H178.37V17.9501H189.1H189.11Z" fill="#7D7D7D"/>
<path d="M207.3 26.21C207.78 26.21 207.85 26.6 207.85 27.31C207.85 28.02 207.78 28.39 207.3 28.39H201.39V32.57C201.39 33 200.95 33.11 200.15 33.11C199.41 33.11 198.95 33.02 198.95 32.59V28.39H192.65V26.21H207.31H207.3ZM196.96 24.49C196.52 24.49 195.86 23.99 195.49 23.58C195.12 23.19 194.75 22.67 194.75 22.33V17.29H205.57V23.09C205.57 23.97 205.18 24.49 204.33 24.49H196.97H196.96ZM197.19 21.94C197.19 22.26 197.31 22.35 197.61 22.35H203.11V19.44H197.18V21.94H197.19Z" fill="#7D7D7D"/>
<path d="M213.73 24.64C213 26.3 211.43 28.07 210.26 29.06C209.9 29.34 209.55 29.15 209.04 28.58C208.6 28.1 208.33 27.7 208.67 27.37C210.51 25.62 212.33 23.21 212.33 20.73V17.86H214.84V20.69C214.84 23.13 216.77 25.59 218.33 27.14C218.68 27.48 218.49 27.76 217.98 28.33C217.52 28.83 217.22 29.13 216.86 28.81C215.71 27.73 214.4 26.18 213.73 24.63V24.64ZM219.5 16.75H221.94V22.01H224.61V24.19H221.94V32.15C221.94 32.58 221.5 32.69 220.7 32.69C219.96 32.69 219.5 32.6 219.5 32.17V16.75Z" fill="#7D7D7D"/>
<path d="M233.54 17.7201C233.95 17.7201 234.02 18.0401 234.02 18.7301C234.02 19.4201 233.95 19.7701 233.54 19.7701H225.17V17.7201H228.57V16.0601H230.99V17.7201H233.54ZM229.81 20.2801C232.01 20.2801 233.58 21.4701 233.58 23.3201C233.58 25.1701 232 26.3601 229.81 26.3601C227.62 26.3601 226.04 25.1701 226.04 23.3201C226.04 21.4701 227.61 20.2801 229.81 20.2801ZM230.5 33.7401C230.02 33.7401 229.47 33.3301 229.08 32.9001C228.69 32.5101 228.34 31.9701 228.34 31.6101V27.2101H230.73V28.5301H236.29V27.2101H238.68V32.3801C238.68 33.2401 238.27 33.7401 237.41 33.7401H230.51H230.5ZM229.81 22.2001C228.96 22.2001 228.38 22.6101 228.38 23.3001C228.38 24.0301 228.96 24.4401 229.81 24.4401C230.66 24.4401 231.24 24.0301 231.24 23.3001C231.24 22.5701 230.66 22.2001 229.81 22.2001ZM236.29 31.6301V30.6001H230.73V31.3501C230.73 31.5401 230.82 31.6301 230.96 31.6301H236.29ZM238.87 25.7401C238.87 26.1901 238.41 26.3201 237.67 26.3201C236.93 26.3201 236.47 26.1901 236.47 25.7401V24.8601H234.4V22.8101H236.47V21.3201H234.4V19.2701H236.47V16.5701H238.88V25.7401H238.87Z" fill="#7D7D7D"/>
<path d="M247.23 27.4701V28.8101H251.12C251.6 28.8101 251.67 29.2001 251.67 29.9101C251.67 30.6201 251.6 30.9901 251.12 30.9901H241.03V28.8101H244.87V27.4701C243.19 27.0601 242.11 25.7501 242.11 24.1301C242.11 22.1701 243.7 20.6401 246.04 20.6401C248.38 20.6401 249.97 22.1701 249.97 24.1301C249.97 25.7301 248.89 27.0401 247.23 27.4701ZM241.27 20.1101V18.0401H244.86V16.4401H247.21V18.0401H250.36C250.84 18.0401 250.91 18.3801 250.91 19.0801C250.91 19.7801 250.84 20.1101 250.36 20.1101H241.26H241.27ZM246.05 22.6801C245.04 22.6801 244.47 23.3001 244.47 24.1301C244.47 24.9601 245.21 25.5301 246.05 25.5301C246.89 25.5301 247.62 24.9701 247.62 24.1301C247.62 23.2901 247.05 22.6801 246.05 22.6801ZM254.74 32.1501C254.74 32.5801 254.3 32.6901 253.5 32.6901C252.76 32.6901 252.3 32.6001 252.3 32.1701V16.7501H254.74V32.1501Z" fill="#7D7D7D"/>
<path d="M2.53 17.27H5.02V27.38L14.59 17.27H20.95L11.16 27.24L21.81 41.83H15.67L9.46 33.16C8.38 31.71 7.37 31.14 6.43 31.46C5.49 31.79 5.02 32.4 5.02 33.23V41.82H0V19.9C0 18.49 1.12 17.26 2.53 17.26V17.27Z" fill="#686D71"/>
<path d="M24.59 17.27H27.08V37.31H39.07V41.82H22.06V19.9C22.06 18.49 23.18 17.26 24.59 17.26V17.27Z" fill="url(#paint0_linear_233_14423)"/>
<path d="M51.65 33.09H45.44V41.83H40.42V19.91C40.42 18.5 41.54 17.27 42.95 17.27H51.29C56.49 17.27 59.2 20.05 59.2 25.18C59.2 30.02 56.56 33.09 51.65 33.09ZM50.39 28.65C52.92 28.69 54.18 27.49 54.18 25.11C54.18 22.73 52.99 21.53 50.64 21.53H45.51V28.65H50.39Z" fill="url(#paint1_linear_233_14423)"/>
<path d="M62.91 17.27H65.62L75.62 34.14V17.27H80.57V41.83H75.33L65.33 24.96V41.83H60.38V19.91C60.38 18.5 61.5 17.27 62.91 17.27Z" fill="url(#paint2_linear_233_14423)"/>
<path d="M96.26 17.27L105.07 41.83H99.76L98.14 36.81H88.64L87.01 41.83H81.63L89.83 18.9C90.19 17.82 90.99 17.27 92.21 17.27H96.26ZM89.98 32.65H96.73L93.33 22.21L89.97 32.65H89.98Z" fill="#686D71"/>
<path d="M83.12 15.47C80.43 15.47 78.25 13.29 78.25 10.59H91.24C93.93 10.59 96.12 12.77 96.12 15.47H83.13H83.12Z" fill="url(#paint3_linear_233_14423)"/>
<path d="M84.67 10.01H86.6C89.29 10.01 91.48 7.83001 91.48 5.14001H83.13C80.44 5.14001 78.26 7.32001 78.26 10.01H84.69H84.67Z" fill="#004386"/>
<path d="M72.7 10.59H72.49C69.8 10.59 67.61 12.77 67.61 15.47H72.75C75.44 15.47 77.62 13.29 77.62 10.59H72.69H72.7Z" fill="url(#paint4_linear_233_14423)"/>
<path d="M72.76 4.93V5.14C72.76 7.83 74.94 10.01 77.64 10.01V4.88C77.64 2.19 75.46 0 72.76 0V4.93Z" fill="#0075C2"/>
<path opacity="0.2" d="M76.89 13.17C73.45 13.48 70.35 14.3 67.93 15.47H72.76C74.51 15.47 76.03 14.55 76.89 13.17Z" fill="white"/>
<path opacity="0.2" d="M92.16 15.47C89.01 13.96 84.75 13.03 80.04 13.03C79.66 13.03 79.28 13.03 78.9 13.05C79.74 14.5 81.31 15.47 83.11 15.47H92.15H92.16Z" fill="white"/>
<path d="M113.21 37.0701H113.88V39.5601H113.9C114.04 39.3601 114.18 39.1801 114.31 39.0101L115.89 37.0701H116.72L114.85 39.2601L116.87 42.2401H116.08L114.38 39.7001L113.89 40.2701V42.2401H113.22V37.0701H113.21Z" fill="#7D7D7D"/>
<path d="M120.71 40.3601C120.71 41.7301 119.76 42.3301 118.86 42.3301C117.85 42.3301 117.08 41.5901 117.08 40.4201C117.08 39.1801 117.89 38.4501 118.92 38.4501C119.95 38.4501 120.71 39.2301 120.71 40.3601ZM117.76 40.4001C117.76 41.2101 118.23 41.8301 118.89 41.8301C119.55 41.8301 120.02 41.2201 120.02 40.3901C120.02 39.7601 119.71 38.9601 118.91 38.9601C118.11 38.9601 117.77 39.7001 117.77 40.4001H117.76Z" fill="#7D7D7D"/>
<path d="M121.56 39.6901C121.56 39.2501 121.56 38.8801 121.53 38.5301H122.12L122.14 39.2601H122.17C122.34 38.7601 122.75 38.4501 123.2 38.4501C123.28 38.4501 123.33 38.4501 123.39 38.4701V39.1101C123.32 39.0901 123.25 39.0901 123.16 39.0901C122.68 39.0901 122.35 39.4501 122.25 39.9601C122.23 40.0501 122.22 40.1601 122.22 40.2701V42.2501H121.55V39.6901H121.56Z" fill="#7D7D7D"/>
<path d="M124.36 40.5101C124.38 41.4201 124.96 41.8001 125.63 41.8001C126.11 41.8001 126.41 41.7201 126.66 41.6101L126.78 42.0901C126.54 42.2001 126.13 42.3201 125.54 42.3201C124.4 42.3201 123.71 41.5701 123.71 40.4501C123.71 39.3301 124.37 38.4501 125.45 38.4501C126.66 38.4501 126.99 39.5201 126.99 40.2001C126.99 40.3401 126.97 40.4501 126.97 40.5201H124.36V40.5101ZM126.34 40.0301C126.34 39.6001 126.16 38.9301 125.4 38.9301C124.72 38.9301 124.42 39.5601 124.36 40.0301H126.33H126.34Z" fill="#7D7D7D"/>
<path d="M129.89 42.2501L129.84 41.7801H129.82C129.61 42.0701 129.21 42.3301 128.68 42.3301C127.93 42.3301 127.54 41.8001 127.54 41.2601C127.54 40.3601 128.34 39.8701 129.77 39.8801V39.8001C129.77 39.4901 129.69 38.9401 128.93 38.9401C128.58 38.9401 128.22 39.0501 127.96 39.2201L127.81 38.7701C128.12 38.5701 128.56 38.4401 129.03 38.4401C130.17 38.4401 130.44 39.2201 130.44 39.9601V41.3501C130.44 41.6701 130.46 41.9901 130.5 42.2401H129.89V42.2501ZM129.79 40.3501C129.05 40.3301 128.22 40.4701 128.22 41.1901C128.22 41.6301 128.51 41.8301 128.86 41.8301C129.34 41.8301 129.65 41.5201 129.76 41.2101C129.78 41.1401 129.8 41.0601 129.8 41.0001V40.3501H129.79Z" fill="#7D7D7D"/>
<path d="M131.53 39.5401C131.53 39.1601 131.53 38.8401 131.5 38.5301H132.1L132.14 39.1401H132.15C132.33 38.7901 132.76 38.4401 133.38 38.4401C133.89 38.4401 134.69 38.7501 134.69 40.0201V42.2401H134.01V40.1001C134.01 39.5001 133.79 39.0001 133.15 39.0001C132.7 39.0001 132.36 39.3101 132.24 39.6901C132.21 39.7701 132.19 39.8901 132.19 40.0001V42.2301H131.52V39.5201L131.53 39.5401Z" fill="#7D7D7D"/>
<path d="M137.43 37.0701H138.1V41.6801H140.31V42.2401H137.43V37.0701Z" fill="#7D7D7D"/>
<path d="M141.78 37.4901C141.78 37.7201 141.62 37.9001 141.35 37.9001C141.11 37.9001 140.94 37.7201 140.94 37.4901C140.94 37.2601 141.12 37.0701 141.36 37.0701C141.6 37.0701 141.77 37.2501 141.77 37.4901H141.78ZM141.03 42.2501V38.5401H141.7V42.2501H141.03Z" fill="#7D7D7D"/>
<path d="M145.47 42.1101C145.29 42.2001 144.9 42.3201 144.4 42.3201C143.28 42.3201 142.55 41.5601 142.55 40.4201C142.55 39.2801 143.33 38.4501 144.55 38.4501C144.95 38.4501 145.3 38.5501 145.49 38.6401L145.34 39.1601C145.18 39.0701 144.93 38.9801 144.56 38.9801C143.71 38.9801 143.25 39.6101 143.25 40.3801C143.25 41.2401 143.8 41.7701 144.54 41.7701C144.92 41.7701 145.18 41.6701 145.37 41.5901L145.49 42.1001L145.47 42.1101Z" fill="#7D7D7D"/>
<path d="M146.59 40.5101C146.61 41.4201 147.19 41.8001 147.86 41.8001C148.34 41.8001 148.63 41.7201 148.89 41.6101L149.01 42.0901C148.77 42.2001 148.36 42.3201 147.77 42.3201C146.63 42.3201 145.94 41.5701 145.94 40.4501C145.94 39.3301 146.6 38.4501 147.68 38.4501C148.89 38.4501 149.22 39.5201 149.22 40.2001C149.22 40.3401 149.2 40.4501 149.2 40.5201H146.59V40.5101ZM148.57 40.0301C148.57 39.6001 148.39 38.9301 147.63 38.9301C146.95 38.9301 146.65 39.5601 146.59 40.0301H148.56H148.57Z" fill="#7D7D7D"/>
<path d="M150.06 39.5401C150.06 39.1601 150.06 38.8401 150.03 38.5301H150.63L150.67 39.1401H150.68C150.86 38.7901 151.29 38.4401 151.91 38.4401C152.42 38.4401 153.22 38.7501 153.22 40.0201V42.2401H152.54V40.1001C152.54 39.5001 152.32 39.0001 151.68 39.0001C151.23 39.0001 150.89 39.3101 150.77 39.6901C150.74 39.7701 150.72 39.8901 150.72 40.0001V42.2301H150.05V39.5201L150.06 39.5401Z" fill="#7D7D7D"/>
<path d="M154.22 41.5501C154.42 41.6801 154.77 41.8201 155.11 41.8201C155.6 41.8201 155.83 41.5701 155.83 41.2701C155.83 40.9501 155.64 40.7701 155.14 40.5901C154.47 40.3501 154.16 39.9801 154.16 39.5401C154.16 38.9401 154.64 38.4501 155.44 38.4501C155.82 38.4501 156.15 38.5601 156.35 38.6801L156.18 39.1701C156.03 39.0801 155.77 38.9601 155.42 38.9601C155.02 38.9601 154.8 39.1901 154.8 39.4701C154.8 39.7801 155.02 39.9201 155.51 40.1001C156.15 40.3501 156.48 40.6701 156.48 41.2201C156.48 41.8701 155.97 42.3301 155.09 42.3301C154.68 42.3301 154.31 42.2301 154.05 42.0801L154.22 41.5701V41.5501Z" fill="#7D7D7D"/>
<path d="M157.73 40.5101C157.75 41.4201 158.33 41.8001 159 41.8001C159.48 41.8001 159.78 41.7201 160.03 41.6101L160.15 42.0901C159.91 42.2001 159.5 42.3201 158.91 42.3201C157.77 42.3201 157.08 41.5701 157.08 40.4501C157.08 39.3301 157.74 38.4501 158.82 38.4501C160.03 38.4501 160.36 39.5201 160.36 40.2001C160.36 40.3401 160.34 40.4501 160.34 40.5201H157.73V40.5101ZM159.71 40.0301C159.71 39.6001 159.53 38.9301 158.77 38.9301C158.09 38.9301 157.79 39.5601 157.73 40.0301H159.7H159.71Z" fill="#7D7D7D"/>
<path d="M164.4 36.8V41.2901C164.4 41.6201 164.4 42 164.43 42.25H163.82L163.79 41.6101H163.77C163.56 42.0201 163.11 42.34 162.5 42.34C161.6 42.34 160.91 41.5801 160.91 40.4501C160.91 39.2101 161.67 38.4501 162.57 38.4501C163.14 38.4501 163.52 38.7201 163.69 39.0201H163.7V36.8H164.38H164.4ZM163.73 40.0401C163.73 39.9601 163.73 39.84 163.7 39.76C163.6 39.33 163.23 38.98 162.73 38.98C162.03 38.98 161.62 39.59 161.62 40.42C161.62 41.17 161.99 41.7901 162.72 41.7901C163.17 41.7901 163.59 41.49 163.71 40.98C163.73 40.89 163.74 40.8 163.74 40.69V40.05L163.73 40.0401Z" fill="#7D7D7D"/>
<path d="M167.17 37.13C167.49 37.08 167.92 37.03 168.45 37.03C169.11 37.03 169.59 37.18 169.9 37.46C170.18 37.71 170.35 38.08 170.35 38.54C170.35 39 170.21 39.38 169.95 39.64C169.6 40.02 169.02 40.21 168.37 40.21C168.17 40.21 167.99 40.21 167.83 40.16V42.23H167.16V37.12L167.17 37.13ZM167.84 39.63C167.99 39.67 168.17 39.68 168.39 39.68C169.2 39.68 169.69 39.29 169.69 38.57C169.69 37.85 169.21 37.56 168.47 37.56C168.18 37.56 167.96 37.58 167.84 37.61V39.62V39.63Z" fill="#7D7D7D"/>
<path d="M171.11 39.6901C171.11 39.2501 171.11 38.8801 171.08 38.5301H171.67L171.69 39.2601H171.72C171.89 38.7601 172.3 38.4501 172.75 38.4501C172.83 38.4501 172.88 38.4501 172.94 38.4701V39.1101C172.87 39.0901 172.8 39.0901 172.71 39.0901C172.23 39.0901 171.9 39.4501 171.8 39.9601C171.78 40.0501 171.77 40.1601 171.77 40.2701V42.2501H171.1V39.6901H171.11Z" fill="#7D7D7D"/>
<path d="M175.63 42.2501L175.58 41.7801H175.56C175.35 42.0701 174.95 42.3301 174.42 42.3301C173.67 42.3301 173.28 41.8001 173.28 41.2601C173.28 40.3601 174.08 39.8701 175.51 39.8801V39.8001C175.51 39.4901 175.43 38.9401 174.67 38.9401C174.32 38.9401 173.96 39.0501 173.7 39.2201L173.55 38.7701C173.86 38.5701 174.3 38.4401 174.77 38.4401C175.91 38.4401 176.18 39.2201 176.18 39.9601V41.3501C176.18 41.6701 176.2 41.9901 176.24 42.2401H175.63V42.2501ZM175.53 40.3501C174.79 40.3301 173.96 40.4701 173.96 41.1901C173.96 41.6301 174.25 41.8301 174.6 41.8301C175.08 41.8301 175.39 41.5201 175.5 41.2101C175.52 41.1401 175.54 41.0601 175.54 41.0001V40.3501H175.53Z" fill="#7D7D7D"/>
<path d="M179.92 42.1101C179.74 42.2001 179.35 42.3201 178.85 42.3201C177.73 42.3201 177 41.5601 177 40.4201C177 39.2801 177.78 38.4501 179 38.4501C179.4 38.4501 179.75 38.5501 179.94 38.6401L179.79 39.1601C179.63 39.0701 179.37 38.9801 179.01 38.9801C178.16 38.9801 177.7 39.6101 177.7 40.3801C177.7 41.2401 178.25 41.7701 178.99 41.7701C179.37 41.7701 179.63 41.6701 179.82 41.5901L179.94 42.1001L179.92 42.1101Z" fill="#7D7D7D"/>
<path d="M181.62 37.4601V38.5301H182.59V39.0401H181.62V41.0401C181.62 41.5001 181.75 41.7601 182.13 41.7601C182.31 41.7601 182.44 41.7401 182.52 41.7101L182.55 42.2201C182.42 42.2701 182.21 42.3101 181.95 42.3101C181.64 42.3101 181.38 42.2101 181.22 42.0301C181.03 41.8301 180.96 41.5001 180.96 41.0601V39.0301H180.38V38.5201H180.96V37.6301L181.62 37.4501V37.4601Z" fill="#7D7D7D"/>
<path d="M184.1 37.4901C184.1 37.7201 183.94 37.9001 183.67 37.9001C183.43 37.9001 183.26 37.7201 183.26 37.4901C183.26 37.2601 183.44 37.0701 183.68 37.0701C183.92 37.0701 184.09 37.2501 184.09 37.4901H184.1ZM183.35 42.2501V38.5401H184.02V42.2501H183.35Z" fill="#7D7D7D"/>
<path d="M187.79 42.1101C187.61 42.2001 187.22 42.3201 186.72 42.3201C185.6 42.3201 184.87 41.5601 184.87 40.4201C184.87 39.2801 185.65 38.4501 186.87 38.4501C187.27 38.4501 187.62 38.5501 187.81 38.6401L187.66 39.1601C187.5 39.0701 187.25 38.9801 186.88 38.9801C186.03 38.9801 185.57 39.6101 185.57 40.3801C185.57 41.2401 186.12 41.7701 186.86 41.7701C187.24 41.7701 187.5 41.6701 187.69 41.5901L187.81 42.1001L187.79 42.1101Z" fill="#7D7D7D"/>
<path d="M190.63 42.2501L190.58 41.7801H190.56C190.35 42.0701 189.95 42.3301 189.42 42.3301C188.67 42.3301 188.28 41.8001 188.28 41.2601C188.28 40.3601 189.08 39.8701 190.51 39.8801V39.8001C190.51 39.4901 190.43 38.9401 189.67 38.9401C189.32 38.9401 188.96 39.0501 188.7 39.2201L188.55 38.7701C188.86 38.5701 189.3 38.4401 189.77 38.4401C190.91 38.4401 191.18 39.2201 191.18 39.9601V41.3501C191.18 41.6701 191.2 41.9901 191.24 42.2401H190.63V42.2501ZM190.54 40.3501C189.8 40.3301 188.97 40.4701 188.97 41.1901C188.97 41.6301 189.26 41.8301 189.61 41.8301C190.09 41.8301 190.4 41.5201 190.51 41.2101C190.53 41.1401 190.55 41.0601 190.55 41.0001V40.3501H190.54Z" fill="#7D7D7D"/>
<path d="M192.28 36.8H192.95V42.25H192.28V36.8Z" fill="#7D7D7D"/>
<path d="M195.73 42.2501V37.0801H196.46L198.12 39.7001C198.5 40.3101 198.8 40.8501 199.05 41.3801H199.06C199 40.6801 198.98 40.0501 198.98 39.2501V37.0901H199.61V42.2601H198.94L197.3 39.6401C196.94 39.0601 196.59 38.4701 196.33 37.9101H196.31C196.35 38.5701 196.36 39.1901 196.36 40.0501V42.2601H195.73V42.2501Z" fill="#7D7D7D"/>
<path d="M203.87 41.23C203.87 41.61 203.87 41.95 203.9 42.24H203.3L203.26 41.63H203.24C203.06 41.93 202.67 42.32 202.01 42.32C201.43 42.32 200.73 42 200.73 40.69V38.52H201.41V40.58C201.41 41.29 201.62 41.76 202.24 41.76C202.69 41.76 203.01 41.45 203.13 41.15C203.17 41.05 203.19 40.93 203.19 40.8V38.52H203.87V41.22V41.23Z" fill="#7D7D7D"/>
<path d="M204.99 39.6901C204.99 39.2501 204.99 38.8801 204.96 38.5301H205.55L205.57 39.2601H205.6C205.77 38.7601 206.18 38.4501 206.63 38.4501C206.71 38.4501 206.76 38.4501 206.82 38.4701V39.1101C206.75 39.0901 206.68 39.0901 206.59 39.0901C206.11 39.0901 205.78 39.4501 205.68 39.9601C205.66 40.0501 205.65 40.1601 205.65 40.2701V42.2501H204.98V39.6901H204.99Z" fill="#7D7D7D"/>
<path d="M207.4 41.5501C207.6 41.6801 207.95 41.8201 208.29 41.8201C208.78 41.8201 209.01 41.5701 209.01 41.2701C209.01 40.9501 208.82 40.7701 208.32 40.5901C207.65 40.3501 207.34 39.9801 207.34 39.5401C207.34 38.9401 207.82 38.4501 208.62 38.4501C209 38.4501 209.33 38.5601 209.53 38.6801L209.36 39.1701C209.21 39.0801 208.95 38.9601 208.6 38.9601C208.2 38.9601 207.98 39.1901 207.98 39.4701C207.98 39.7801 208.2 39.9201 208.69 40.1001C209.33 40.3501 209.66 40.6701 209.66 41.2201C209.66 41.8701 209.15 42.3301 208.27 42.3301C207.86 42.3301 207.49 42.2301 207.23 42.0801L207.4 41.5701V41.5501Z" fill="#7D7D7D"/>
<path d="M210.91 40.5101C210.93 41.4201 211.51 41.8001 212.18 41.8001C212.66 41.8001 212.95 41.7201 213.21 41.6101L213.33 42.0901C213.09 42.2001 212.68 42.3201 212.09 42.3201C210.95 42.3201 210.26 41.5701 210.26 40.4501C210.26 39.3301 210.92 38.4501 212 38.4501C213.21 38.4501 213.54 39.5201 213.54 40.2001C213.54 40.3401 213.52 40.4501 213.52 40.5201H210.91V40.5101ZM212.89 40.0301C212.89 39.6001 212.71 38.9301 211.95 38.9301C211.27 38.9301 210.97 39.5601 210.91 40.0301H212.88H212.89Z" fill="#7D7D7D"/>
<path d="M214.28 41.5501C214.48 41.6801 214.83 41.8201 215.17 41.8201C215.66 41.8201 215.89 41.5701 215.89 41.2701C215.89 40.9501 215.7 40.7701 215.2 40.5901C214.53 40.3501 214.22 39.9801 214.22 39.5401C214.22 38.9401 214.7 38.4501 215.5 38.4501C215.88 38.4501 216.21 38.5601 216.41 38.6801L216.24 39.1701C216.09 39.0801 215.83 38.9601 215.48 38.9601C215.08 38.9601 214.86 39.1901 214.86 39.4701C214.86 39.7801 215.08 39.9201 215.57 40.1001C216.21 40.3501 216.54 40.6701 216.54 41.2201C216.54 41.8701 216.03 42.3301 215.15 42.3301C214.74 42.3301 214.37 42.2301 214.11 42.0801L214.28 41.5701V41.5501Z" fill="#7D7D7D"/>
<path d="M219.9 40.6201L219.36 42.2501H218.67L220.43 37.0801H221.24L223 42.2501H222.29L221.74 40.6201H219.91H219.9ZM221.59 40.1001L221.08 38.6101C220.96 38.2701 220.89 37.9701 220.81 37.6701H220.79C220.71 37.9801 220.63 38.2901 220.53 38.6101L220.02 40.1101H221.58L221.59 40.1001Z" fill="#7D7D7D"/>
<path d="M223.59 41.5501C223.79 41.6801 224.14 41.8201 224.48 41.8201C224.97 41.8201 225.2 41.5701 225.2 41.2701C225.2 40.9501 225.01 40.7701 224.51 40.5901C223.84 40.3501 223.53 39.9801 223.53 39.5401C223.53 38.9401 224.01 38.4501 224.81 38.4501C225.19 38.4501 225.52 38.5601 225.72 38.6801L225.55 39.1701C225.4 39.0801 225.14 38.9601 224.79 38.9601C224.39 38.9601 224.17 39.1901 224.17 39.4701C224.17 39.7801 224.39 39.9201 224.88 40.1001C225.52 40.3501 225.85 40.6701 225.85 41.2201C225.85 41.8701 225.34 42.3301 224.46 42.3301C224.05 42.3301 223.68 42.2301 223.42 42.0801L223.59 41.5701V41.5501Z" fill="#7D7D7D"/>
<path d="M226.63 41.5501C226.83 41.6801 227.18 41.8201 227.52 41.8201C228.01 41.8201 228.24 41.5701 228.24 41.2701C228.24 40.9501 228.05 40.7701 227.55 40.5901C226.88 40.3501 226.57 39.9801 226.57 39.5401C226.57 38.9401 227.05 38.4501 227.85 38.4501C228.23 38.4501 228.56 38.5601 228.76 38.6801L228.59 39.1701C228.44 39.0801 228.18 38.9601 227.83 38.9601C227.43 38.9601 227.21 39.1901 227.21 39.4701C227.21 39.7801 227.43 39.9201 227.92 40.1001C228.56 40.3501 228.89 40.6701 228.89 41.2201C228.89 41.8701 228.38 42.3301 227.5 42.3301C227.09 42.3301 226.72 42.2301 226.46 42.0801L226.63 41.5701V41.5501Z" fill="#7D7D7D"/>
<path d="M233.12 40.3601C233.12 41.7301 232.17 42.3301 231.27 42.3301C230.26 42.3301 229.49 41.5901 229.49 40.4201C229.49 39.1801 230.3 38.4501 231.33 38.4501C232.36 38.4501 233.12 39.2301 233.12 40.3601ZM230.17 40.4001C230.17 41.2101 230.64 41.8301 231.3 41.8301C231.96 41.8301 232.43 41.2201 232.43 40.3901C232.43 39.7601 232.12 38.9601 231.32 38.9601C230.52 38.9601 230.18 39.7001 230.18 40.4001H230.17Z" fill="#7D7D7D"/>
<path d="M236.62 42.1101C236.44 42.2001 236.05 42.3201 235.55 42.3201C234.43 42.3201 233.7 41.5601 233.7 40.4201C233.7 39.2801 234.48 38.4501 235.7 38.4501C236.1 38.4501 236.45 38.5501 236.64 38.6401L236.49 39.1601C236.33 39.0701 236.08 38.9801 235.71 38.9801C234.86 38.9801 234.4 39.6101 234.4 40.3801C234.4 41.2401 234.95 41.7701 235.69 41.7701C236.07 41.7701 236.33 41.6701 236.52 41.5901L236.64 42.1001L236.62 42.1101Z" fill="#7D7D7D"/>
<path d="M238.16 37.4901C238.16 37.7201 238 37.9001 237.73 37.9001C237.49 37.9001 237.32 37.7201 237.32 37.4901C237.32 37.2601 237.5 37.0701 237.74 37.0701C237.98 37.0701 238.15 37.2501 238.15 37.4901H238.16ZM237.41 42.2501V38.5401H238.08V42.2501H237.41Z" fill="#7D7D7D"/>
<path d="M241.26 42.2501L241.21 41.7801H241.19C240.98 42.0701 240.58 42.3301 240.05 42.3301C239.3 42.3301 238.91 41.8001 238.91 41.2601C238.91 40.3601 239.71 39.8701 241.14 39.8801V39.8001C241.14 39.4901 241.06 38.9401 240.3 38.9401C239.95 38.9401 239.59 39.0501 239.33 39.2201L239.18 38.7701C239.49 38.5701 239.93 38.4401 240.4 38.4401C241.54 38.4401 241.81 39.2201 241.81 39.9601V41.3501C241.81 41.6701 241.83 41.9901 241.87 42.2401H241.26V42.2501ZM241.16 40.3501C240.42 40.3301 239.59 40.4701 239.59 41.1901C239.59 41.6301 239.88 41.8301 240.23 41.8301C240.71 41.8301 241.02 41.5201 241.13 41.2101C241.15 41.1401 241.17 41.0601 241.17 41.0001V40.3501H241.16Z" fill="#7D7D7D"/>
<path d="M243.68 37.4601V38.5301H244.65V39.0401H243.68V41.0401C243.68 41.5001 243.81 41.7601 244.19 41.7601C244.37 41.7601 244.5 41.7401 244.58 41.7101L244.61 42.2201C244.48 42.2701 244.27 42.3101 244.01 42.3101C243.7 42.3101 243.44 42.2101 243.28 42.0301C243.09 41.8301 243.02 41.5001 243.02 41.0601V39.0301H242.44V38.5201H243.02V37.6301L243.68 37.4501V37.4601Z" fill="#7D7D7D"/>
<path d="M246.16 37.4901C246.16 37.7201 246 37.9001 245.73 37.9001C245.49 37.9001 245.32 37.7201 245.32 37.4901C245.32 37.2601 245.5 37.0701 245.74 37.0701C245.98 37.0701 246.15 37.2501 246.15 37.4901H246.16ZM245.41 42.2501V38.5401H246.08V42.2501H245.41Z" fill="#7D7D7D"/>
<path d="M250.56 40.3601C250.56 41.7301 249.61 42.3301 248.71 42.3301C247.7 42.3301 246.93 41.5901 246.93 40.4201C246.93 39.1801 247.74 38.4501 248.77 38.4501C249.8 38.4501 250.56 39.2301 250.56 40.3601ZM247.62 40.4001C247.62 41.2101 248.09 41.8301 248.75 41.8301C249.41 41.8301 249.88 41.2201 249.88 40.3901C249.88 39.7601 249.57 38.9601 248.77 38.9601C247.97 38.9601 247.63 39.7001 247.63 40.4001H247.62Z" fill="#7D7D7D"/>
<path d="M251.41 39.5401C251.41 39.1601 251.41 38.8401 251.38 38.5301H251.98L252.02 39.1401H252.03C252.21 38.7901 252.64 38.4401 253.26 38.4401C253.77 38.4401 254.57 38.7501 254.57 40.0201V42.2401H253.89V40.1001C253.89 39.5001 253.67 39.0001 253.03 39.0001C252.58 39.0001 252.24 39.3101 252.12 39.6901C252.09 39.7701 252.07 39.8901 252.07 40.0001V42.2301H251.4V39.5201L251.41 39.5401Z" fill="#7D7D7D"/>
</g>
<defs>
<linearGradient id="paint0_linear_233_14423" x1="30.57" y1="11.81" x2="30.57" y2="46.6" gradientUnits="userSpaceOnUse">
<stop stop-color="#45B035"/>
<stop offset="0.21" stop-color="#6CBC24"/>
<stop offset="0.44" stop-color="#92C714"/>
<stop offset="0.66" stop-color="#ADD009"/>
<stop offset="0.85" stop-color="#BED502"/>
<stop offset="1" stop-color="#C4D700"/>
</linearGradient>
<linearGradient id="paint1_linear_233_14423" x1="49.81" y1="11.81" x2="49.81" y2="46.6" gradientUnits="userSpaceOnUse">
<stop offset="0.04" stop-color="#45B035"/>
<stop offset="0.2" stop-color="#6CBC24"/>
<stop offset="0.38" stop-color="#92C714"/>
<stop offset="0.55" stop-color="#ADD009"/>
<stop offset="0.69" stop-color="#BED502"/>
<stop offset="0.8" stop-color="#C4D700"/>
<stop offset="0.95" stop-color="#C4D700"/>
</linearGradient>
<linearGradient id="paint2_linear_233_14423" x1="70.48" y1="1.84035e-05" x2="70.48" y2="1.84035e-05" gradientUnits="userSpaceOnUse">
<stop stop-color="#45B035"/>
<stop offset="0.21" stop-color="#6CBC24"/>
<stop offset="0.44" stop-color="#92C714"/>
<stop offset="0.66" stop-color="#ADD009"/>
<stop offset="0.85" stop-color="#BED502"/>
<stop offset="1" stop-color="#C4D700"/>
</linearGradient>
<linearGradient id="paint3_linear_233_14423" x1="78.25" y1="13.03" x2="96.11" y2="13.03" gradientUnits="userSpaceOnUse">
<stop stop-color="#33ADE5"/>
<stop offset="1" stop-color="#8DD1E4"/>
</linearGradient>
<linearGradient id="paint4_linear_233_14423" x1="67.62" y1="13.03" x2="77.63" y2="13.03" gradientUnits="userSpaceOnUse">
<stop stop-color="#45B035"/>
<stop offset="0.21" stop-color="#6CBC24"/>
<stop offset="0.44" stop-color="#92C714"/>
<stop offset="0.66" stop-color="#ADD009"/>
<stop offset="0.85" stop-color="#BED502"/>
<stop offset="1" stop-color="#C4D700"/>
</linearGradient>
<clipPath id="clip0_233_14423">
<rect width="254.74" height="42.33" fill="white"/>
</clipPath>
</defs>
</svg>
