<svg width="100" height="100" viewBox="0 0 100 100" fill="none" xmlns="http://www.w3.org/2000/svg">
<path d="M75.1764 31.8123L69.0904 31.8123" stroke="#231F20" stroke-width="3.5" stroke-linecap="round" stroke-linejoin="round"/>
<path d="M60 23.1077L60 17" stroke="#231F20" stroke-width="3.5" stroke-linecap="round" stroke-linejoin="round"/>
<path d="M70.8997 20.9924L66.6849 25.2204" stroke="#231F20" stroke-width="3.5" stroke-linecap="round" stroke-linejoin="round"/>
<path d="M49.15 58.4648C56.5613 58.4648 62.5694 52.4755 62.5694 45.0874C62.5694 37.6992 56.5613 31.71 49.15 31.71C41.7388 31.71 35.7307 37.6992 35.7307 45.0874C35.7307 52.4755 41.7388 58.4648 49.15 58.4648Z" stroke="#231F20" stroke-width="3.5" stroke-linecap="round" stroke-linejoin="round"/>
<path d="M41.0254 56.1729L29.0611 61.3323C25.413 62.5686 23 65.6916 23 69.1786V79.433H75.2999V69.1786C75.2999 65.6916 72.8869 62.5686 69.2388 61.3323L57.2746 56.1729" stroke="#231F20" stroke-width="3.5" stroke-linecap="round" stroke-linejoin="round"/>
</svg>
