<svg width="31" height="31" viewBox="0 0 31 31" fill="none" xmlns="http://www.w3.org/2000/svg">
<g clip-path="url(#clip0_1269_31514)">
<path d="M9.66675 1H21.6667C24.0537 1 26.3429 1.94821 28.0307 3.63604C29.7185 5.32387 30.6667 7.61305 30.6667 10V22C30.6667 24.3869 29.7185 26.6761 28.0307 28.364C26.3429 30.0518 24.0537 31 21.6667 31H9.66675C7.2798 31 4.99061 30.0518 3.30279 28.364C1.61496 26.6761 0.666748 24.3869 0.666748 22L0.666748 10C0.666748 7.61305 1.61496 5.32387 3.30279 3.63604C4.99061 1.94821 7.2798 1 9.66675 1ZM9.66675 4C8.07545 4 6.54933 4.63214 5.42411 5.75736C4.29889 6.88258 3.66675 8.4087 3.66675 10V22C3.66675 23.5913 4.29889 25.1174 5.42411 26.2426C6.54933 27.3679 8.07545 28 9.66675 28H21.6667C23.258 28 24.7842 27.3679 25.9094 26.2426C27.0346 25.1174 27.6667 23.5913 27.6667 22V10C27.6667 8.4087 27.0346 6.88258 25.9094 5.75736C24.7842 4.63214 23.258 4 21.6667 4H9.66675ZM18.6667 14.5H23.1667C23.5646 14.5 23.9461 14.658 24.2274 14.9393C24.5087 15.2206 24.6667 15.6022 24.6667 16C24.6667 16.3978 24.5087 16.7794 24.2274 17.0607C23.9461 17.342 23.5646 17.5 23.1667 17.5H18.6667C18.2689 17.5 17.8874 17.342 17.6061 17.0607C17.3248 16.7794 17.1667 16.3978 17.1667 16C17.1667 15.6022 17.3248 15.2206 17.6061 14.9393C17.8874 14.658 18.2689 14.5 18.6667 14.5ZM15.6667 20.5H23.1667C23.5646 20.5 23.9461 20.658 24.2274 20.9393C24.5087 21.2206 24.6667 21.6022 24.6667 22C24.6667 22.3978 24.5087 22.7794 24.2274 23.0607C23.9461 23.342 23.5646 23.5 23.1667 23.5H15.6667C15.2689 23.5 14.8874 23.342 14.6061 23.0607C14.3248 22.7794 14.1667 22.3978 14.1667 22C14.1667 21.6022 14.3248 21.2206 14.6061 20.9393C14.8874 20.658 15.2689 20.5 15.6667 20.5ZM15.6667 8.5H23.1667C23.5646 8.5 23.9461 8.65804 24.2274 8.93934C24.5087 9.22064 24.6667 9.60218 24.6667 10C24.6667 10.3978 24.5087 10.7794 24.2274 11.0607C23.9461 11.342 23.5646 11.5 23.1667 11.5H15.6667C15.2689 11.5 14.8874 11.342 14.6061 11.0607C14.3248 10.7794 14.1667 10.3978 14.1667 10C14.1667 9.60218 14.3248 9.22064 14.6061 8.93934C14.8874 8.65804 15.2689 8.5 15.6667 8.5ZM9.40875 16.3645L12.5917 13.18C12.7311 13.0407 12.8965 12.9303 13.0786 12.8549C13.2606 12.7796 13.4558 12.7409 13.6528 12.7409C13.8498 12.741 14.0449 12.7799 14.2269 12.8554C14.4089 12.9308 14.5742 13.0414 14.7135 13.1807C14.8528 13.3201 14.9632 13.4855 15.0386 13.6676C15.1139 13.8497 15.1526 14.0448 15.1526 14.2418C15.1525 14.4388 15.1136 14.6339 15.0381 14.8159C14.9627 14.9979 14.8521 15.1632 14.7127 15.3025L10.4707 19.5445C10.3314 19.684 10.166 19.7946 9.98391 19.8701C9.80181 19.9456 9.60662 19.9844 9.4095 19.9844C9.21237 19.9844 9.01718 19.9456 8.83509 19.8701C8.65299 19.7946 8.48756 19.684 8.34825 19.5445L6.22725 17.425C5.95401 17.1421 5.80282 16.7632 5.80624 16.3699C5.80965 15.9766 5.96741 15.6004 6.24552 15.3223C6.52363 15.0442 6.89985 14.8864 7.29315 14.883C7.68644 14.8796 8.06534 15.0308 8.34825 15.304L9.40875 16.3645Z" fill="#E9E9E9"/>
</g>
<defs>
<clipPath id="clip0_1269_31514">
<rect width="30" height="30" fill="white" transform="translate(0.666748 0.5)"/>
</clipPath>
</defs>
</svg>
