<svg width="30" height="31" viewBox="0 0 30 31" fill="none" xmlns="http://www.w3.org/2000/svg">
<g clip-path="url(#clip0_1269_31505)">
<path d="M9 1H21C23.3869 1 25.6761 1.94821 27.364 3.63604C29.0518 5.32387 30 7.61305 30 10V22C30 24.3869 29.0518 26.6761 27.364 28.364C25.6761 30.0518 23.3869 31 21 31H9C6.61305 31 4.32387 30.0518 2.63604 28.364C0.948211 26.6761 0 24.3869 0 22L0 10C0 7.61305 0.948211 5.32387 2.63604 3.63604C4.32387 1.94821 6.61305 1 9 1ZM9 4C7.4087 4 5.88258 4.63214 4.75736 5.75736C3.63214 6.88258 3 8.4087 3 10V22C3 23.5913 3.63214 25.1174 4.75736 26.2426C5.88258 27.3679 7.4087 28 9 28H21C22.5913 28 24.1174 27.3679 25.2426 26.2426C26.3679 25.1174 27 23.5913 27 22V10C27 8.4087 26.3679 6.88258 25.2426 5.75736C24.1174 4.63214 22.5913 4 21 4H9ZM18 14.5H22.5C22.8978 14.5 23.2794 14.658 23.5607 14.9393C23.842 15.2206 24 15.6022 24 16C24 16.3978 23.842 16.7794 23.5607 17.0607C23.2794 17.342 22.8978 17.5 22.5 17.5H18C17.6022 17.5 17.2206 17.342 16.9393 17.0607C16.658 16.7794 16.5 16.3978 16.5 16C16.5 15.6022 16.658 15.2206 16.9393 14.9393C17.2206 14.658 17.6022 14.5 18 14.5ZM15 20.5H22.5C22.8978 20.5 23.2794 20.658 23.5607 20.9393C23.842 21.2206 24 21.6022 24 22C24 22.3978 23.842 22.7794 23.5607 23.0607C23.2794 23.342 22.8978 23.5 22.5 23.5H15C14.6022 23.5 14.2206 23.342 13.9393 23.0607C13.658 22.7794 13.5 22.3978 13.5 22C13.5 21.6022 13.658 21.2206 13.9393 20.9393C14.2206 20.658 14.6022 20.5 15 20.5ZM15 8.5H22.5C22.8978 8.5 23.2794 8.65804 23.5607 8.93934C23.842 9.22064 24 9.60218 24 10C24 10.3978 23.842 10.7794 23.5607 11.0607C23.2794 11.342 22.8978 11.5 22.5 11.5H15C14.6022 11.5 14.2206 11.342 13.9393 11.0607C13.658 10.7794 13.5 10.3978 13.5 10C13.5 9.60218 13.658 9.22064 13.9393 8.93934C14.2206 8.65804 14.6022 8.5 15 8.5ZM8.742 16.3645L11.925 13.18C12.0644 13.0407 12.2298 12.9303 12.4118 12.8549C12.5939 12.7796 12.789 12.7409 12.986 12.7409C13.1831 12.741 13.3781 12.7799 13.5601 12.8554C13.7421 12.9308 13.9075 13.0414 14.0468 13.1807C14.186 13.3201 14.2965 13.4855 14.3718 13.6676C14.4471 13.8497 14.4859 14.0448 14.4858 14.2418C14.4857 14.4388 14.4469 14.6339 14.3714 14.8159C14.2959 14.9979 14.1854 15.1632 14.046 15.3025L9.804 19.5445C9.66469 19.684 9.49926 19.7946 9.31716 19.8701C9.13506 19.9456 8.93987 19.9844 8.74275 19.9844C8.54563 19.9844 8.35044 19.9456 8.16834 19.8701C7.98624 19.7946 7.82081 19.684 7.6815 19.5445L5.5605 17.425C5.28726 17.1421 5.13607 16.7632 5.13949 16.3699C5.14291 15.9766 5.30066 15.6004 5.57877 15.3223C5.85688 15.0442 6.2331 14.8864 6.6264 14.883C7.01969 14.8796 7.3986 15.0308 7.6815 15.304L8.742 16.3645Z" fill="#AF77F5"/>
</g>
<defs>
<clipPath id="clip0_1269_31505">
<rect width="30" height="30" fill="white" transform="translate(0 0.5)"/>
</clipPath>
</defs>
</svg>
