<svg width="24" height="24" viewBox="0 0 24 24" fill="none" xmlns="http://www.w3.org/2000/svg">
<path d="M19.9143 2.00091C19.5929 1.6835 19.2113 1.43172 18.7914 1.25998C18.3714 1.08824 17.9212 0.999895 17.4666 1C17.012 1.0001 16.5619 1.08866 16.142 1.26059C15.7221 1.43253 15.3406 1.68448 15.0194 2.00204L4.15429 12.7425C3.5069 13.383 3.14318 14.2508 3.14286 15.1557V18.7693C3.14286 19.2363 3.52686 19.6154 4 19.6154H7.68343C8.60114 19.6154 9.48114 19.2544 10.1291 18.6147L20.9863 7.89009C21.6339 7.24924 21.9976 6.38097 21.9976 5.47575C21.9976 4.57052 21.6339 3.70226 20.9863 3.06141L19.9143 2.00091ZM2.85714 21.3077C2.62981 21.3077 2.4118 21.3969 2.25105 21.5555C2.09031 21.7142 2 21.9294 2 22.1539C2 22.3783 2.09031 22.5935 2.25105 22.7522C2.4118 22.9109 2.62981 23 2.85714 23H21.1429C21.3702 23 21.5882 22.9109 21.749 22.7522C21.9097 22.5935 22 22.3783 22 22.1539C22 21.9294 21.9097 21.7142 21.749 21.5555C21.5882 21.3969 21.3702 21.3077 21.1429 21.3077H2.85714Z" fill="white"/>
</svg>
