<svg width="24" height="24" viewBox="0 0 24 24" fill="none" xmlns="http://www.w3.org/2000/svg">
<path fill-rule="evenodd" clip-rule="evenodd" d="M11.5851 19.6839C7.92696 17.491 4.61551 18.7882 3.47995 19.6399C3.23754 19.8217 2.91321 19.851 2.64218 19.7154C2.37115 19.5799 2.19995 19.3029 2.19995 18.9999V6.9999C2.19995 6.7481 2.31851 6.51099 2.51995 6.3599C3.99822 5.2512 7.79812 3.81219 11.9662 6.06025C13.741 4.98484 17.4423 3.93237 21.4115 6.31391C21.6525 6.45849 21.8 6.71889 21.8 6.9999V18.9999C21.8 19.2881 21.6449 19.5541 21.3941 19.6961C21.1433 19.8381 20.8355 19.8342 20.5884 19.6859C16.9327 17.4925 13.6226 18.7853 12.4834 19.6373C12.4693 19.648 12.4547 19.6583 12.4397 19.6682C12.3883 19.7021 12.3337 19.7295 12.2772 19.7503C12.1845 19.7846 12.0871 19.8011 11.9899 19.7998C11.9084 19.7988 11.8271 19.7854 11.7489 19.7595C11.7049 19.745 11.6619 19.7265 11.6204 19.7042C11.6084 19.6977 11.5966 19.6909 11.5851 19.6839ZM3.79995 17.6283V7.42493C5.10551 6.63161 7.99237 5.74092 11.2 7.46506V17.6856C8.23695 16.3833 5.52722 16.864 3.79995 17.6283ZM12.8 17.6283C14.5272 16.864 17.2369 16.3833 20.2 17.6856V7.46506C16.9924 5.74092 14.1055 6.63161 12.8 7.42493V17.6283Z" fill="#33363D"/>
<circle cx="20.0007" cy="7" r="3" fill="#256EF4"/>
<circle cx="20.0007" cy="7" r="4" fill="#256EF4"/>
</svg>
