<svg width="30" height="30" viewBox="0 0 30 30" fill="none" xmlns="http://www.w3.org/2000/svg">
<path d="M4.22859 4H25.7714C26.4508 4 27 4.64072 27 5.43336V23.8094C27 24.602 26.4508 25.2427 25.7714 25.2427H4.22859C3.54919 25.2427 3 24.602 3 23.8094V5.43336C3 4.64072 3.54919 4 4.22859 4Z" fill="white" stroke="#0050CA" stroke-width="1.2" stroke-linecap="round" stroke-linejoin="round"/>
<path d="M22.8963 17.4618L18.75 9.72691C18.0508 8.42566 16.91 8.42566 16.2108 9.72691L12.6533 16.3587L11.5432 14.2846C10.8439 12.9833 9.7031 12.9833 9.00388 14.2846L7.29876 17.4618C6.59954 18.763 7.16996 19.8331 8.5684 19.8331H21.6267C23.0251 19.8331 23.5955 18.763 22.8963 17.4618Z" fill="#9CC445" stroke="#0050CA" stroke-width="1.2" stroke-linecap="round" stroke-linejoin="round"/>
</svg>
