<svg width="18" height="18" viewBox="0 0 18 18" fill="none" xmlns="http://www.w3.org/2000/svg">
<path d="M14.4818 7.69169C14.4818 12.2735 8.59086 16.2008 8.59086 16.2008C8.59086 16.2008 2.69995 12.2735 2.69995 7.69169C2.69995 6.12932 3.3206 4.63095 4.42536 3.52619C5.53012 2.42143 7.02849 1.80078 8.59086 1.80078C10.1532 1.80078 11.6516 2.42143 12.7564 3.52619C13.8611 4.63095 14.4818 6.12932 14.4818 7.69169Z" stroke="#8A949E" stroke-width="1.4" stroke-linecap="round" stroke-linejoin="round"/>
<path d="M8.59083 9.65579C9.67532 9.65579 10.5545 8.77664 10.5545 7.69215C10.5545 6.60767 9.67532 5.72852 8.59083 5.72852C7.50635 5.72852 6.6272 6.60767 6.6272 7.69215C6.6272 8.77664 7.50635 9.65579 8.59083 9.65579Z" stroke="#8A949E" stroke-width="1.4" stroke-linecap="round" stroke-linejoin="round"/>
</svg>
