<svg width="76" height="100" viewBox="0 0 76 100" fill="none" xmlns="http://www.w3.org/2000/svg">
<path fill-rule="evenodd" clip-rule="evenodd" d="M0 6.65943C0 2.98165 2.97611 0 6.64707 0H50.9608C54.6318 0 57.6079 2.98165 57.6079 6.65943V24.4179C57.6079 25.6439 56.616 26.6377 55.3922 26.6377C54.1684 26.6377 53.1765 25.6439 53.1765 24.4179V6.65943C53.1765 5.43338 52.1846 4.43962 50.9608 4.43962H6.64707C5.4233 4.43962 4.43138 5.43338 4.43138 6.65943V77.6933C4.43138 78.9194 3.43946 79.9131 2.21569 79.9131C0.991919 79.9131 0 78.9194 0 77.6933V6.65943ZM55.3922 62.1547C56.616 62.1547 57.6079 63.1484 57.6079 64.3745V82.1329C57.6079 85.8107 54.6318 88.7924 50.9608 88.7924H35.451C34.2272 88.7924 33.2353 87.7986 33.2353 86.5726C33.2353 85.3465 34.2272 84.3528 35.451 84.3528H50.9608C52.1846 84.3528 53.1765 83.359 53.1765 82.1329V64.3745C53.1765 63.1484 54.1684 62.1547 55.3922 62.1547Z" fill="#464C53"/>
<path fill-rule="evenodd" clip-rule="evenodd" d="M0 8.77728C0 4.06596 4.74937 0.84457 9.11587 2.59414L33.4884 12.3613C36.0118 13.3725 37.6667 15.8214 37.6667 18.5444V93.3339C37.6667 98.0452 32.9173 101.267 28.5508 99.517L4.17826 89.7499C1.6545 88.7387 0 86.2898 0 83.5667L0 8.77728ZM7.46988 6.71623C6.01462 6.13304 4.43138 7.20672 4.43138 8.77728V83.5667C4.43138 84.4746 4.98299 85.2907 5.82425 85.6278L30.1968 95.3949C31.6521 95.9785 33.2353 94.9045 33.2353 93.3339V18.5444C33.2353 17.6366 32.6837 16.8204 31.8425 16.4834L7.46988 6.71623Z" fill="#464C53"/>
<path fill-rule="evenodd" clip-rule="evenodd" d="M64.0791 33.8317C65.0083 33.0336 66.4068 33.1416 67.2034 34.0725L74.7998 42.9517C75.5114 43.7828 75.5114 45.0096 74.7998 45.841L67.2034 54.7203C66.4068 55.6508 65.0083 55.7588 64.0791 54.9607C63.1499 54.163 63.0425 52.7615 63.8388 51.8309L68.3003 46.616H46.5294C45.3057 46.616 44.3138 45.6222 44.3138 44.3962C44.3138 43.1701 45.3057 42.1764 46.5294 42.1764H68.3003L63.8388 36.9618C63.0425 36.0309 63.1499 34.6294 64.0791 33.8317Z" fill="#00AAFF"/>
</svg>
