<svg width="18" height="18" viewBox="0 0 18 18" fill="none" xmlns="http://www.w3.org/2000/svg">
<path d="M7.83842 4.12109H3.14191C2.78603 4.12109 2.44472 4.26247 2.19307 4.51412C1.94142 4.76576 1.80005 5.10707 1.80005 5.46295V14.856C1.80005 15.2119 1.94142 15.5532 2.19307 15.8048C2.44472 16.0565 2.78603 16.1978 3.14191 16.1978H12.5349C12.8908 16.1978 13.2321 16.0565 13.4838 15.8048C13.7354 15.5532 13.8768 15.2119 13.8768 14.856V10.1595" stroke="#8A949E" stroke-width="1.4" stroke-linecap="round" stroke-linejoin="round"/>
<path d="M12.8704 3.11608C13.1374 2.84917 13.4994 2.69922 13.8768 2.69922C14.2543 2.69922 14.6163 2.84917 14.8832 3.11608C15.1502 3.38299 15.3001 3.745 15.3001 4.12248C15.3001 4.49995 15.1502 4.86196 14.8832 5.12887L8.5094 11.5027L5.82568 12.1736L6.49661 9.48992L12.8704 3.11608Z" stroke="#8A949E" stroke-width="1.4" stroke-linecap="round" stroke-linejoin="round"/>
</svg>
