<svg width="24" height="24" viewBox="0 0 24 24" fill="none" xmlns="http://www.w3.org/2000/svg">
<path d="M19.6562 9.03125C19.2248 9.03125 18.875 9.38102 18.875 9.8125C18.875 10.244 19.2248 10.5937 19.6562 10.5937C20.087 10.5937 20.4375 10.9442 20.4375 11.375C20.4375 11.8058 20.087 12.1562 19.6562 12.1562C19.2248 12.1562 18.875 12.506 18.875 12.9375C18.875 13.369 19.2248 13.7187 19.6562 13.7187C20.9486 13.7187 22 12.6673 22 11.375C22 10.0827 20.9486 9.03125 19.6562 9.03125Z" fill="#AF77F5"/>
<path d="M15.2414 2.00032C14.5657 2.01165 13.9275 2.3145 13.4908 2.83126L10.4652 6.41052C10.3165 6.58649 10.099 6.68743 9.86859 6.68743H5.125C3.40187 6.68743 2 8.08931 2 9.81243V12.9374C2 14.6606 3.40187 16.0624 5.125 16.0624H9.86859C10.099 16.0624 10.3165 16.1634 10.4652 16.3393L13.4908 19.9186C13.9276 20.4354 14.5657 20.7382 15.2414 20.7496C15.2546 20.7498 15.2677 20.7499 15.2809 20.7499C16.5853 20.7499 17.625 19.6618 17.625 18.3767V4.37321C17.625 3.07966 16.5691 1.97833 15.2414 2.00032ZM16.0625 18.3767C16.0625 18.807 15.7123 19.1942 15.2676 19.1873C15.0426 19.1836 14.8299 19.0825 14.6841 18.91L11.6585 15.3307C11.2123 14.8027 10.5598 14.5 9.86859 14.5H5.125C4.26344 14.5 3.5625 13.799 3.5625 12.9375V9.81247C3.5625 8.95091 4.26344 8.24997 5.125 8.24997H9.86859C10.5598 8.24997 11.2123 7.9472 11.6586 7.41923L14.6841 3.83993C14.8299 3.66743 15.0426 3.56638 15.2677 3.56259C15.7059 3.55521 16.0625 3.93704 16.0625 4.37321V18.3767Z" fill="#AF77F5"/>
<path d="M9.03125 9.8125C8.59977 9.8125 8.25 10.1623 8.25 10.5937V12.1562C8.25 12.5877 8.59977 12.9375 9.03125 12.9375C9.46273 12.9375 9.8125 12.5877 9.8125 12.1562V10.5937C9.8125 10.1623 9.46273 9.8125 9.03125 9.8125Z" fill="#AF77F5"/>
</svg>
