<svg width="100" height="80" viewBox="0 0 100 80" fill="none" xmlns="http://www.w3.org/2000/svg">
<path d="M84.7501 54.964C81.1888 54.964 78.2959 51.0215 78.2959 46.1715C78.2959 41.3214 81.1888 37.3789 84.7501 37.3789C88.3115 37.3789 91.2043 41.3214 91.2043 46.1715C91.2043 51.0215 88.3115 54.964 84.7501 54.964ZM84.7501 39.1189C82.1454 39.1189 80.0247 42.2868 80.0247 46.1772C80.0247 50.0677 82.1454 53.2356 84.7501 53.2356C87.3549 53.2356 89.4755 50.0677 89.4755 46.1772C89.4755 42.2868 87.3549 39.1189 84.7501 39.1189Z" fill="#333333"/>
<path d="M81.6149 45.9516C80.4624 45.9516 79.6153 45.8359 79.5116 45.8186C79.039 45.7492 78.7105 45.3099 78.7797 44.8359C78.8489 44.3618 79.2868 44.0323 79.7594 44.1017C79.8285 44.1133 86.8359 45.0671 87.7119 41.1362C87.8156 40.6679 88.2766 40.3789 88.7434 40.4772C89.2102 40.5812 89.5041 41.0437 89.4003 41.5119C88.5475 45.333 84.2658 45.9458 81.6207 45.9458L81.6149 45.9516Z" fill="#333333"/>
<path d="M70.1357 63.93C71.4035 60.9818 73.5357 60.0396 74.9534 59.4153L75.2011 59.3054C76.5784 58.6869 79.6672 57.5827 80.8947 57.1434L81.2981 53.5535C81.3499 53.0795 81.7764 52.7327 82.2547 52.7905C82.7272 52.8425 83.073 53.2703 83.0154 53.7501L82.5543 57.8833C82.5198 58.2128 82.295 58.4961 81.9781 58.6059C81.932 58.6233 77.5466 60.161 75.9042 60.8951L75.6506 61.0107C74.2791 61.6177 72.7232 62.2999 71.732 64.6179" fill="#333333"/>
<path d="M99.1336 66.6643C98.7821 66.6643 98.4536 66.4446 98.3211 66.0977L97.8543 64.8318C96.8747 62.3402 95.2669 61.6292 93.8435 61.0049L93.5842 60.8893C91.9418 60.1551 87.5564 58.6174 87.5103 58.6001C87.1991 58.4902 86.9744 58.207 86.934 57.8775L86.473 53.7442C86.4211 53.2702 86.7611 52.8366 87.2337 52.7846C87.7062 52.7268 88.1384 53.0737 88.1903 53.5477L88.5937 57.1375C89.8211 57.5711 92.9099 58.681 94.2872 59.2996L94.535 59.4094C96.0045 60.0568 98.2174 61.0338 99.4679 64.2074L99.9404 65.4908C100.108 65.9417 99.877 66.4388 99.4275 66.6065C99.3296 66.6411 99.2258 66.6585 99.1279 66.6585L99.1336 66.6643Z" fill="#333333"/>
<path d="M88.4034 64.3287C88.1671 64.3287 87.9423 64.2305 87.7752 64.057L84.6749 60.7851L80.7908 63.9588C80.5603 64.1495 80.2491 64.2016 79.9668 64.1091C79.6844 64.0108 79.4712 63.7796 79.402 63.4905L78.3186 58.9006C78.2092 58.4323 78.4973 57.9641 78.9583 57.8543C79.4308 57.7386 79.8919 58.0335 80.0014 58.4959L80.7678 61.7389L84.2024 58.9353C84.5539 58.652 85.061 58.6809 85.3722 59.0104L88.1037 61.8892L89.5328 58.3688C89.7115 57.9236 90.2186 57.7097 90.6623 57.8947C91.1061 58.0739 91.3193 58.5826 91.1349 59.0278L89.1986 63.7911C89.0891 64.0628 88.8471 64.2594 88.5589 64.3172C88.5071 64.3287 88.4495 64.3345 88.3976 64.3345L88.4034 64.3287Z" fill="#333333"/>
<path d="M84.4558 60.0507C84.3924 60.0507 84.3348 60.0507 84.2714 60.0507C82.3352 59.9583 81.0731 58.3974 81.0155 58.3281C80.7158 57.9523 80.7792 57.4089 81.1538 57.1083C81.5226 56.8077 82.0701 56.8713 82.364 57.2413C82.3812 57.2644 83.2226 58.2703 84.3636 58.3165C85.0955 58.3454 85.8619 57.9639 86.6168 57.1835C86.9511 56.8366 87.4985 56.8309 87.8385 57.1604C88.1843 57.4956 88.19 58.0448 87.8616 58.3859C86.7955 59.49 85.6545 60.0507 84.4558 60.0507Z" fill="#333333"/>
<path d="M15.2174 54.964C11.6618 54.964 8.76318 51.0215 8.76318 46.1715C8.76318 41.3214 11.6561 37.3789 15.2174 37.3789C18.7787 37.3789 21.6716 41.3214 21.6716 46.1715C21.6716 51.0215 18.7787 54.964 15.2174 54.964ZM15.2174 39.1189C12.6127 39.1189 10.492 42.2868 10.492 46.1772C10.492 50.0677 12.6127 53.2356 15.2174 53.2356C17.8221 53.2356 19.9428 50.0677 19.9428 46.1772C19.9428 42.2868 17.8221 39.1189 15.2174 39.1189Z" fill="#333333"/>
<path d="M12.0827 45.9516C10.9302 45.9516 10.0831 45.8359 9.97934 45.8186C9.5068 45.7492 9.17832 45.3099 9.24748 44.8359C9.31663 44.3618 9.75459 44.0323 10.2271 44.1017C10.2963 44.1133 17.3037 45.0671 18.1796 41.1362C18.2834 40.6679 18.7444 40.3789 19.2112 40.4772C19.6779 40.5812 19.9718 41.0437 19.8681 41.5119C19.0152 45.333 14.7336 45.9458 12.0885 45.9458L12.0827 45.9516Z" fill="#333333"/>
<path d="M0.862607 66.4276C0.753116 66.4276 0.637863 66.4044 0.528371 66.3582C0.0904067 66.1732 -0.11705 65.6645 0.0673559 65.2252L0.609049 63.936C1.87684 60.9878 4.00904 60.0456 5.42666 59.4213L5.67446 59.3114C7.05174 58.6929 10.1405 57.5887 11.368 57.1494L11.7714 53.5595C11.8232 53.0855 12.2497 52.7329 12.728 52.7965C13.2005 52.8485 13.5463 53.2763 13.4887 53.7561L13.0277 57.8894C12.9931 58.2189 12.7683 58.5021 12.4514 58.6119C12.4053 58.6293 8.01987 60.167 6.3775 60.9011L6.12395 61.011C4.75242 61.6179 3.1965 62.3001 2.20531 64.6182L1.66938 65.9015C1.53108 66.231 1.20837 66.4333 0.874133 66.4333L0.862607 66.4276Z" fill="#333333"/>
<path d="M28.3276 64.8318C27.3479 62.3402 25.7343 61.6292 24.3167 61.0049L24.0632 60.8893C22.4208 60.1551 18.0354 58.6174 17.9893 58.6001C17.6781 58.4902 17.4534 58.207 17.413 57.8775L16.952 53.7442C16.9001 53.2702 17.2401 52.8366 17.7127 52.7846C18.1852 52.7268 18.6117 53.0737 18.6693 53.5477L19.0727 57.1375C20.3001 57.5711 23.3889 58.681 24.7662 59.2996L25.014 59.4094C26.4835 60.0568 28.7021 61.0338 29.9469 64.2074" fill="#333333"/>
<path d="M18.8711 64.3287C18.6349 64.3287 18.4101 64.2305 18.243 64.057L15.1427 60.7851L11.2586 63.9588C11.0281 64.1495 10.7169 64.2016 10.4346 64.1091C10.1522 64.0108 9.93896 63.7796 9.86981 63.4905L8.78642 58.9006C8.67693 58.4323 8.96506 57.9641 9.42608 57.8543C9.89286 57.7444 10.3539 58.0335 10.4691 58.4959L11.2356 61.7389L14.6701 58.9353C15.0217 58.652 15.5288 58.6809 15.84 59.0104L18.5715 61.8892L20.0006 58.3688C20.1793 57.9236 20.6864 57.7097 21.1243 57.8947C21.5681 58.0739 21.7813 58.5826 21.5969 59.0278L19.6606 63.7911C19.5511 64.0628 19.3091 64.2594 19.021 64.3172C18.9691 64.3287 18.9115 64.3345 18.8596 64.3345L18.8711 64.3287Z" fill="#333333"/>
<path d="M14.9236 60.0507C14.8602 60.0507 14.8026 60.0507 14.7392 60.0507C12.8029 59.9583 11.5409 58.3974 11.4833 58.3281C11.1836 57.9523 11.247 57.4089 11.6216 57.1083C11.9961 56.8077 12.5378 56.8713 12.8317 57.2413C12.8548 57.2702 13.6904 58.2703 14.8314 58.3165C15.5863 58.3512 16.3297 57.9639 17.0846 57.1835C17.4188 56.8366 17.9663 56.8309 18.3063 57.1604C18.6521 57.4956 18.6578 58.0448 18.3293 58.3859C17.2632 59.49 16.1222 60.0507 14.9236 60.0507Z" fill="#333333"/>
<path d="M60.4488 16.6426C62.9267 20.1399 64.4596 24.9785 64.4596 30.3257C64.4596 40.9854 58.3627 49.6277 50.8423 49.6277C43.322 49.6277 37.2251 40.9854 37.2251 30.3257C37.2251 24.9958 38.7522 20.1689 41.2129 16.6773" stroke="#333333" stroke-width="2" stroke-linecap="round" stroke-linejoin="round"/>
<path d="M60.7369 17.9082C55.7176 30.3311 38.3892 25.429 38.3892 25.429" stroke="#333333" stroke-width="2" stroke-linecap="round" stroke-linejoin="round"/>
<path d="M44.5378 48.5527L43.4141 58.6171C43.4141 58.6171 32.5803 62.415 28.4542 64.2591C24.985 65.8083 20.1213 67.6177 17.2054 74.4101L15.8857 77.5549" stroke="#333333" stroke-width="2" stroke-linecap="round" stroke-linejoin="round"/>
<path d="M57.1641 48.5527L58.2878 58.6171C58.2878 58.6171 69.1217 62.415 73.2477 64.2591C76.8206 65.8546 81.886 67.7276 84.7616 75.0576L85.8911 78.1387" stroke="#333333" stroke-width="2" stroke-linecap="round" stroke-linejoin="round"/>
<path d="M37.2363 60.8311L39.8756 72.0169L50.8478 63.0509L59.7512 72.4331L64.4651 60.8311" stroke="#333333" stroke-width="2" stroke-linecap="round" stroke-linejoin="round"/>
<path d="M43.4082 58.6113C43.4082 58.6113 50.4214 66.2766 57.8207 58.6113" stroke="#333333" stroke-width="2" stroke-linecap="round" stroke-linejoin="round"/>
<path d="M37.2367 6.63019L41.2476 16.6483H60.4488L65.5315 6.63019C65.5315 6.63019 52.018 -4.09315 37.231 6.63019H37.2367Z" stroke="#333333" stroke-width="2" stroke-linecap="round" stroke-linejoin="round"/>
<path d="M37.2367 30.3311C37.2367 30.3311 36.8621 44.8581 28.0337 50.9222C28.0337 50.9222 34.9432 57.7608 43.4143 57.4487" stroke="#333333" stroke-width="2" stroke-linecap="round" stroke-linejoin="round"/>
<path d="M37.2367 30.3311C37.2367 30.3311 36.8621 44.8581 28.0337 50.9222C28.0337 50.9222 34.9432 57.7608 43.4143 57.4487" stroke="#333333" stroke-width="2" stroke-linecap="round" stroke-linejoin="round"/>
<path d="M64.4593 30.3311C64.4593 30.3311 64.8339 44.8581 73.6681 50.9222C73.6681 50.9222 66.7587 57.7608 58.2817 57.4487" stroke="#333333" stroke-width="2" stroke-linecap="round" stroke-linejoin="round"/>
<path d="M54.7783 7.9834H47.0044V10.1628H54.7783V7.9834Z" fill="#00B52B"/>
<path d="M51.9777 5.15625H49.8052V12.9892H51.9777V5.15625Z" fill="#00B52B"/>
<path d="M50.8483 50.501C42.867 50.501 36.3667 41.4541 36.3667 30.3318C36.3667 24.9962 37.8419 19.9727 40.5158 16.1805C40.7924 15.7874 41.3284 15.6949 41.7202 15.9724C42.1121 16.2499 42.2043 16.7933 41.9277 17.1806C39.4555 20.6837 38.0955 25.3488 38.0955 30.3318C38.0955 40.5002 43.8179 48.7667 50.8483 48.7667C57.8788 48.7667 63.6012 40.4944 63.6012 30.3318C63.6012 25.3373 62.2354 20.6548 59.7459 17.1517C59.4693 16.7586 59.5615 16.221 59.9476 15.9435C60.3395 15.666 60.8754 15.7585 61.152 16.1458C63.8432 19.938 65.3242 24.9788 65.3242 30.3318C65.3242 41.4541 58.8297 50.501 50.8426 50.501H50.8483Z" fill="#333333"/>
<path d="M45.8866 27.2218C41.6337 27.2218 38.2395 26.2911 38.1588 26.2737C37.6978 26.1465 37.4327 25.6667 37.5595 25.2043C37.6863 24.7418 38.1703 24.4759 38.6256 24.6031C38.7927 24.6493 55.2682 29.1352 59.936 17.591C60.1147 17.1459 60.6218 16.932 61.0597 17.1112C61.5035 17.2904 61.7167 17.7991 61.538 18.2384C58.5587 25.6147 51.4764 27.2218 45.8866 27.2218Z" fill="#333333"/>
<path d="M15.886 78.4167C15.7766 78.4167 15.6613 78.3935 15.5518 78.3473C15.1138 78.1623 14.9064 77.6536 15.0908 77.2143L16.4104 74.0695C19.2976 67.3465 24.0403 65.2538 27.5036 63.7277L28.1087 63.4618C31.7565 61.8316 40.4005 58.762 42.6249 57.9758L43.691 48.4549C43.7429 47.9809 44.1751 47.634 44.6476 47.6918C45.1202 47.7439 45.4659 48.1717 45.4083 48.6515L44.2846 58.7158C44.25 59.0453 44.0253 59.3285 43.7083 59.4384C43.5988 59.4788 32.8572 63.2421 28.8118 65.0515L28.2009 65.3232C24.824 66.8089 20.623 68.6645 18.0067 74.7574L16.6928 77.8964C16.5545 78.2259 16.2318 78.4282 15.8976 78.4282L15.886 78.4167Z" fill="#333333"/>
<path d="M85.8968 79.0004C85.5453 79.0004 85.2168 78.7807 85.0843 78.4338L83.9548 75.3527C81.3731 68.7857 77.0165 66.8665 73.5128 65.3173L72.8962 65.0456C68.8508 63.2362 58.1091 59.4729 57.9997 59.4324C57.6885 59.3226 57.4637 59.0393 57.4234 58.7098L56.2997 48.6455C56.2478 48.1715 56.5878 47.7379 57.0603 47.6859C57.5329 47.6339 57.9651 47.9749 58.0169 48.449L59.083 57.9699C61.3074 58.7561 69.9515 61.8257 73.5993 63.4559L74.2101 63.7276C77.8003 65.3115 82.7216 67.4793 85.5684 74.7284L86.7094 77.8269C86.8765 78.2778 86.646 78.7749 86.1965 78.9426C86.0985 78.9772 85.9948 78.9946 85.8968 78.9946V79.0004Z" fill="#333333"/>
<path d="M59.7519 73.3003C59.5156 73.3003 59.2909 73.202 59.1238 73.0286L50.7736 64.2245L40.4238 72.6818C40.1933 72.8725 39.8821 72.9246 39.5998 72.8321C39.3174 72.7338 39.1042 72.5026 39.035 72.2135L36.3899 61.0335C36.2804 60.5653 36.5686 60.1028 37.0296 59.9872C37.4906 59.8773 37.9574 60.1664 38.0726 60.6288L40.4008 70.4677L50.3011 62.3746C50.6526 62.0914 51.1597 62.1203 51.4709 62.4498L59.4522 70.8666L63.659 60.5074C63.8376 60.0623 64.3448 59.8484 64.7885 60.0334C65.2322 60.2126 65.4454 60.7213 65.261 61.1665L60.5471 72.7685C60.4376 73.0402 60.1956 73.2367 59.9075 73.2945C59.8556 73.3061 59.798 73.3119 59.7461 73.3119L59.7519 73.3003Z" fill="#333333"/>
<path d="M50.802 62.8896C50.7617 62.8896 50.7213 62.8896 50.681 62.8896C46.1457 62.8318 42.9129 59.3518 42.7746 59.2015C42.4519 58.8489 42.4749 58.2997 42.8264 57.976C43.1779 57.6522 43.7254 57.6754 44.0481 58.028C44.0942 58.0742 46.9468 61.1091 50.7156 61.1554C50.7444 61.1554 50.7674 61.1554 50.7962 61.1554C53.0322 61.1554 55.1874 60.0975 57.1986 58.0106C57.5328 57.6638 58.0803 57.658 58.4203 57.9933C58.766 58.3286 58.7718 58.8778 58.4376 59.2188C56.0864 61.6525 53.5162 62.8896 50.7962 62.8896H50.802Z" fill="#333333"/>
<path d="M60.4489 17.5157H41.2476C40.8961 17.5157 40.5792 17.3018 40.4466 16.9723L36.4358 6.9542C36.286 6.58423 36.407 6.16223 36.7297 5.931C41.2361 2.65908 46.0883 1 51.1422 1C59.7286 1 65.814 5.7518 66.0675 5.95412C66.3903 6.20848 66.4882 6.65938 66.3038 7.02935L61.2211 17.0474C61.0713 17.3365 60.7774 17.5215 60.4489 17.5215V17.5157ZM41.8297 15.7814H59.9188L64.4194 6.90217C62.7655 5.7807 57.6655 2.73423 51.1364 2.73423C46.6588 2.73423 42.3368 4.15052 38.2856 6.94842L41.8239 15.7814H41.8297Z" fill="#333333"/>
<path d="M42.844 58.3225C34.3844 58.3225 27.7112 51.8191 27.4231 51.5358C27.2386 51.3566 27.1464 51.0965 27.1695 50.8422C27.1925 50.582 27.3309 50.3508 27.5441 50.2063C35.9115 44.4602 36.3725 30.4534 36.3725 30.3088C36.384 29.8348 36.7701 29.4648 37.2369 29.4648C37.2427 29.4648 37.2542 29.4648 37.26 29.4648C37.7383 29.4764 38.1129 29.8753 38.1013 30.3551C38.084 30.9447 37.6403 44.4486 29.3997 50.9867C31.3763 52.6631 36.9488 56.8137 43.3799 56.5825C43.8467 56.5709 44.2559 56.9409 44.2732 57.4149C44.2905 57.8947 43.9159 58.2936 43.4433 58.3109C43.2416 58.3167 43.04 58.3225 42.844 58.3225Z" fill="#333333"/>
<path d="M42.844 58.3225C34.3844 58.3225 27.7112 51.8191 27.4231 51.5358C27.2386 51.3566 27.1464 51.0965 27.1695 50.8422C27.1925 50.582 27.3309 50.3508 27.5441 50.2063C35.9115 44.4602 36.3725 30.4534 36.3725 30.3088C36.384 29.8348 36.7701 29.4648 37.2369 29.4648C37.2427 29.4648 37.2542 29.4648 37.26 29.4648C37.7383 29.4764 38.1129 29.8753 38.1013 30.3551C38.084 30.9447 37.6403 44.4486 29.3997 50.9867C31.3763 52.6631 36.9488 56.8137 43.3799 56.5825C43.8467 56.5709 44.2559 56.9409 44.2732 57.4149C44.2905 57.8947 43.9159 58.2936 43.4433 58.3109C43.2416 58.3167 43.04 58.3225 42.844 58.3225Z" fill="#333333"/>
<path d="M58.8526 58.3225C58.6509 58.3225 58.455 58.3225 58.2533 58.3109C57.775 58.2936 57.4061 57.8889 57.4234 57.4149C57.4407 56.9351 57.8441 56.5709 58.3167 56.5825C64.7363 56.8253 70.3203 52.6631 72.2969 50.9867C64.0563 44.4486 63.6126 30.9505 63.5953 30.3551C63.5838 29.8753 63.9583 29.4764 64.4366 29.4649C64.9034 29.4417 65.3126 29.829 65.3241 30.3088C65.3241 30.4476 65.7966 44.4717 74.1525 50.2063C74.3657 50.3508 74.5041 50.5878 74.5271 50.8422C74.5502 51.1023 74.458 51.3566 74.2735 51.5359C73.9854 51.8191 67.3122 58.3225 58.8526 58.3225Z" fill="#333333"/>
<path d="M54.7783 7.9834H47.0044V10.1628H54.7783V7.9834Z" fill="#3D5DDB"/>
<path d="M51.9777 5.15625H49.8052V12.9892H51.9777V5.15625Z" fill="#3D5DDB"/>
</svg>
