<svg width="28" height="28" viewBox="0 0 28 28" fill="none" xmlns="http://www.w3.org/2000/svg">
<g clip-path="url(#clip0_752_3531)">
<path d="M9.84375 17.0625C9.23967 17.0625 8.75 16.5728 8.75 15.9688V14C8.75 13.3959 9.23967 12.9062 9.84375 12.9062C10.4478 12.9062 10.9375 13.3959 10.9375 14V15.9688C10.9375 16.5728 10.4478 17.0625 9.84375 17.0625Z" fill="#0767C7"/>
<path d="M9.84375 10.7188C9.23967 10.7188 8.75 10.2291 8.75 9.625V7.65625C8.75 7.05217 9.23967 6.5625 9.84375 6.5625C10.4478 6.5625 10.9375 7.05217 10.9375 7.65625V9.625C10.9375 10.2291 10.4478 10.7188 9.84375 10.7188Z" fill="#0767C7"/>
<path d="M5.46875 17.0625C4.86467 17.0625 4.375 16.5728 4.375 15.9688V14C4.375 13.3959 4.86467 12.9062 5.46875 12.9062C6.07283 12.9062 6.5625 13.3959 6.5625 14V15.9688C6.5625 16.5728 6.07283 17.0625 5.46875 17.0625Z" fill="#0767C7"/>
<path d="M5.46875 10.7188C4.86467 10.7188 4.375 10.2291 4.375 9.625V7.65625C4.375 7.05217 4.86467 6.5625 5.46875 6.5625C6.07283 6.5625 6.5625 7.05217 6.5625 7.65625V9.625C6.5625 10.2291 6.07283 10.7188 5.46875 10.7188Z" fill="#0767C7"/>
<path d="M22.5312 14.875H18.5938C17.9897 14.875 17.5 14.3853 17.5 13.7812C17.5 13.1772 17.9897 12.6875 18.5938 12.6875H22.5312C23.1353 12.6875 23.625 13.1772 23.625 13.7812C23.625 14.3853 23.1353 14.875 22.5312 14.875Z" fill="#0767C7"/>
<path d="M22.5312 19.25H18.5938C17.9897 19.25 17.5 18.7603 17.5 18.1562C17.5 17.5522 17.9897 17.0625 18.5938 17.0625H22.5312C23.1353 17.0625 23.625 17.5522 23.625 18.1562C23.625 18.7603 23.1353 19.25 22.5312 19.25Z" fill="#0767C7"/>
<path d="M24.7188 8.3125H18.5938C17.9897 8.3125 17.5 8.80217 17.5 9.40625C17.5 10.0103 17.9897 10.5 18.5938 10.5H24.7188C25.3218 10.5 25.8125 10.9907 25.8125 11.5938V25.8125H21.6562V22.5312C21.6562 21.9272 21.1666 21.4375 20.5625 21.4375C19.9584 21.4375 19.4688 21.9272 19.4688 22.5312V25.8125H15.3125V5.46875C15.3125 3.65947 13.8405 2.1875 12.0312 2.1875H8.75V1.09375C8.75 0.489672 8.26033 0 7.65625 0C7.05217 0 6.5625 0.489672 6.5625 1.09375V2.1875H3.28125C1.47197 2.1875 0 3.65947 0 5.46875V26.9062C0 27.5103 0.489672 28 1.09375 28H26.9062C27.5103 28 28 27.5103 28 26.9062V11.5938C28 9.78447 26.528 8.3125 24.7188 8.3125ZM3.28125 4.375H12.0312C12.6343 4.375 13.125 4.86566 13.125 5.46875V25.8125H10.9375V20.3438C10.9375 19.7397 10.4478 19.25 9.84375 19.25H5.46875C4.86467 19.25 4.375 19.7397 4.375 20.3438V25.8125H2.1875V5.46875C2.1875 4.86566 2.67816 4.375 3.28125 4.375ZM8.75 25.8125H6.5625V21.4375H8.75V25.8125Z" fill="#0767C7"/>
</g>
<defs>
<clipPath id="clip0_752_3531">
<rect width="28" height="28" fill="white"/>
</clipPath>
</defs>
</svg>
