<svg width="24" height="24" viewBox="0 0 24 24" fill="none" xmlns="http://www.w3.org/2000/svg">
<rect width="24" height="24" rx="12" fill="#333333"/>
<path d="M17.6667 18.0001V16.6667C17.6667 15.9595 17.3857 15.2812 16.8856 14.7811C16.3855 14.281 15.7072 14 15 14H9.66667C8.95942 14 8.28115 14.281 7.78105 14.7811C7.28095 15.2812 7 15.9595 7 16.6667V18.0001" stroke="white" stroke-width="1.6" stroke-linecap="round" stroke-linejoin="round"/>
<path d="M12.3337 11.3335C13.8064 11.3335 15.0003 10.1395 15.0003 8.66673C15.0003 7.19394 13.8064 6 12.3337 6C10.8609 6 9.66699 7.19394 9.66699 8.66673C9.66699 10.1395 10.8609 11.3335 12.3337 11.3335Z" stroke="white" stroke-width="1.6" stroke-linecap="round" stroke-linejoin="round"/>
</svg>
