<svg width="40" height="40" viewBox="0 0 40 40" fill="none" xmlns="http://www.w3.org/2000/svg">
<path d="M20.5 25.1411L14.5257 34.3655L13.4059 32.8136L11.7163 30.4717L8.8786 29.9009L7 29.5214L12.9715 20.2998L20.5 25.1411Z" fill="#5780CE"/>
<path d="M18.9997 24.1768L13.4062 32.8136L11.7166 30.4717L8.87891 29.901L14.4724 21.2642L18.9997 24.1768Z" fill="#2A2A9D"/>
<path d="M20.5 25.1411L26.4715 34.3655L27.5941 32.8136L29.2837 30.4717L32.1214 29.9009L34 29.5214L28.0257 20.2998L20.5 25.1411Z" fill="#5780CE"/>
<path d="M22 24.1768L27.5935 32.8136L29.2831 30.4717L32.1208 29.901L26.5273 21.2642L22 24.1768Z" fill="#2A2A9D"/>
<path d="M20.5004 26.5976C26.4841 26.5976 31.3348 21.7628 31.3348 15.7988C31.3348 9.83479 26.4841 5 20.5004 5C14.5167 5 9.66602 9.83479 9.66602 15.7988C9.66602 21.7628 14.5167 26.5976 20.5004 26.5976Z" fill="#F5D964"/>
<mask id="mask0_748_28377" style="mask-type:luminance" maskUnits="userSpaceOnUse" x="9" y="5" width="23" height="22">
<path d="M20.5004 26.5976C26.4841 26.5976 31.3348 21.7628 31.3348 15.7988C31.3348 9.83479 26.4841 5 20.5004 5C14.5167 5 9.66602 9.83479 9.66602 15.7988C9.66602 21.7628 14.5167 26.5976 20.5004 26.5976Z" fill="white"/>
</mask>
<g mask="url(#mask0_748_28377)">
<path d="M27.7972 3.57412L27.0098 3.14014L13.2035 28.0269L13.9909 28.4609L27.7972 3.57412Z" fill="#F5E089"/>
<path d="M24.6178 3.57477L22.4258 2.3667L8.6195 27.2535L10.8115 28.4615L24.6178 3.57477Z" fill="#F5E089"/>
</g>
<path d="M20.4991 22.5747C24.2535 22.5747 27.2971 19.5411 27.2971 15.799C27.2971 12.057 24.2535 9.02344 20.4991 9.02344C16.7447 9.02344 13.7012 12.057 13.7012 15.799C13.7012 19.5411 16.7447 22.5747 20.4991 22.5747Z" fill="#EEC050"/>
<path d="M25.7654 11.5115C24.592 10.5471 23.0886 9.97078 21.4469 9.97078C17.6925 9.97078 14.6518 13.0015 14.6518 16.7436C14.6518 18.3798 15.2328 19.8784 16.1975 21.0479C14.6743 19.8053 13.7012 17.9131 13.7012 15.7989C13.7012 12.0569 16.7476 9.02051 20.5019 9.02051C22.6231 9.02051 24.5215 9.99046 25.7682 11.5086L25.7654 11.5115Z" fill="#E0A535"/>
<path d="M12.302 10.7409C12.4092 11.1345 12.6969 11.3988 12.9423 11.3313L12.5502 9.90869C12.3048 9.97617 12.192 10.3501 12.302 10.7409Z" fill="#F5E089"/>
<path d="M13.193 10.4964C13.0859 10.1028 12.7981 9.83855 12.5527 9.90602L12.9448 11.3286C13.1902 11.2611 13.303 10.8872 13.193 10.4964Z" fill="#EEC050"/>
<path d="M13.7633 11.6295C13.3628 11.7138 12.9961 11.5789 12.9453 11.3315L14.3952 11.0278C14.4488 11.2752 14.1667 11.5451 13.7661 11.6295H13.7633Z" fill="#F5E089"/>
<path d="M13.5739 10.7297C13.9745 10.6454 14.3412 10.7803 14.3919 11.0278L12.9421 11.3314C12.8885 11.084 13.1706 10.8141 13.5711 10.7297H13.5739Z" fill="#EEC050"/>
<path d="M11.3416 12.6749C11.5672 13.0601 11.9424 13.2597 12.185 13.1191L11.3726 11.7246C11.1328 11.8652 11.1187 12.2897 11.3444 12.6749H11.3416Z" fill="#F5E089"/>
<path d="M12.2125 12.1719C11.9869 11.7867 11.6117 11.5871 11.3691 11.7277L12.1815 13.1221C12.4213 12.9816 12.4354 12.557 12.2097 12.1719H12.2125Z" fill="#EEC050"/>
<path d="M13.1361 13.2066C12.7356 13.4062 12.3125 13.3696 12.1855 13.1194L13.6326 12.394C13.7567 12.6415 13.5367 13.0041 13.1361 13.2066Z" fill="#F5E089"/>
<path d="M12.6814 12.3094C13.082 12.1098 13.5051 12.1464 13.632 12.3966L12.185 13.122C12.0609 12.8745 12.2809 12.5119 12.6814 12.3094Z" fill="#EEC050"/>
<path d="M10.8504 14.6686C11.1494 15.0341 11.5753 15.1775 11.8038 14.9919L10.7234 13.6733C10.4949 13.8589 10.5542 14.3031 10.8504 14.6686Z" fill="#F5E089"/>
<path d="M11.6741 13.9967C11.3751 13.6312 10.9492 13.4878 10.7207 13.6734L11.801 14.9919C12.0295 14.8064 11.9703 14.3622 11.6741 13.9967Z" fill="#EEC050"/>
<path d="M12.8089 14.9244C12.4252 15.1999 11.9768 15.2308 11.8047 14.9918L13.1897 13.9966C13.3617 14.2327 13.1897 14.6488 12.8089 14.9244Z" fill="#F5E089"/>
<path d="M12.1839 14.0644C12.5676 13.7889 13.0161 13.7579 13.1881 13.9969L11.8031 14.9922C11.6311 14.756 11.8031 14.3399 12.1839 14.0644Z" fill="#EEC050"/>
<path d="M10.9515 17.0809C11.3549 17.3255 11.8034 17.3227 11.9585 17.0725L10.5002 16.1841C10.3479 16.4343 10.5481 16.8363 10.9515 17.0809Z" fill="#F5E089"/>
<path d="M11.507 16.1755C11.1036 15.9309 10.6551 15.9337 10.5 16.1839L11.9583 17.0724C12.1106 16.8221 11.9104 16.4201 11.507 16.1755Z" fill="#EEC050"/>
<path d="M12.8842 16.6757C12.6134 17.0609 12.2016 17.238 11.959 17.0721L12.935 15.6748C13.1747 15.8435 13.1522 16.2905 12.8814 16.6757H12.8842Z" fill="#F5E089"/>
<path d="M12.0114 16.0714C12.2822 15.6863 12.694 15.5091 12.9366 15.675L11.9606 17.0723C11.7209 16.9036 11.7435 16.4566 12.0142 16.0714H12.0114Z" fill="#EEC050"/>
<path d="M11.5892 19.2036C12.0264 19.3807 12.4693 19.3048 12.5821 19.0349L10.9997 18.3911C10.8897 18.661 11.152 19.0265 11.5892 19.2036Z" fill="#F5E089"/>
<path d="M11.989 18.2222C11.5518 18.045 11.1089 18.1209 10.9961 18.3908L12.5785 19.0347C12.6885 18.7648 12.4262 18.3993 11.989 18.2222Z" fill="#EEC050"/>
<path d="M13.4291 18.4976C13.226 18.9221 12.8452 19.1611 12.5801 19.0346L13.3191 17.4995C13.5843 17.626 13.6322 18.073 13.4291 18.4976Z" fill="#F5E089"/>
<path d="M12.4693 18.0367C12.6724 17.6121 13.0532 17.3731 13.3184 17.4997L12.5793 19.0347C12.3142 18.9082 12.2662 18.4612 12.4693 18.0367Z" fill="#EEC050"/>
<path d="M12.6235 21.2304C13.0805 21.3456 13.5092 21.2051 13.5826 20.9211L11.924 20.5078C11.8535 20.7918 12.1666 21.1151 12.6235 21.2275V21.2304Z" fill="#F5E089"/>
<path d="M12.8829 20.2015C12.4259 20.0862 11.9972 20.2268 11.9238 20.5107L13.5824 20.924C13.6529 20.6401 13.3398 20.3167 12.8829 20.2043V20.2015Z" fill="#EEC050"/>
<path d="M14.3464 20.2692C14.2054 20.719 13.8641 21.0114 13.582 20.9214L14.0954 19.2964C14.3747 19.3835 14.4875 19.8193 14.3464 20.2663V20.2692Z" fill="#F5E089"/>
<path d="M13.3323 19.9512C13.4733 19.5014 13.8146 19.209 14.0967 19.299L13.5833 20.924C13.3041 20.8368 13.1912 20.4011 13.3323 19.954V19.9512Z" fill="#EEC050"/>
<path d="M28.695 10.7409C28.5878 11.1345 28.3001 11.3988 28.0547 11.3313L28.4468 9.90869C28.6922 9.97617 28.805 10.3501 28.695 10.7409Z" fill="#F5E089"/>
<path d="M27.8059 10.4964C27.9131 10.1028 28.2008 9.83855 28.4462 9.90602L28.0541 11.3286C27.8087 11.2611 27.6959 10.8872 27.8059 10.4964Z" fill="#EEC050"/>
<path d="M27.236 11.6295C27.6366 11.7138 28.0033 11.5789 28.054 11.3315L26.6042 11.0278C26.5506 11.2752 26.8327 11.5451 27.2332 11.6295H27.236Z" fill="#F5E089"/>
<path d="M27.4254 10.7297C27.0249 10.6454 26.6582 10.7803 26.6074 11.0278L28.0573 11.3314C28.1109 11.084 27.8288 10.8141 27.4283 10.7297H27.4254Z" fill="#EEC050"/>
<path d="M29.6559 12.6749C29.4302 13.0601 29.0551 13.2597 28.8125 13.1191L29.6249 11.7246C29.8646 11.8652 29.8787 12.2897 29.6531 12.6749H29.6559Z" fill="#F5E089"/>
<path d="M28.7849 12.1719C29.0106 11.7867 29.3857 11.5871 29.6283 11.7277L28.8159 13.1221C28.5762 12.9816 28.5621 12.557 28.7877 12.1719H28.7849Z" fill="#EEC050"/>
<path d="M27.865 13.2066C28.2656 13.4062 28.6887 13.3696 28.8156 13.1194L27.3686 12.394C27.2445 12.6415 27.4645 13.0041 27.865 13.2066Z" fill="#F5E089"/>
<path d="M28.3197 12.3094C27.9192 12.1098 27.4961 12.1464 27.3691 12.3966L28.8162 13.122C28.9403 12.8745 28.7203 12.5119 28.3197 12.3094Z" fill="#EEC050"/>
<path d="M30.1468 14.6686C29.8478 15.0341 29.4218 15.1775 29.1934 14.9919L30.2737 13.6733C30.5022 13.8589 30.4429 14.3031 30.1468 14.6686Z" fill="#F5E089"/>
<path d="M29.323 13.9967C29.622 13.6312 30.0479 13.4878 30.2764 13.6734L29.1961 14.9919C28.9676 14.8064 29.0268 14.3622 29.323 13.9967Z" fill="#EEC050"/>
<path d="M28.1918 14.9244C28.5754 15.1999 29.0239 15.2308 29.1959 14.9918L27.811 13.9966C27.6389 14.2327 27.811 14.6488 28.1918 14.9244Z" fill="#F5E089"/>
<path d="M28.8128 14.0644C28.4292 13.7889 27.9807 13.7579 27.8086 13.9969L29.1936 14.9922C29.3656 14.756 29.1936 14.3399 28.8128 14.0644Z" fill="#EEC050"/>
<path d="M30.0441 17.0809C29.6407 17.3255 29.1922 17.3227 29.0371 17.0725L30.4954 16.1841C30.6477 16.4343 30.4475 16.8363 30.0441 17.0809Z" fill="#F5E089"/>
<path d="M29.4886 16.1755C29.892 15.9309 30.3405 15.9337 30.4956 16.1839L29.0373 17.0724C28.885 16.8221 29.0853 16.4201 29.4886 16.1755Z" fill="#EEC050"/>
<path d="M28.1149 16.6757C28.3857 17.0609 28.7976 17.238 29.0401 17.0721L28.0642 15.6748C27.8244 15.8435 27.847 16.2905 28.1178 16.6757H28.1149Z" fill="#F5E089"/>
<path d="M28.9857 16.0714C28.715 15.6863 28.3031 15.5091 28.0605 15.675L29.0365 17.0723C29.2763 16.9036 29.2537 16.4566 28.9829 16.0714H28.9857Z" fill="#EEC050"/>
<path d="M29.4109 19.2036C28.9737 19.3807 28.5308 19.3048 28.418 19.0349L30.0004 18.3911C30.1104 18.661 29.8481 19.0265 29.4109 19.2036Z" fill="#F5E089"/>
<path d="M29.0072 18.2222C29.4444 18.045 29.8872 18.1209 30.0001 18.3908L28.4176 19.0347C28.3076 18.7648 28.57 18.3993 29.0072 18.2222Z" fill="#EEC050"/>
<path d="M27.5689 18.4976C27.772 18.9221 28.1528 19.1611 28.418 19.0346L27.6789 17.4995C27.4138 17.626 27.3658 18.073 27.5689 18.4976Z" fill="#F5E089"/>
<path d="M28.5287 18.0367C28.3256 17.6121 27.9448 17.3731 27.6797 17.4997L28.4187 19.0347C28.6839 18.9082 28.7318 18.4612 28.5287 18.0367Z" fill="#EEC050"/>
<path d="M28.3731 21.2304C27.9162 21.3456 27.4874 21.2051 27.4141 20.9211L29.0726 20.5078C29.1432 20.7918 28.8301 21.1151 28.3731 21.2275V21.2304Z" fill="#F5E089"/>
<path d="M28.1157 20.2015C28.5727 20.0862 29.0014 20.2268 29.0748 20.5107L27.4162 20.924C27.3456 20.6401 27.6588 20.3167 28.1157 20.2043V20.2015Z" fill="#EEC050"/>
<path d="M26.6526 20.2692C26.7936 20.719 27.1349 21.0114 27.417 20.9214L26.9036 19.2964C26.6244 19.3835 26.5115 19.8193 26.6526 20.2663V20.2692Z" fill="#F5E089"/>
<path d="M27.6687 19.9512C27.5277 19.5014 27.1864 19.209 26.9043 19.299L27.4177 20.924C27.6969 20.8368 27.8097 20.4011 27.6687 19.954V19.9512Z" fill="#EEC050"/>
<path d="M16.1142 20V13.6367H17.2567V16.5635H17.3446L19.8319 13.6367H21.2294L18.7685 16.4932L21.2558 20H19.8759L17.9687 17.2666L17.2567 18.1016V20H16.1142ZM21.5089 20V13.6367H23.8995C25.3585 13.6367 26.1407 14.5244 26.1407 15.7461C26.1407 16.9678 25.3497 17.8467 23.8819 17.8467H22.6515V20H21.5089ZM22.6515 16.9062H23.7237C24.5851 16.9062 24.9718 16.4229 24.9718 15.7461C24.9718 15.0605 24.5851 14.5947 23.7237 14.5947H22.6515V16.9062Z" fill="#004D84"/>
</svg>
