<svg width="25" height="28" viewBox="0 0 25 28" fill="none" xmlns="http://www.w3.org/2000/svg">
<path d="M12.0312 19.25C11.4272 19.25 10.9375 18.7603 10.9375 18.1562V15.9688C10.9375 15.3647 11.4272 14.875 12.0312 14.875C12.6353 14.875 13.125 15.3647 13.125 15.9688V18.1562C13.125 18.7603 12.6353 19.25 12.0312 19.25Z" fill="#8261AC"/>
<path d="M12.0312 13.125C15.6498 13.125 18.5938 10.1811 18.5938 6.5625C18.5938 2.94394 15.6498 0 12.0312 0C8.41269 0 5.46875 2.94394 5.46875 6.5625C5.46875 10.1811 8.41269 13.125 12.0312 13.125ZM12.0312 2.1875C14.4436 2.1875 16.4062 4.15013 16.4062 6.5625C16.4062 8.97487 14.4436 10.9375 12.0312 10.9375C9.61888 10.9375 7.65625 8.97487 7.65625 6.5625C7.65625 4.15013 9.61888 2.1875 12.0312 2.1875Z" fill="#8261AC"/>
<path d="M16.8442 13.6892C16.5061 13.5415 16.1162 13.5741 15.8074 13.7763C15.4986 13.9783 15.3125 14.3225 15.3125 14.6915V18.1564C15.3125 18.4791 15.1709 18.7838 14.924 18.9925L12.0321 21.4377C12.0318 21.4377 12.0315 21.4376 12.0312 21.4376L9.1385 18.9925C8.89159 18.7838 8.75 18.4791 8.75 18.1564V14.6915C8.75 14.6904 8.74984 14.6892 8.74984 14.6881C8.74776 13.8935 7.93067 13.3805 7.22159 13.688C7.2205 13.6885 7.21941 13.6888 7.21831 13.6893C2.83341 15.6051 0 19.9345 0 24.7189C0 26.5282 1.47197 28.0001 3.28125 28.0001H20.7812C22.5905 28.0001 24.0625 26.5282 24.0625 24.7189C24.0625 19.9345 21.2291 15.6051 16.8442 13.6892ZM2.1875 24.7189C2.1875 21.394 3.86017 18.3378 6.5625 16.5317V18.1564C6.5625 19.1243 6.98671 20.0379 7.72631 20.6631L10.6194 23.1086C10.7191 23.1928 10.8256 23.2674 10.9374 23.3319V25.8126H3.28125C2.67816 25.8126 2.1875 25.322 2.1875 24.7189ZM20.7812 25.8126H13.125V23.3319C13.2368 23.2674 13.3434 23.1928 13.443 23.1086L16.336 20.6632C17.0757 20.0381 17.5 19.1244 17.5 18.1564V16.5313C20.2025 18.3374 21.875 21.3938 21.875 24.7189C21.875 25.322 21.3843 25.8126 20.7812 25.8126Z" fill="#8261AC"/>
</svg>
