<svg width="20" height="19" viewBox="0 0 20 19" fill="none" xmlns="http://www.w3.org/2000/svg">
<g clip-path="url(#clip0_632_30456)">
<path d="M4.58728 12.2198C4.75157 11.9125 5.65775 10.584 7.20055 10.584H12.1447C13.169 10.5996 14.0187 11.7275 14.1239 12.7981" stroke="white" stroke-width="1.6" stroke-linecap="round" stroke-linejoin="round"/>
<path d="M9.0129 13.8475H11.7802C12.309 13.8475 12.8224 13.6834 13.2563 13.3812L16.7449 10.9352C17.4585 10.4351 18.4777 10.7086 18.9526 11.4588C19.43 12.209 19.2786 13.3031 18.5624 13.8032L14.4936 17.239C14.0803 17.5282 13.6002 17.6897 13.1048 17.7027H4.58728" stroke="white" stroke-width="1.6" stroke-linecap="round" stroke-linejoin="round"/>
<path d="M4.36391 10.4043H0.77002V18.2189H4.36391V10.4043Z" stroke="white" stroke-width="1.6" stroke-linecap="round" stroke-linejoin="round"/>
<path d="M13.1742 7.34555C14.9606 7.34555 16.4087 5.87608 16.4087 4.0634C16.4087 2.25072 14.9606 0.78125 13.1742 0.78125C11.3878 0.78125 9.9397 2.25072 9.9397 4.0634C9.9397 5.87608 11.3878 7.34555 13.1742 7.34555Z" stroke="white" stroke-width="1.6" stroke-linecap="round" stroke-linejoin="round"/>
</g>
<defs>
<clipPath id="clip0_632_30456">
<rect width="20" height="19" fill="white"/>
</clipPath>
</defs>
</svg>
