<svg width="18" height="19" viewBox="0 0 18 19" fill="none" xmlns="http://www.w3.org/2000/svg">
<path d="M14.481 8.19071C14.481 12.7725 8.59013 16.6998 8.59013 16.6998C8.59013 16.6998 2.69922 12.7725 2.69922 8.19071C2.69922 6.62835 3.31987 5.12997 4.42463 4.02521C5.52939 2.92045 7.02776 2.2998 8.59013 2.2998C10.1525 2.2998 11.6509 2.92045 12.7556 4.02521C13.8604 5.12997 14.481 6.62835 14.481 8.19071Z" stroke="#8A949E" stroke-width="1.4" stroke-linecap="round" stroke-linejoin="round"/>
<path d="M8.59059 10.1543C9.67508 10.1543 10.5542 9.27517 10.5542 8.19069C10.5542 7.1062 9.67508 6.22705 8.59059 6.22705C7.5061 6.22705 6.62695 7.1062 6.62695 8.19069C6.62695 9.27517 7.5061 10.1543 8.59059 10.1543Z" stroke="#8A949E" stroke-width="1.4" stroke-linecap="round" stroke-linejoin="round"/>
</svg>
