<svg width="32" height="38" viewBox="0 0 32 38" fill="none" xmlns="http://www.w3.org/2000/svg">
<path d="M22.3988 37.7243H8.84164C3.96636 37.7243 0 33.758 0 28.8827V8.84164C0 3.96636 3.96636 0 8.84164 0H22.3988C27.2741 0 31.2405 3.96636 31.2405 8.84164V28.8827C31.2405 33.758 27.2741 37.7243 22.3988 37.7243ZM8.84164 2.94721C5.59145 2.94721 2.94721 5.59145 2.94721 8.84164V28.8827C2.94721 32.1329 5.59145 34.7771 8.84164 34.7771H22.3988C25.649 34.7771 28.2933 32.1329 28.2933 28.8827V8.84164C28.2933 5.59145 25.649 2.94721 22.3988 2.94721H8.84164ZM22.9883 27.9167C22.9883 24.1428 19.9071 21.0726 16.1198 21.0726H15.1207C11.3334 21.0726 8.2522 24.1428 8.2522 27.9167C8.2522 28.7306 8.91193 29.3903 9.72581 29.3903C10.5397 29.3903 11.1994 28.7306 11.1994 27.9167C11.1994 25.7679 12.9585 24.0198 15.1207 24.0198H16.1198C18.282 24.0198 20.0411 25.7679 20.0411 27.9167C20.0411 28.7306 20.7008 29.3903 21.5147 29.3903C22.3285 29.3903 22.9883 28.7306 22.9883 27.9167ZM15.7676 18.6411C12.8424 18.6411 10.4626 16.2613 10.4626 13.3361C10.4626 10.411 12.8424 8.03116 15.7676 8.03116C18.6928 8.03116 21.0726 10.411 21.0726 13.3361C21.0726 16.2613 18.6928 18.6411 15.7676 18.6411ZM15.7676 10.9784C14.4675 10.9784 13.4098 12.0361 13.4098 13.3361C13.4098 14.6362 14.4675 15.6939 15.7676 15.6939C17.0677 15.6939 18.1254 14.6362 18.1254 13.3361C18.1254 12.0361 17.0677 10.9784 15.7676 10.9784Z" fill="#A7AFC0"/>
</svg>
