<svg width="37" height="38" viewBox="0 0 37 38" fill="none" xmlns="http://www.w3.org/2000/svg">
<g clip-path="url(#clip0_752_3480)">
<path d="M22.1271 37.7243H8.56534C3.84241 37.7243 0 33.758 0 28.8827V8.84164C0 3.96636 3.84241 0 8.56534 0H27.9801C32.703 0 36.5455 3.96636 36.5455 8.84164V22.9514C36.5455 23.7653 35.9063 24.425 35.1179 24.425C34.3295 24.425 33.6903 23.7653 33.6903 22.9514V8.84164C33.6903 5.59145 31.1287 2.94721 27.9801 2.94721H8.56534C5.41672 2.94721 2.85511 5.59145 2.85511 8.84164V28.8827C2.85511 32.1329 5.41672 34.7771 8.56534 34.7771H22.1271C22.9156 34.7771 23.5547 35.4369 23.5547 36.2507C23.5547 37.0646 22.9156 37.7243 22.1271 37.7243ZM29.4077 9.28372C29.4077 8.46985 28.7686 7.81012 27.9801 7.81012H14.918C14.1295 7.81012 13.4904 8.46985 13.4904 9.28372C13.4904 10.0976 14.1295 10.7573 14.918 10.7573H27.9801C28.7686 10.7573 29.4077 10.0976 29.4077 9.28372ZM29.4077 15.1782C29.4077 14.3643 28.7686 13.7045 27.9801 13.7045H8.56534C7.7769 13.7045 7.13778 14.3643 7.13778 15.1782C7.13778 15.992 7.7769 16.6518 8.56534 16.6518H27.9801C28.7686 16.6518 29.4077 15.992 29.4077 15.1782ZM15.1321 21.0726C15.1321 20.2587 14.493 19.599 13.7045 19.599H8.56534C7.7769 19.599 7.13778 20.2587 7.13778 21.0726C7.13778 21.8865 7.7769 22.5462 8.56534 22.5462H13.7045C14.493 22.5462 15.1321 21.8865 15.1321 21.0726ZM7.13778 9.13636C7.13778 10.1537 7.93672 10.9784 8.92223 10.9784C9.90774 10.9784 10.7067 10.1537 10.7067 9.13636C10.7067 8.11906 9.90774 7.29436 8.92223 7.29436C7.93672 7.29436 7.13778 8.11906 7.13778 9.13636ZM35.0193 36.1489C37.0509 34.0518 37.0509 30.6395 35.0193 28.5424L30.0151 23.3768C28.5688 21.8837 26.7441 20.8759 24.7384 20.4621L20.6939 19.6276C20.2261 19.5308 19.7421 19.6822 19.4046 20.0306C19.0672 20.379 18.9207 20.8784 19.0142 21.3615L19.8226 25.5365C20.2236 27.6069 21.1999 29.4903 22.6462 30.9834L27.6504 36.149C28.6346 37.1648 29.9431 37.7243 31.3349 37.7243C32.7267 37.7243 34.0352 37.1648 35.0193 36.1489ZM24.1788 23.3521C25.6299 23.6515 26.9498 24.3805 27.9962 25.4607L33.0004 30.6263C33.9188 31.5743 33.9188 33.1169 33.0004 34.0649C32.5556 34.5242 31.964 34.7771 31.3349 34.7771C30.7057 34.7771 30.1142 34.5242 29.6693 34.0649L24.6651 28.8994C23.6188 27.8192 22.9124 26.4566 22.6224 24.9589L22.2336 22.9508L24.1788 23.3521Z" fill="#A7AFC0"/>
</g>
<defs>
<clipPath id="clip0_752_3480">
<rect width="36.5455" height="37.7243" fill="white"/>
</clipPath>
</defs>
</svg>
