<svg width="41" height="41" viewBox="0 0 41 41" fill="none" xmlns="http://www.w3.org/2000/svg">
<path d="M15.6579 25.9906C15.6579 23.4006 13.5508 21.2935 10.9608 21.2935C8.3708 21.2935 6.26367 23.4006 6.26367 25.9906C6.26367 28.5806 8.3708 30.6877 10.9608 30.6877C13.5508 30.6877 15.6579 28.5806 15.6579 25.9906ZM10.9608 27.5563C10.0975 27.5563 9.39509 26.8539 9.39509 25.9906C9.39509 25.1272 10.0975 24.4249 10.9608 24.4249C11.8241 24.4249 12.5265 25.1272 12.5265 25.9906C12.5265 26.8539 11.8241 27.5563 10.9608 27.5563Z" fill="#A7AFC0"/>
<path d="M3.13086 35.3851C3.13086 37.9751 5.23799 40.0822 7.82798 40.0822H14.0908C16.6808 40.0822 18.7879 37.9751 18.7879 35.3851C18.7879 32.7951 16.6808 30.688 14.0908 30.688H7.82798C5.23799 30.688 3.13086 32.7951 3.13086 35.3851ZM14.0908 33.8194C14.9541 33.8194 15.6565 34.5218 15.6565 35.3851C15.6565 36.2484 14.9541 36.9508 14.0908 36.9508H7.82798C6.96465 36.9508 6.26227 36.2484 6.26227 35.3851C6.26227 34.5218 6.96465 33.8194 7.82798 33.8194H14.0908Z" fill="#A7AFC0"/>
<path d="M33.82 25.9906C33.82 23.4006 31.7129 21.2935 29.1229 21.2935C26.5329 21.2935 24.4258 23.4006 24.4258 25.9906C24.4258 28.5806 26.5329 30.6877 29.1229 30.6877C31.7129 30.6877 33.82 28.5806 33.82 25.9906ZM29.1229 27.5563C28.2596 27.5563 27.5572 26.8539 27.5572 25.9906C27.5572 25.1272 28.2596 24.4249 29.1229 24.4249C29.9862 24.4249 30.6886 25.1272 30.6886 25.9906C30.6886 26.8539 29.9862 27.5563 29.1229 27.5563Z" fill="#A7AFC0"/>
<path d="M21.293 35.3851C21.293 37.9751 23.4001 40.0822 25.9901 40.0822H32.2529C34.8429 40.0822 36.95 37.9751 36.95 35.3851C36.95 32.7951 34.8429 30.688 32.2529 30.688H25.9901C23.4001 30.688 21.293 32.7951 21.293 35.3851ZM32.2529 33.8194C33.1163 33.8194 33.8186 34.5218 33.8186 35.3851C33.8186 36.2484 33.1163 36.9508 32.2529 36.9508H25.9901C25.1268 36.9508 24.4244 36.2484 24.4244 35.3851C24.4244 34.5218 25.1268 33.8194 25.9901 33.8194H32.2529Z" fill="#A7AFC0"/>
<path d="M4.81933 15.0529C5.6962 15.4204 6.26283 16.2722 6.26283 17.2228C6.26283 17.856 6.64432 18.427 7.22934 18.6693C7.81437 18.9117 8.48786 18.7777 8.93565 18.33L10.2327 17.0329C11.1199 16.1457 12.2994 15.6571 13.5541 15.6571H14.0914C18.408 15.6571 21.9199 12.1452 21.9199 7.82854C21.9199 3.51188 18.408 0 14.0914 0H7.82854C3.51188 0 0 3.51188 0 7.82854C0 10.99 1.89169 13.8257 4.81933 15.0529ZM7.82854 3.13142H14.0914C16.6814 3.13142 18.7885 5.23854 18.7885 7.82854C18.7885 10.4185 16.6814 12.5257 14.0914 12.5257H13.5541C11.7116 12.5257 9.9662 13.158 8.56575 14.3197C7.97783 13.3768 7.10362 12.615 6.02978 12.1649C4.26914 11.4269 3.13142 9.72477 3.13142 7.82854C3.13142 5.23854 5.23854 3.13142 7.82854 3.13142Z" fill="#A7AFC0"/>
<path d="M32.2537 0H24.3098C23.4451 0 22.7441 0.700967 22.7441 1.56571C22.7441 2.43045 23.4451 3.13142 24.3098 3.13142H32.2537C34.8437 3.13142 36.9508 5.23854 36.9508 7.82854C36.9508 9.72477 35.8131 11.4268 34.0524 12.1649C32.9786 12.615 32.1043 13.3768 31.5164 14.3197C30.116 13.158 28.3706 12.5257 26.5281 12.5257H24.3098C23.4451 12.5257 22.7441 13.2266 22.7441 14.0914C22.7441 14.9561 23.4451 15.6571 24.3098 15.6571H26.5281C27.7828 15.6571 28.9623 16.1457 29.8496 17.0328L31.1466 18.3299C31.5952 18.7786 32.269 18.9112 32.8529 18.6693C33.4379 18.427 33.8194 17.856 33.8194 17.2228C33.8194 16.2722 34.386 15.4204 35.2629 15.0529C38.1905 13.8257 40.0822 10.99 40.0822 7.82854C40.0822 3.51188 36.5704 0 32.2537 0Z" fill="#A7AFC0"/>
</svg>
