<svg width="41" height="41" viewBox="0 0 41 41" fill="none" xmlns="http://www.w3.org/2000/svg">
<path d="M12.8125 12.8125C13.697 12.8125 14.4141 12.0955 14.4141 11.2109C14.4141 10.3278 15.1325 9.60938 16.0156 9.60938C16.8987 9.60938 17.6172 10.3278 17.6172 11.2109C17.6172 11.8078 17.2885 12.3517 16.7593 12.6301C15.3127 13.3912 14.4141 14.9673 14.4141 16.7433V17.6172C14.4141 18.5017 15.1311 19.2188 16.0156 19.2188C16.9002 19.2188 17.6172 18.5017 17.6172 17.6172V16.7433C17.6172 16.178 17.8718 15.6642 18.2508 15.4648C19.8358 14.6308 20.8203 13.0008 20.8203 11.2109C20.8203 8.56163 18.6649 6.40625 16.0156 6.40625C13.3663 6.40625 11.2109 8.56163 11.2109 11.2109C11.2109 12.0955 11.928 12.8125 12.8125 12.8125Z" fill="#A7AFC0"/>
<path d="M16.0156 25.625C16.9001 25.625 17.6172 24.908 17.6172 24.0234C17.6172 23.1389 16.9001 22.4219 16.0156 22.4219C15.1311 22.4219 14.4141 23.1389 14.4141 24.0234C14.4141 24.908 15.1311 25.625 16.0156 25.625Z" fill="#A7AFC0"/>
<path d="M34.9958 15.9351C34.3693 16.5596 34.3678 17.5737 34.9922 18.2001C36.8005 20.0138 37.7963 22.4232 37.7963 24.9844V34.8682C37.2952 34.6905 36.756 34.5938 36.1948 34.5938H28.187C26.5752 34.5938 24.9815 34.1876 23.5782 33.419C22.8026 32.9941 21.8292 33.2785 21.4043 34.0542C20.9793 34.83 21.2637 35.8034 22.0396 36.2283C23.9131 37.2545 26.0389 37.7969 28.187 37.7969H36.1948C37.0779 37.7969 37.7963 38.5154 37.7963 39.3985C37.7963 40.283 38.5134 41.0001 39.3979 41.0001C40.2824 41.0001 40.9995 40.283 40.9995 39.3985V24.9844C40.9995 21.5695 39.6717 18.357 37.2608 15.9387C36.6363 15.3121 35.6222 15.3107 34.9958 15.9351Z" fill="#A7AFC0"/>
<path d="M1.60156 35.2344C2.48611 35.2344 3.20312 34.5174 3.20312 33.6328C3.20312 32.7497 3.92159 32.0312 4.80469 32.0312H16.0156C24.8466 32.0312 32.0312 24.8466 32.0312 16.0156C32.0312 7.18453 24.8466 0 16.0156 0C7.18461 0 0 7.18453 0 16.0156V33.6328C0 34.5174 0.71702 35.2344 1.60156 35.2344ZM3.20312 16.0156C3.20312 8.95081 8.95073 3.20312 16.0156 3.20312C23.0805 3.20312 28.8281 8.95081 28.8281 16.0156C28.8281 23.0804 23.0805 28.8281 16.0156 28.8281H4.80469C4.24342 28.8281 3.70425 28.9249 3.20312 29.1026V16.0156Z" fill="#A7AFC0"/>
</svg>
