<svg width="37" height="38" viewBox="0 0 37 38" fill="none" xmlns="http://www.w3.org/2000/svg">
<g clip-path="url(#clip0_752_3489)">
<path d="M29.4077 0H7.13778C3.20194 0 0 3.3053 0 7.36804V30.3563C0 34.419 3.20194 37.7243 7.13778 37.7243H29.4077C33.3435 37.7243 36.5455 34.419 36.5455 30.3563V7.36804C36.5455 3.3053 33.3435 0 29.4077 0ZM33.6903 30.3563C33.6903 32.7939 31.7691 34.7771 29.4077 34.7771H7.13778C4.77632 34.7771 2.85511 32.7939 2.85511 30.3563V7.36804C2.85511 4.93039 4.77632 2.94721 7.13778 2.94721H29.4077C31.7691 2.94721 33.6903 4.93039 33.6903 7.36804V30.3563Z" fill="#A7AFC0"/>
<path d="M29.6939 11.494H15.7038C14.9167 11.494 14.2763 10.833 14.2763 10.0204C14.2763 7.58279 12.3551 5.59961 9.99361 5.59961H7.13849C6.35005 5.59961 5.71094 6.25934 5.71094 7.07322C5.71094 7.88709 6.35005 8.54682 7.13849 8.54682H9.99361C10.7808 8.54682 11.4212 9.20788 11.4212 10.0204C11.4212 12.4581 13.3424 14.4413 15.7038 14.4413H29.6939C30.4823 14.4413 31.1214 13.7815 31.1214 12.9676C31.1214 12.1538 30.4823 11.494 29.6939 11.494Z" fill="#A7AFC0"/>
<path d="M12.8487 17.3887H9.99361C7.63214 17.3887 5.71094 19.3719 5.71094 21.8095V27.7039C5.71094 30.1416 7.63214 32.1247 9.99361 32.1247H12.8487C15.2102 32.1247 17.1314 30.1416 17.1314 27.7039V21.8095C17.1314 19.3719 15.2102 17.3887 12.8487 17.3887ZM14.2763 27.7039C14.2763 28.5165 13.6359 29.1775 12.8487 29.1775H9.99361C9.20645 29.1775 8.56605 28.5165 8.56605 27.7039V21.8095C8.56605 20.9969 9.20645 20.3359 9.99361 20.3359H12.8487C13.6359 20.3359 14.2763 20.9969 14.2763 21.8095V27.7039Z" fill="#A7AFC0"/>
<path d="M29.6941 17.3887H21.1287C20.3403 17.3887 19.7012 18.0484 19.7012 18.8623C19.7012 19.6762 20.3403 20.3359 21.1287 20.3359H29.6941C30.4825 20.3359 31.1216 19.6762 31.1216 18.8623C31.1216 18.0484 30.4825 17.3887 29.6941 17.3887Z" fill="#A7AFC0"/>
<path d="M29.6941 23.2832H21.1287C20.3403 23.2832 19.7012 23.9429 19.7012 24.7568C19.7012 25.5707 20.3403 26.2304 21.1287 26.2304H29.6941C30.4825 26.2304 31.1216 25.5707 31.1216 24.7568C31.1216 23.9429 30.4825 23.2832 29.6941 23.2832Z" fill="#A7AFC0"/>
<path d="M29.6941 29.1772H21.1287C20.3403 29.1772 19.7012 29.837 19.7012 30.6509C19.7012 31.4647 20.3403 32.1245 21.1287 32.1245H29.6941C30.4825 32.1245 31.1216 31.4647 31.1216 30.6509C31.1216 29.837 30.4825 29.1772 29.6941 29.1772Z" fill="#A7AFC0"/>
<path d="M18.2733 8.84175C19.0617 8.84175 19.7008 8.18199 19.7008 7.36814C19.7008 6.55429 19.0617 5.89453 18.2733 5.89453C17.4848 5.89453 16.8457 6.55429 16.8457 7.36814C16.8457 8.18199 17.4848 8.84175 18.2733 8.84175Z" fill="#A7AFC0"/>
<path d="M23.9822 8.84175C24.7707 8.84175 25.4098 8.18199 25.4098 7.36814C25.4098 6.55429 24.7707 5.89453 23.9822 5.89453C23.1938 5.89453 22.5547 6.55429 22.5547 7.36814C22.5547 8.18199 23.1938 8.84175 23.9822 8.84175Z" fill="#A7AFC0"/>
<path d="M29.6932 8.84175C30.4816 8.84175 31.1207 8.18199 31.1207 7.36814C31.1207 6.55429 30.4816 5.89453 29.6932 5.89453C28.9048 5.89453 28.2656 6.55429 28.2656 7.36814C28.2656 8.18199 28.9048 8.84175 29.6932 8.84175Z" fill="#A7AFC0"/>
</g>
<defs>
<clipPath id="clip0_752_3489">
<rect width="36.5455" height="37.7243" fill="white"/>
</clipPath>
</defs>
</svg>
