<svg width="100" height="100" viewBox="0 0 100 100" fill="none" xmlns="http://www.w3.org/2000/svg">
<path d="M68.6525 21.4244C68.6525 11.8005 60.8286 4 51.1757 4H49.883C40.1718 4 32.3008 11.8492 32.3008 21.5295V41.9836H68.6525V21.4244Z" stroke="#231F20" stroke-width="3.5" stroke-linecap="round" stroke-linejoin="round"/>
<path d="M32.3006 41.9839H18V94.0001H82.953V41.9839H68.6524" stroke="#231F20" stroke-width="3.5" stroke-linecap="round" stroke-linejoin="round"/>
<path d="M68.6525 41.9839H32.3008" stroke="#231F20" stroke-width="3.5" stroke-linecap="round" stroke-linejoin="round"/>
<path d="M56.9969 60.0202C58.7965 61.8879 59.9149 64.4652 59.9149 67.3094C59.9149 70.1536 58.8022 72.7366 56.9969 74.5987C55.1973 76.4664 52.7051 77.6188 49.9574 77.6188C47.2098 77.6188 44.7176 76.4664 42.918 74.5987C41.1184 72.7309 40 70.1536 40 67.3094C40 64.4652 41.1127 61.8822 42.918 60.0202C44.7176 58.1524 47.2098 57 49.9574 57" stroke="#00AAFF" stroke-width="3" stroke-linecap="round" stroke-linejoin="round"/>
<path d="M56 64L56.4217 59L61 59.457" stroke="#00AAFF" stroke-width="3" stroke-linecap="round" stroke-linejoin="round"/>
</svg>
