<svg width="100" height="100" viewBox="0 0 100 100" fill="none" xmlns="http://www.w3.org/2000/svg">
<path d="M62.4544 55.0595L64.5464 58.7813L66.6384 62.5031L69.0799 58.8071L71.5215 55.1111C73.0439 54.7833 74.5404 54.2826 75.9825 53.6038C77.4246 52.925 78.8098 52.0707 80.1095 51.0357C84.6016 47.4558 87.2115 42.3996 87.8018 37.1188C88.3921 31.8381 86.9603 26.3328 83.3692 21.8547C79.7781 17.3767 74.7061 14.775 69.4088 14.1865C64.1114 13.5981 58.5889 15.0254 54.0968 18.6052C49.6047 22.1851 46.9949 27.2413 46.4046 32.5221C46.2803 33.6345 46.2466 34.7572 46.301 35.88" stroke="#00AAFF" stroke-width="3.5" stroke-linecap="round" stroke-linejoin="round"/>
<path d="M46.3037 33.5469C46.2493 35.1342 46.3762 36.7551 46.705 38.3785" stroke="#00AAFF" stroke-width="3.5" stroke-linecap="round" stroke-linejoin="round"/>
<path d="M47.531 6.5V12.586" stroke="#231F20" stroke-width="3.5" stroke-linecap="round" stroke-linejoin="round"/>
<path d="M38.8264 21.6763H32.7188" stroke="#231F20" stroke-width="3.5" stroke-linecap="round" stroke-linejoin="round"/>
<path d="M36.7112 10.7769L40.9392 14.9917" stroke="#231F20" stroke-width="3.5" stroke-linecap="round" stroke-linejoin="round"/>
<path d="M39.15 73.4648C46.5613 73.4648 52.5694 67.4755 52.5694 60.0874C52.5694 52.6992 46.5613 46.71 39.15 46.71C31.7388 46.71 25.7307 52.6992 25.7307 60.0874C25.7307 67.4755 31.7388 73.4648 39.15 73.4648Z" stroke="#231F20" stroke-width="3.5" stroke-linecap="round" stroke-linejoin="round"/>
<path d="M31.0254 71.1729L19.0611 76.3323C15.413 77.5686 13 80.6916 13 84.1786V94.433H65.2999V84.1786C65.2999 80.6916 62.8869 77.5686 59.2388 76.3323L47.2746 71.1729" stroke="#231F20" stroke-width="3.5" stroke-linecap="round" stroke-linejoin="round"/>
<path d="M58.2627 34.5659L65.4708 41.8392L75.9359 28.5625" stroke="#00AAFF" stroke-width="3.5" stroke-linecap="round" stroke-linejoin="round"/>
</svg>
