<svg width="60" height="60" viewBox="0 0 60 60" fill="none" xmlns="http://www.w3.org/2000/svg">
<path d="M38.3099 36.1314V48.0206C38.3099 49.2618 37.3058 50.2704 36.0701 50.2704H14.8399C13.6042 50.2704 12.6001 49.2618 12.6001 48.0206V12.45C12.6001 11.2087 13.6042 10.2002 14.8399 10.2002H36.0797C37.3155 10.2002 38.3195 11.2087 38.3195 12.45" stroke="#231F20" stroke-width="1.6" stroke-linecap="round" stroke-linejoin="round"/>
<path d="M12.6001 43.8896H38.3099" stroke="#231F20" stroke-width="1.6" stroke-linecap="round" stroke-linejoin="round"/>
<path d="M24.0598 47.1284H26.8499" stroke="#231F20" stroke-width="1.6" stroke-linecap="round" stroke-linejoin="round"/>
<path d="M25.817 13.9339C25.817 14.1376 25.6529 14.3024 25.4501 14.3024C25.2474 14.3024 25.0833 14.1376 25.0833 13.9339C25.0833 13.7303 25.2474 13.5654 25.4501 13.5654C25.6529 13.5654 25.817 13.7303 25.817 13.9339Z" stroke="#231F20" stroke-width="1.6" stroke-linecap="round" stroke-linejoin="round"/>
<path d="M34.9019 23.9903L37.7016 26.8317L41.7565 21.6338" stroke="#00AAFF" stroke-width="1.6" stroke-linecap="round" stroke-linejoin="round"/>
<path d="M44.6528 30.5845C48.1477 27.074 48.1477 21.3913 44.6528 17.8905C41.1579 14.3897 35.5004 14.38 32.0151 17.8905C29.0222 20.8967 28.5975 25.503 30.7407 28.9651L29.6787 32.9313L33.6274 31.8646C37.0741 34.0175 41.6599 33.5908 44.6528 30.5845Z" stroke="#00AAFF" stroke-width="1.6" stroke-linecap="round" stroke-linejoin="round"/>
</svg>
