<svg width="16" height="16" viewBox="0 0 16 16" fill="none" xmlns="http://www.w3.org/2000/svg">
<path d="M8 0C9.37256 0 10.6642 0.346059 11.793 0.955078L11.082 1.93945C10.1566 1.46793 9.10985 1.2002 8 1.2002C4.24446 1.2002 1.2002 4.24446 1.2002 8C1.2002 11.7555 4.24446 14.7998 8 14.7998C11.7555 14.7998 14.7998 11.7555 14.7998 8C14.7998 7.15402 14.6436 6.34478 14.3613 5.59766L15.1777 4.4668C15.7033 5.53248 16 6.73141 16 8C16 12.4183 12.4183 16 8 16C3.58172 16 0 12.4183 0 8C0 3.58172 3.58172 0 8 0Z" fill="#8A949E"/>
<path d="M4.5 7.73333L7.5 11L14 2" stroke="#8A949E" stroke-width="1.2" stroke-linecap="round"/>
</svg>
