<svg width="200" height="200" viewBox="0 0 200 200" fill="none" xmlns="http://www.w3.org/2000/svg">
<path d="M160.928 100.001C160.928 133.597 133.595 160.93 99.9993 160.93C66.4034 160.93 39.0704 133.597 39.0704 100.001C39.0704 66.4047 66.4034 39.0704 99.9993 39.0704C108.229 39.0704 116.207 40.6805 123.713 43.8561L129.196 30.8973C119.946 26.9837 110.122 25 99.9993 25C58.6447 25 25 58.6447 25 100.001C25 141.357 58.6447 175 99.9993 175C141.354 175 175 141.355 175 100.001H160.93H160.928Z" fill="#464C53"/>
<path d="M69.8751 88.5234L59.9248 98.4723L92.1027 130.649L168.039 54.713L158.09 44.7627L92.1027 110.751L69.8751 88.5234Z" fill="#00AAFF"/>
</svg>
