<svg width="100" height="100" viewBox="0 0 100 100" fill="none" xmlns="http://www.w3.org/2000/svg">
<path d="M63.8496 60.2187V80.0339C63.8496 82.1027 62.1762 83.7837 60.1166 83.7837H24.7331C22.6734 83.7837 21 82.1027 21 80.0339V20.7497C21 18.6809 22.6734 17 24.7331 17H60.1327C62.1923 17 63.8657 18.6809 63.8657 20.7497" stroke="#231F20" stroke-width="3" stroke-linecap="round" stroke-linejoin="round"/>
<path d="M21 73.1487H63.8496" stroke="#231F20" stroke-width="3" stroke-linecap="round" stroke-linejoin="round"/>
<path d="M40.0996 78.547H44.7498" stroke="#231F20" stroke-width="3" stroke-linecap="round" stroke-linejoin="round"/>
<path d="M43.0281 23.2226C43.0281 23.562 42.7545 23.8368 42.4166 23.8368C42.0787 23.8368 41.8052 23.562 41.8052 23.2226C41.8052 22.8832 42.0787 22.6084 42.4166 22.6084C42.7545 22.6084 43.0281 22.8832 43.0281 23.2226Z" stroke="#231F20" stroke-width="3" stroke-linecap="round" stroke-linejoin="round"/>
<path d="M58.1694 39.9831L62.8357 44.7188L69.5939 36.0556" stroke="#00AAFF" stroke-width="3" stroke-linecap="round" stroke-linejoin="round"/>
<path d="M74.4212 50.9737C80.2461 45.1228 80.2461 35.6516 74.4212 29.8169C68.5964 23.9822 59.1672 23.966 53.3585 29.8169C48.3703 34.8273 47.6623 42.5045 51.2345 48.2745L49.4645 54.885L56.0456 53.1071C61.79 56.6952 69.4331 55.9841 74.4212 50.9737Z" stroke="#00AAFF" stroke-width="3" stroke-linecap="round" stroke-linejoin="round"/>
</svg>
